<svg xmlns="http://www.w3.org/2000/svg" xmlns:xlink="http://www.w3.org/1999/xlink" width="500" zoomAndPan="magnify" viewBox="0 0 375 374.999991" height="500" preserveAspectRatio="xMidYMid meet" version="1.0"><defs><clipPath id="218fb829d5"><path d="M 80 315 L 310.667969 315 L 310.667969 324 L 80 324 Z M 80 315 " clip-rule="nonzero"/></clipPath><clipPath id="48c36f0a7e"><path d="M 235 51.019531 L 284 51.019531 L 284 103 L 235 103 Z M 235 51.019531 " clip-rule="nonzero"/></clipPath></defs><rect x="-37.5" width="450" fill="#ffffff" y="-37.499999" height="449.999989" fill-opacity="1"/><rect x="-37.5" width="450" fill="#ffffff" y="-37.499999" height="449.999989" fill-opacity="1"/><rect x="-37.5" width="450" fill="#061a37" y="-37.499999" height="449.999989" fill-opacity="1"/><path fill="#63b0dd" d="M 105.597656 224.191406 L 151.097656 224.191406 L 151.097656 319.949219 L 105.597656 319.949219 Z M 105.597656 224.191406 " fill-opacity="1" fill-rule="nonzero"/><path fill="#63b0dd" d="M 173.847656 180.371094 L 219.347656 180.371094 L 219.347656 319.949219 L 173.847656 319.949219 Z M 173.847656 180.371094 " fill-opacity="1" fill-rule="nonzero"/><path fill="#63b0dd" d="M 242.097656 125.726562 L 287.601562 125.726562 L 287.601562 319.949219 L 242.097656 319.949219 Z M 242.097656 125.726562 " fill-opacity="1" fill-rule="nonzero"/><g clip-path="url(#218fb829d5)"><path fill="#63b0dd" d="M 306.285156 323.988281 L 84.066406 323.988281 C 81.835938 323.988281 80.023438 322.179688 80.023438 319.949219 C 80.023438 317.71875 81.835938 315.914062 84.066406 315.914062 L 306.285156 315.914062 C 308.519531 315.914062 310.328125 317.71875 310.328125 319.949219 C 310.328125 322.179688 308.519531 323.988281 306.285156 323.988281 Z M 306.285156 323.988281 " fill-opacity="1" fill-rule="nonzero"/></g><path fill="#63b0dd" d="M 69.449219 230.871094 C 68.527344 230.871094 67.601562 230.554688 66.839844 229.914062 C 65.132812 228.476562 64.921875 225.929688 66.359375 224.222656 L 99.257812 185.335938 C 100.558594 183.800781 102.785156 183.453125 104.492188 184.515625 L 122.101562 195.511719 L 170.75 137.46875 C 172.011719 135.960938 174.183594 135.582031 175.886719 136.574219 L 195.695312 148.113281 L 257.183594 75.109375 C 258.621094 73.402344 261.167969 73.183594 262.878906 74.617188 C 264.585938 76.054688 264.808594 78.601562 263.371094 80.308594 L 199.691406 155.917969 C 198.425781 157.417969 196.257812 157.796875 194.5625 156.804688 L 174.757812 145.265625 L 126.042969 203.390625 C 124.746094 204.933594 122.511719 205.289062 120.800781 204.222656 L 103.175781 193.21875 L 72.539062 229.4375 C 71.738281 230.382812 70.597656 230.871094 69.449219 230.871094 Z M 69.449219 230.871094 " fill-opacity="1" fill-rule="nonzero"/><g clip-path="url(#48c36f0a7e)"><path fill="#63b0dd" d="M 283.675781 51.019531 L 267.03125 102.660156 L 258.988281 80.332031 L 235.585938 76.246094 Z M 283.675781 51.019531 " fill-opacity="1" fill-rule="nonzero"/></g></svg>