<svg xmlns="http://www.w3.org/2000/svg" xmlns:xlink="http://www.w3.org/1999/xlink" width="500" zoomAndPan="magnify" viewBox="0 0 375 374.999991" height="500" preserveAspectRatio="xMidYMid meet" version="1.0"><defs><clipPath id="c0562817b1"><path d="M 52.628906 52.628906 L 322.625 52.628906 L 322.625 322.625 L 52.628906 322.625 Z M 52.628906 52.628906 " clip-rule="nonzero"/></clipPath></defs><rect x="-37.5" width="450" fill="#ffffff" y="-37.499999" height="449.999989" fill-opacity="1"/><rect x="-37.5" width="450" fill="#ffffff" y="-37.499999" height="449.999989" fill-opacity="1"/><rect x="-37.5" width="450" fill="#061a37" y="-37.499999" height="449.999989" fill-opacity="1"/><g clip-path="url(#c0562817b1)"><path fill="#63b0dd" d="M 187.628906 52.628906 C 113.066406 52.628906 52.628906 113.070312 52.628906 187.628906 C 52.628906 262.183594 113.066406 322.628906 187.628906 322.628906 C 262.1875 322.628906 322.628906 262.183594 322.628906 187.628906 C 322.628906 113.070312 262.1875 52.628906 187.628906 52.628906 Z M 240.210938 161.152344 C 240.972656 162.023438 242.105469 162.425781 243.632812 162.332031 C 247.378906 162.109375 250.234375 160.9375 251.890625 158.945312 C 252.578125 158.121094 253.039062 157.167969 253.261719 156.132812 C 254.039062 157.976562 254.851562 159.023438 256.324219 159.023438 C 256.820312 159.023438 258.082031 159.023438 260.511719 156.367188 C 261.613281 159.117188 263.566406 162.164062 266.847656 162.339844 C 269.378906 162.480469 272.445312 162.449219 274.464844 162.40625 L 274.464844 168.167969 C 268.855469 168.710938 262.691406 168.867188 261.320312 168.179688 C 257.277344 166.164062 252.871094 168.832031 252.859375 168.847656 C 250.863281 169.832031 246.035156 171.585938 243.875 170.738281 C 243.476562 170.582031 243.25 170.363281 243.101562 169.980469 C 242.691406 168.921875 242.347656 167.875 242.023438 166.882812 C 240.882812 163.421875 239.5 159.210938 235.625 159.210938 C 235.136719 159.210938 234.613281 159.277344 234.042969 159.417969 C 232.984375 159.683594 230.921875 159.894531 228.742188 160.121094 C 227.113281 160.289062 225.578125 160.457031 224.144531 160.644531 C 224.851562 160.207031 225.582031 159.664062 226.335938 158.996094 C 231.230469 154.644531 236.363281 151.730469 238.738281 151.886719 C 239.222656 151.917969 239.410156 152.070312 239.535156 152.210938 C 240.246094 153.042969 240.046875 154.402344 239.6875 156.234375 C 239.363281 157.886719 238.992188 159.757812 240.210938 161.152344 Z M 241 122.910156 C 242.484375 123.019531 243.90625 122.796875 245.125 121.945312 C 246.742188 120.816406 247.617188 118.875 247.796875 116.015625 C 248.160156 110.238281 248.96875 106.917969 249.570312 105.230469 C 250.03125 106.933594 250.5 109.554688 250.757812 112.089844 C 250.871094 113.1875 251.742188 114.066406 252.828125 113.984375 C 252.832031 113.984375 253 114 253.074219 114.089844 C 253.210938 114.253906 253.328125 114.753906 253.21875 115.625 C 252.746094 119.433594 249.53125 126.464844 246.199219 126.464844 C 244.699219 126.464844 243.324219 125.132812 241.992188 123.84375 C 241.667969 123.527344 241.339844 123.210938 241 122.910156 Z M 179.601562 61.34375 C 180.417969 61.292969 181.230469 61.242188 182.046875 61.207031 C 180.214844 62.292969 178.484375 63.402344 176.933594 64.511719 C 178.039062 63.296875 178.914062 62.265625 179.601562 61.34375 Z M 313.722656 177.199219 C 313.832031 178.519531 313.957031 179.839844 314.023438 181.171875 C 313.785156 181.046875 313.523438 180.929688 313.230469 180.824219 C 312.101562 180.425781 310.617188 180 309.015625 179.542969 C 306.859375 178.933594 302.867188 177.792969 300.90625 176.773438 C 303.410156 176.410156 308.625 176.558594 313.722656 177.199219 Z M 292.0625 199.695312 C 303.386719 198.082031 309.882812 195.75 311.375 192.769531 C 311.710938 192.097656 312.484375 191.167969 313.230469 190.269531 C 313.542969 189.898438 313.847656 189.519531 314.148438 189.144531 C 313.332031 258.230469 256.90625 314.191406 187.628906 314.191406 C 119.675781 314.191406 64.082031 260.355469 61.203125 193.097656 C 62.949219 193.503906 64.898438 193.34375 66.921875 193.175781 C 69.96875 192.921875 73.417969 192.636719 77.507812 193.847656 C 85.371094 196.175781 85.613281 197.296875 86.199219 200.007812 C 86.566406 201.722656 87.074219 204.070312 88.976562 207.113281 C 90.660156 209.808594 93.152344 211.503906 96.183594 212.023438 C 96.890625 212.140625 97.597656 212.195312 98.3125 212.195312 C 103.800781 212.195312 109.1875 208.941406 110.816406 207.640625 C 112.230469 206.511719 112.152344 205.304688 111.976562 204.683594 C 111.433594 202.726562 109.285156 202.445312 106.03125 202.023438 C 104.878906 201.875 103.535156 201.699219 102.445312 201.421875 C 103.40625 200.519531 104.519531 199.3125 104.519531 197.609375 C 104.519531 195.316406 102.847656 194.238281 101.503906 193.367188 C 100.402344 192.65625 99.152344 191.847656 98.121094 190.203125 C 97.371094 189 97.503906 188.726562 98.0625 187.574219 C 98.644531 186.375 99.527344 184.558594 98.902344 181.753906 C 98.550781 180.171875 97.570312 179.558594 97.019531 179.335938 C 95.242188 178.609375 93.507812 179.734375 91.507812 181.042969 C 90.082031 181.96875 87.925781 183.359375 86.886719 183.046875 C 86.304688 182.867188 85.851562 181.945312 85.628906 181.40625 C 84.972656 179.820312 85.355469 178.953125 85.703125 178.4375 C 87.707031 175.445312 95.59375 174.203125 99.371094 174.203125 C 100.160156 174.203125 101.875 175.628906 103.125 176.667969 C 105.671875 178.789062 108.835938 181.425781 112.265625 180.136719 C 114.949219 179.132812 116.917969 174.976562 120.445312 167.101562 C 123.117188 161.144531 126.140625 154.394531 129.21875 151.320312 C 133.128906 147.410156 137.160156 147.6875 141.058594 147.957031 C 142.949219 148.085938 144.738281 148.210938 146.410156 147.835938 C 147.824219 147.523438 149.550781 146.960938 150.359375 145.382812 C 151.324219 143.511719 150.492188 141.558594 149.234375 138.605469 C 149.015625 138.09375 148.78125 137.539062 148.535156 136.9375 C 149.449219 137.054688 150.488281 137.007812 151.621094 136.667969 C 151.789062 136.617188 151.886719 136.609375 151.898438 136.597656 C 152.203125 136.851562 152.660156 138.039062 152.9375 138.753906 C 153.945312 141.363281 155.597656 145.742188 161.28125 145.351562 C 163.464844 145.207031 165.042969 144.453125 165.972656 143.117188 C 167.675781 140.652344 166.648438 137.242188 165.347656 132.929688 C 164.511719 130.167969 163.566406 127.03125 163.242188 123.789062 C 162.851562 119.90625 161.65625 117.414062 159.585938 116.175781 C 156.835938 114.527344 153.75 115.804688 151.90625 116.570312 C 151.898438 116.570312 151.894531 116.574219 151.886719 116.578125 C 151.570312 115.90625 151.183594 114.867188 150.878906 114.046875 C 149.78125 111.097656 148.539062 107.753906 146.214844 105.996094 C 145.363281 105.351562 144.355469 105.109375 143.367188 105.320312 C 141.097656 105.800781 139.664062 108.414062 138 111.4375 C 137.132812 113.011719 135.335938 116.28125 134.46875 116.453125 C 130.351562 115.078125 127.90625 118.898438 126.652344 121.042969 C 126.023438 120.21875 125.554688 119.152344 125.269531 115.710938 C 125.074219 113.339844 133.492188 107.808594 138.015625 104.835938 C 142.992188 101.566406 147.289062 98.742188 148.773438 96.261719 C 149.378906 95.257812 150.503906 93.386719 149.238281 91.890625 C 147.992188 90.417969 146.257812 91.101562 144.25 91.886719 C 142.796875 92.457031 140.664062 93.292969 139.105469 93.148438 C 139.359375 92.324219 140.210938 90.957031 140.523438 90.449219 C 141.101562 89.519531 142.070312 87.960938 140.679688 86.710938 C 139.28125 85.457031 137.777344 86.628906 137.058594 87.195312 C 133.660156 89.863281 125.015625 93.070312 122.15625 93.070312 C 121.644531 93.070312 121.3125 93.054688 121.105469 93.035156 C 121.011719 92.515625 120.941406 91.539062 120.875 90.582031 C 120.832031 89.953125 120.78125 89.238281 120.714844 88.421875 C 120.5625 86.617188 119.738281 85.074219 118.332031 83.972656 C 117.800781 83.554688 117.199219 83.226562 116.566406 82.957031 C 120.699219 80.140625 125.019531 77.585938 129.480469 75.269531 C 131.066406 76.828125 135.085938 79.148438 146.53125 81.554688 C 149.617188 82.207031 151.726562 83.179688 153.421875 83.960938 C 154.972656 84.679688 156.34375 85.222656 157.625 85.222656 C 159.527344 85.222656 161.230469 84.027344 163.027344 80.4375 C 164.140625 78.210938 167.199219 74.808594 170.378906 71.445312 C 170.152344 72.113281 170.082031 72.757812 170.21875 73.371094 C 170.820312 76.074219 172.027344 78.445312 172.996094 80.347656 C 173.371094 81.085938 173.851562 82.027344 174.082031 82.640625 C 173.828125 82.816406 173.5 83.019531 173.234375 83.183594 C 171.484375 84.277344 169.085938 85.773438 168.65625 88.488281 C 168.375 90.257812 169.039062 92.113281 170.628906 94.003906 C 173.378906 97.277344 172.628906 99.652344 171.683594 102.660156 C 171.1875 104.238281 170.675781 105.871094 170.675781 107.675781 C 170.675781 108.558594 170.542969 109.996094 170.402344 111.515625 C 169.738281 118.761719 169.496094 124.042969 172.445312 126 C 172.957031 126.339844 173.667969 126.636719 174.585938 126.636719 C 175.351562 126.636719 176.265625 126.429688 177.324219 125.859375 C 180.753906 124.023438 181.777344 122.09375 182.960938 119.859375 C 184.417969 117.101562 186.414062 113.324219 194.417969 106.414062 C 208.632812 94.136719 219.4375 71.023438 219.929688 65.257812 C 239.902344 70.535156 257.964844 80.574219 272.800781 94.09375 C 271.039062 97.207031 268.710938 100.019531 266.828125 99.679688 C 266.136719 99.554688 266.109375 99.550781 266.023438 97.699219 C 265.898438 95.003906 265.6875 90.488281 258.246094 89.027344 C 247.636719 86.9375 232.5625 91.746094 229.039062 101.074219 C 226.605469 107.5 226.367188 113.792969 228.414062 117.488281 C 229.476562 119.402344 231.105469 120.625 233.128906 121.027344 C 233.980469 121.199219 234.90625 121.46875 235.882812 121.757812 C 235.28125 122.113281 234.75 122.664062 234.285156 123.40625 C 230.019531 130.230469 224.941406 135.550781 223.417969 135.574219 C 220.761719 135.574219 218.644531 137.925781 217.75 141.863281 C 217.394531 143.429688 217.171875 145.28125 217.636719 146.632812 C 217.609375 146.65625 217.589844 146.683594 217.5625 146.710938 C 215.9375 145.878906 213.371094 144.917969 211.300781 145.722656 C 210.003906 146.222656 209.085938 147.320312 208.714844 148.808594 C 207.789062 152.503906 208.636719 157.558594 210.601562 160.078125 C 211.878906 161.714844 213.320312 162.058594 214.304688 162.058594 C 214.867188 162.058594 215.433594 162.121094 216.007812 162.179688 C 216.222656 162.203125 216.4375 162.226562 216.664062 162.246094 C 214.925781 162.90625 213.664062 163.773438 212.980469 164.972656 L 212.070312 166.582031 C 210.4375 169.5 208.746094 172.519531 206.910156 173.984375 L 206.527344 174.292969 C 204 176.296875 200.183594 179.324219 198.578125 186.289062 C 196.859375 193.738281 200.605469 209.777344 210.257812 212.136719 C 216.546875 213.675781 224.257812 213.003906 229.890625 212.515625 C 231.796875 212.347656 233.445312 212.207031 234.574219 212.195312 C 236.828125 212.195312 237.941406 213.351562 238.527344 219.847656 C 238.835938 223.238281 240.253906 225.359375 241.5 227.230469 C 242.5625 228.816406 243.398438 230.074219 243.589844 232.011719 C 243.800781 234.082031 243.628906 235.503906 243.410156 237.304688 C 243.136719 239.597656 242.792969 242.457031 243.082031 247.601562 C 243.199219 249.699219 243.144531 251.980469 243.09375 254.398438 C 242.914062 262.34375 242.714844 271.347656 249.417969 274.21875 C 250.414062 274.648438 251.261719 275.085938 252.019531 275.476562 C 253.953125 276.472656 255.515625 277.097656 257.046875 277.097656 C 260.386719 277.097656 263.585938 274.117188 270.15625 265.460938 C 281.886719 250.003906 284.296875 242.503906 286.226562 234.308594 C 288.214844 225.871094 294.285156 218.273438 299.082031 214.785156 C 303.851562 211.320312 307.25 205.882812 306.363281 203.148438 C 306.007812 202.058594 305.046875 201.355469 303.917969 201.355469 C 303.691406 201.355469 303.226562 201.398438 302.589844 201.476562 C 299.230469 201.871094 289.003906 203.082031 286.089844 196.730469 C 285.871094 196.253906 285.644531 195.773438 285.414062 195.296875 C 287.503906 198.1875 289.671875 200.03125 292.0625 199.695312 Z M 292.0625 199.695312 " fill-opacity="1" fill-rule="nonzero"/></g><path fill="#63b0dd" d="M 175.40625 222.1875 C 169.90625 220.570312 164.273438 216.476562 159.304688 212.863281 C 156.898438 211.121094 154.628906 209.46875 152.59375 208.269531 C 146.886719 204.902344 137.714844 203.300781 135.5625 202.960938 C 134.011719 201.984375 132.546875 200.898438 131.128906 199.851562 C 127.941406 197.492188 125.421875 195.628906 122.917969 195.628906 C 121.726562 195.628906 120.050781 196.0625 118.824219 198.125 C 116.453125 202.113281 113.9375 206.058594 109.253906 210.542969 C 108.21875 211.535156 106.742188 212.496094 105.316406 213.425781 C 102.097656 215.527344 98.765625 217.699219 98.390625 221.289062 C 98.144531 223.675781 99.300781 226.109375 101.929688 228.738281 C 104.828125 231.636719 108.25 233.472656 111.554688 235.25 C 118.019531 238.71875 123.597656 241.71875 125.136719 251.851562 C 128 270.753906 140.167969 288.882812 145.269531 295.796875 C 148.996094 300.855469 152.980469 303.644531 156.476562 303.644531 C 157.957031 303.644531 159.304688 303.121094 160.261719 302.179688 C 161.207031 301.25 161.730469 299.976562 161.730469 298.59375 C 161.730469 297.574219 161.828125 296.507812 161.925781 295.378906 C 162.167969 292.699219 162.441406 289.664062 161.695312 285.566406 C 160.691406 280.035156 160.742188 277.398438 161.882812 275.492188 C 162.082031 275.15625 162.527344 275.027344 163.429688 274.832031 C 164.4375 274.609375 165.816406 274.308594 166.589844 272.992188 C 167.121094 272.082031 167.183594 270.984375 166.769531 269.640625 C 166.523438 268.832031 166.21875 268.074219 165.917969 267.339844 C 164.9375 264.9375 164.449219 263.730469 166.355469 261.511719 C 169.964844 257.308594 175.808594 247.792969 176.894531 240.726562 C 177.164062 238.972656 178.042969 237.035156 178.894531 235.164062 C 180.3125 232.03125 181.78125 228.792969 180.46875 225.933594 C 179.664062 224.175781 178.007812 222.953125 175.40625 222.1875 Z M 175.40625 222.1875 " fill-opacity="1" fill-rule="nonzero"/><path fill="#63b0dd" d="M 164.503906 85.550781 C 163.953125 84.566406 162.730469 84.183594 161.71875 84.6875 C 161.503906 84.796875 156.5 87.355469 156.5 92.648438 C 156.5 93.707031 154.972656 95.617188 153.851562 97.015625 C 151.890625 99.46875 148.917969 103.175781 152.199219 105.90625 C 153 106.574219 154.097656 106.929688 155.378906 106.929688 C 158.496094 106.929688 162.917969 104.78125 165.324219 100.683594 C 167.109375 97.65625 168.410156 92.574219 164.503906 85.550781 Z M 164.503906 85.550781 " fill-opacity="1" fill-rule="nonzero"/><path fill="#63b0dd" d="M 204.613281 122.367188 C 212.886719 118.230469 211.894531 105.195312 211.847656 104.640625 C 211.796875 104.027344 211.480469 103.464844 210.976562 103.105469 C 210.472656 102.746094 209.839844 102.625 209.238281 102.769531 C 207.390625 103.226562 198.050781 105.746094 195.707031 110.425781 C 194.339844 113.164062 194.011719 117.753906 195.832031 120.699219 C 196.917969 122.457031 198.632812 123.425781 200.65625 123.425781 C 201.878906 123.425781 203.207031 123.070312 204.613281 122.367188 Z M 204.613281 122.367188 " fill-opacity="1" fill-rule="nonzero"/></svg>