<svg xmlns="http://www.w3.org/2000/svg" xmlns:xlink="http://www.w3.org/1999/xlink" width="500" zoomAndPan="magnify" viewBox="0 0 375 374.999991" height="500" preserveAspectRatio="xMidYMid meet" version="1.0"><defs><clipPath id="69a428210f"><path d="M 46.875 131.71875 L 194.339844 131.71875 L 194.339844 321.289062 L 46.875 321.289062 Z M 46.875 131.71875 " clip-rule="nonzero"/></clipPath><clipPath id="4cab92c342"><path d="M 147 53.554688 L 219 53.554688 L 219 222 L 147 222 Z M 147 53.554688 " clip-rule="nonzero"/></clipPath><clipPath id="8435a690b3"><path d="M 186.625 135.34375 L 328.125 135.34375 L 328.125 273.890625 L 186.625 273.890625 Z M 186.625 135.34375 " clip-rule="nonzero"/></clipPath></defs><rect x="-37.5" width="450" fill="#ffffff" y="-37.499999" height="449.999989" fill-opacity="1"/><rect x="-37.5" width="450" fill="#ffffff" y="-37.499999" height="449.999989" fill-opacity="1"/><rect x="-37.5" width="450" fill="#061a37" y="-37.499999" height="449.999989" fill-opacity="1"/><g clip-path="url(#69a428210f)"><path fill="#63b0dd" d="M 191.582031 282.988281 C 190.253906 275.636719 188.398438 268.175781 186.066406 260.8125 C 183.507812 252.738281 180.332031 244.679688 176.632812 236.871094 C 171.253906 225.503906 164.636719 214.378906 156.957031 203.796875 C 141.960938 183.128906 122.625 164.097656 99.460938 147.195312 L 107.039062 136.425781 C 108.445312 134.421875 106.933594 131.679688 104.488281 131.800781 L 49.671875 134.492188 C 47.757812 134.585938 46.445312 136.453125 47.003906 138.28125 L 63.007812 190.753906 C 63.722656 193.09375 66.816406 193.589844 68.222656 191.585938 L 75.785156 180.835938 C 111.351562 206.910156 135.089844 237.476562 146.355469 271.738281 C 149.601562 281.609375 151.683594 291.546875 152.546875 301.273438 C 152.578125 301.628906 152.609375 301.984375 152.632812 302.320312 L 152.648438 302.53125 C 152.65625 302.613281 152.664062 302.699219 152.667969 302.78125 L 152.675781 302.863281 C 152.703125 303.214844 152.726562 303.5625 152.75 303.921875 L 152.75 303.949219 C 152.757812 304.066406 152.765625 304.183594 152.773438 304.304688 L 152.789062 304.515625 C 152.820312 305.136719 152.851562 305.738281 152.878906 306.300781 L 152.902344 306.960938 C 152.90625 307.0625 152.910156 307.164062 152.914062 307.273438 L 152.917969 307.351562 C 152.925781 307.558594 152.929688 307.765625 152.9375 307.980469 C 152.941406 308.164062 152.945312 308.335938 152.949219 308.519531 L 152.960938 309.328125 C 152.96875 309.851562 152.96875 310.351562 152.96875 310.851562 L 152.96875 310.882812 C 152.96875 310.976562 152.96875 311.066406 152.964844 311.175781 L 152.960938 311.691406 L 153.023438 318.378906 C 153.039062 319.988281 154.351562 321.289062 155.964844 321.289062 L 190.84375 321.289062 C 192.390625 321.289062 193.671875 320.085938 193.777344 318.542969 L 193.957031 315.796875 C 194.183594 312.347656 194.1875 308.277344 193.96875 303.699219 C 193.636719 296.878906 192.835938 289.910156 191.582031 282.988281 " fill-opacity="1" fill-rule="nonzero"/></g><g clip-path="url(#4cab92c342)"><path fill="#63b0dd" d="M 162.320312 188.03125 C 162.320312 188.597656 162.484375 189.15625 162.792969 189.632812 L 179.820312 219.726562 C 180.851562 221.902344 183.917969 221.984375 185.0625 219.863281 L 202.820312 190.0625 C 203.238281 189.542969 203.46875 188.894531 203.46875 188.226562 L 203.46875 103.085938 L 215.511719 103.085938 C 217.9375 103.085938 219.320312 100.316406 217.859375 98.378906 L 185.242188 55.113281 C 184.066406 53.550781 181.722656 53.550781 180.546875 55.113281 L 147.925781 98.378906 C 146.464844 100.316406 147.847656 103.085938 150.273438 103.085938 L 162.320312 103.085938 L 162.320312 188.03125 " fill-opacity="1" fill-rule="nonzero"/></g><g clip-path="url(#8435a690b3)"><path fill="#63b0dd" d="M 268.792969 139.734375 L 274.667969 151.855469 C 255.824219 161.28125 239 172.707031 224.625 185.851562 C 212.402344 197.03125 201.917969 209.472656 193.472656 222.824219 C 191.429688 226.054688 189.488281 229.367188 187.703125 232.675781 L 186.996094 233.984375 C 186.550781 234.804688 186.523438 235.792969 186.925781 236.636719 L 187.5625 237.980469 C 191.03125 245.304688 194.007812 252.863281 196.410156 260.445312 C 197.578125 264.128906 198.628906 267.871094 199.53125 271.570312 C 200.160156 274.152344 203.617188 274.640625 204.9375 272.335938 C 206.085938 270.328125 207.304688 268.300781 208.566406 266.308594 C 216.847656 253.21875 232.355469 233.328125 243.972656 222.703125 C 252.867188 214.566406 262.355469 207.171875 272.179688 200.710938 C 278.523438 196.480469 285.382812 192.503906 292.609375 188.867188 L 298.382812 200.789062 C 299.453125 202.992188 302.59375 203 303.671875 200.796875 L 327.835938 151.410156 C 328.671875 149.699219 327.679688 147.652344 325.816406 147.25 L 272.0625 135.585938 C 269.667969 135.066406 267.726562 137.53125 268.792969 139.734375 " fill-opacity="1" fill-rule="nonzero"/></g></svg>