<svg xmlns="http://www.w3.org/2000/svg" xmlns:xlink="http://www.w3.org/1999/xlink" width="500" zoomAndPan="magnify" viewBox="0 0 375 374.999991" height="500" preserveAspectRatio="xMidYMid meet" version="1.0"><defs><clipPath id="3fe45c952a"><path d="M 148 62 L 308 62 L 308 164.925781 L 148 164.925781 Z M 148 62 " clip-rule="nonzero"/></clipPath></defs><rect x="-37.5" width="450" fill="#ffffff" y="-37.499999" height="449.999989" fill-opacity="1"/><rect x="-37.5" width="450" fill="#ffffff" y="-37.499999" height="449.999989" fill-opacity="1"/><rect x="-37.5" width="450" fill="#061a37" y="-37.499999" height="449.999989" fill-opacity="1"/><path fill="#63b0dd" d="M 208.023438 216.707031 C 206.066406 214.828125 204.105469 212.933594 202.292969 210.796875 C 189.71875 195.679688 180.777344 172.503906 180.777344 153.484375 C 180.777344 128.914062 200.054688 102.96875 228.835938 102.96875 C 251.324219 102.96875 275.496094 124.003906 275.496094 155.117188 C 275.496094 175.140625 264.457031 199.710938 249.367188 214.183594 C 248.390625 215.332031 247.273438 216.078125 246.296875 216.964844 L 244.480469 218.597656 L 245.039062 220.859375 C 248.953125 235.222656 266.550781 240.128906 301.898438 249.457031 L 309.164062 251.597656 C 327.460938 256.757812 336.125 265.070312 339.890625 274.144531 L 340.03125 274.144531 C 343.527344 283.082031 343.109375 292.910156 342.6875 301.976562 C 342.550781 303.242188 342.550781 304.753906 342.410156 306.007812 L 114.988281 306.007812 C 114.851562 303.867188 114.707031 301.847656 114.429688 299.210938 C 113.730469 290.898438 113.03125 282.203125 115.546875 274.144531 C 118.617188 264.945312 126.582031 256.757812 145.027344 251.597656 L 152.144531 249.457031 C 184.554688 240.765625 201.878906 235.847656 207.605469 224.386719 L 209.417969 221.621094 L 209.28125 217.964844 C 208.859375 217.59375 208.582031 217.464844 208.023438 216.707031 Z M 208.023438 216.707031 " fill-opacity="1" fill-rule="nonzero"/><path fill="#63b0dd" d="M 105.347656 194.914062 C 93.890625 185.347656 84.667969 166.828125 84.667969 151.210938 C 84.667969 129.292969 101.710938 113.667969 118.613281 113.667969 C 135.652344 113.667969 153.535156 128.15625 153.535156 150.070312 C 153.535156 165.574219 145.160156 184.839844 134.261719 194.664062 C 133.984375 195.039062 133.566406 195.421875 133.289062 195.675781 L 134.539062 195.675781 C 137.199219 203.480469 148.371094 206.503906 170.445312 212.558594 C 177.429688 213.558594 176.027344 217.089844 176.730469 219.609375 C 173.945312 225.65625 162.902344 228.675781 142.367188 234.34375 L 137.476562 235.726562 C 121.832031 239.882812 115.40625 247.441406 112.75 255.632812 L 39.550781 255.632812 C 39.550781 242.148438 34.382812 222.25 63.714844 214.0625 C 90.121094 206.882812 102.972656 203.855469 105.347656 194.914062 Z M 105.347656 194.914062 " fill-opacity="1" fill-rule="nonzero"/><g clip-path="url(#3fe45c952a)"><path fill="#46a0d4" d="M 304.230469 82.292969 C 280.855469 75.746094 257.386719 69.53125 233.980469 63.039062 C 230.195312 61.890625 226.132812 61.546875 222.320312 62.761719 C 199.222656 69.035156 176.136719 75.371094 153.035156 81.640625 C 151.003906 82.304688 147.730469 82.871094 148.0625 85.746094 C 148.40625 88.296875 151.324219 88.578125 153.257812 89.296875 C 160.484375 91.269531 167.734375 93.175781 174.960938 95.195312 C 175.03125 107.734375 174.90625 120.277344 175.003906 132.816406 C 174.671875 135.332031 176.457031 137.996094 179.164062 137.929688 C 195.410156 138.9375 210.925781 145.9375 223.195312 156.492188 C 225.085938 158.34375 228.179688 159.804688 230.433594 157.652344 C 241.734375 148.066406 255.273438 140.554688 270.15625 138.617188 C 272.820312 138.191406 275.613281 138.316406 278.179688 137.375 C 280.695312 135.832031 280.167969 132.5 280.265625 130 C 280.046875 118.398438 280.335938 106.800781 280.167969 95.210938 C 282.269531 94.628906 284.382812 94.050781 286.484375 93.46875 C 286.46875 107.0625 286.550781 120.652344 286.425781 134.242188 C 282.722656 136.960938 282.492188 142.304688 286.316406 145.054688 C 283.191406 151.175781 282.847656 158.175781 284.1875 164.820312 C 290.222656 162.167969 296.910156 162.984375 303.058594 164.792969 C 299.054688 158.316406 296.800781 150.941406 292.75 144.476562 C 295.652344 141.339844 294.988281 136.796875 291.703125 134.253906 C 291.589844 120.195312 291.617188 106.132812 291.660156 92.089844 C 296.382812 90.652344 301.316406 89.808594 305.863281 87.847656 C 308.238281 86.214844 306.882812 82.59375 304.230469 82.292969 Z M 285.621094 87.292969 C 270.316406 86.105469 255.007812 84.902344 239.699219 83.796875 C 235.941406 83.949219 233.734375 79.984375 230.054688 79.722656 C 225.761719 78.960938 219.902344 80.039062 218.203125 84.625 C 217.757812 89.402344 223.703125 91.433594 227.582031 91.335938 C 231.3125 91.847656 234.160156 88.53125 237.820312 88.796875 C 249.878906 89.679688 261.929688 90.636719 273.988281 91.546875 C 259.660156 95.414062 245.363281 99.417969 231.023438 103.257812 C 227.652344 104.375 224.167969 103.3125 220.894531 102.402344 C 200.1875 96.699219 179.449219 91.0625 158.714844 85.441406 C 180.363281 79.488281 202.039062 73.644531 223.703125 67.707031 C 226.285156 66.890625 229.019531 66.929688 231.605469 67.746094 C 253.210938 73.644531 274.832031 79.527344 296.441406 85.414062 C 292.917969 86.40625 289.339844 87.746094 285.621094 87.292969 Z M 285.621094 87.292969 " fill-opacity="1" fill-rule="nonzero"/></g></svg>