<svg xmlns="http://www.w3.org/2000/svg" xmlns:xlink="http://www.w3.org/1999/xlink" width="500" zoomAndPan="magnify" viewBox="0 0 375 374.999991" height="500" preserveAspectRatio="xMidYMid meet" version="1.0"><defs><clipPath id="73e0a93ac9"><path d="M 71.507812 75 L 303.257812 75 L 303.257812 337.5 L 71.507812 337.5 Z M 71.507812 75 " clip-rule="nonzero"/></clipPath></defs><rect x="-37.5" width="450" fill="#ffffff" y="-37.499999" height="449.999989" fill-opacity="1"/><rect x="-37.5" width="450" fill="#ffffff" y="-37.499999" height="449.999989" fill-opacity="1"/><rect x="-37.5" width="450" fill="#061a37" y="-37.499999" height="449.999989" fill-opacity="1"/><g clip-path="url(#73e0a93ac9)"><path fill="#63b0dd" d="M 179.964844 120.425781 C 194.363281 129.597656 204.398438 144.882812 206.144531 162.355469 C 211.816406 164.976562 218.363281 166.722656 225.34375 166.722656 C 250.652344 166.722656 271.160156 146.195312 271.160156 120.859375 C 271.160156 95.527344 250.652344 75 225.34375 75 C 200.472656 75.4375 179.964844 95.527344 179.964844 120.425781 Z M 149.859375 213.894531 C 175.164062 213.894531 195.671875 193.363281 195.671875 168.03125 C 195.671875 142.699219 175.164062 122.171875 149.859375 122.171875 C 124.550781 122.171875 104.042969 142.699219 104.042969 168.03125 C 104.042969 193.363281 124.550781 213.894531 149.859375 213.894531 Z M 169.058594 216.949219 L 130.222656 216.949219 C 97.933594 216.949219 71.753906 243.15625 71.753906 275.476562 L 71.753906 323.960938 L 74.808594 324.832031 C 105.351562 334.441406 132.40625 337.5 154.222656 337.5 C 196.980469 337.5 221.851562 325.269531 223.597656 324.398438 L 226.652344 322.648438 L 227.089844 322.648438 L 227.089844 275.476562 C 227.523438 243.15625 201.34375 216.949219 169.058594 216.949219 Z M 244.542969 169.78125 L 206.144531 169.78125 C 205.707031 185.066406 199.164062 199.042969 188.691406 209.089844 C 217.488281 217.824219 238.433594 244.03125 238.433594 275.476562 L 238.433594 289.890625 C 276.394531 288.582031 298.210938 277.664062 299.519531 277.226562 L 302.574219 275.476562 L 303.011719 275.476562 L 303.011719 228.308594 C 303.011719 195.984375 276.832031 169.78125 244.542969 169.78125 Z M 244.542969 169.78125 " fill-opacity="1" fill-rule="nonzero"/></g><path fill="#46a0d4" d="M 291.511719 57.742188 C 271.414062 52.097656 251.230469 46.738281 231.109375 41.140625 C 227.855469 40.148438 224.359375 39.851562 221.082031 40.902344 C 201.222656 46.308594 181.371094 51.777344 161.511719 57.183594 C 159.765625 57.753906 156.949219 58.242188 157.234375 60.71875 C 157.53125 62.921875 160.039062 63.164062 161.703125 63.78125 C 167.914062 65.484375 174.152344 67.128906 180.363281 68.867188 C 180.421875 79.683594 180.316406 90.5 180.398438 101.3125 C 180.113281 103.484375 181.648438 105.78125 183.976562 105.722656 C 197.945312 106.589844 211.285156 112.628906 221.832031 121.730469 C 223.460938 123.324219 226.121094 124.585938 228.058594 122.730469 C 237.777344 114.464844 249.417969 107.984375 262.210938 106.316406 C 264.503906 105.945312 266.902344 106.054688 269.113281 105.246094 C 271.273438 103.914062 270.824219 101.039062 270.90625 98.886719 C 270.714844 88.878906 270.964844 78.875 270.824219 68.882812 C 272.628906 68.382812 274.445312 67.882812 276.25 67.382812 C 276.238281 79.101562 276.308594 90.824219 276.203125 102.542969 C 273.019531 104.886719 272.816406 109.496094 276.105469 111.867188 C 273.421875 117.144531 273.125 123.183594 274.277344 128.914062 C 279.46875 126.625 285.214844 127.328125 290.503906 128.886719 C 287.058594 123.300781 285.121094 116.941406 281.640625 111.367188 C 284.132812 108.664062 283.5625 104.746094 280.738281 102.554688 C 280.640625 90.429688 280.664062 78.304688 280.703125 66.191406 C 284.765625 64.953125 289.003906 64.226562 292.914062 62.535156 C 294.957031 61.125 293.792969 58.003906 291.511719 57.742188 Z M 275.511719 62.054688 C 262.351562 61.03125 249.1875 59.996094 236.027344 59.042969 C 232.796875 59.171875 230.894531 55.753906 227.734375 55.527344 C 224.039062 54.871094 219.003906 55.800781 217.542969 59.753906 C 217.160156 63.875 222.269531 65.628906 225.605469 65.542969 C 228.8125 65.984375 231.261719 63.125 234.410156 63.351562 C 244.777344 64.113281 255.136719 64.9375 265.507812 65.722656 C 253.1875 69.058594 240.894531 72.511719 228.566406 75.824219 C 225.667969 76.789062 222.671875 75.871094 219.859375 75.085938 C 202.050781 70.167969 184.222656 65.308594 166.390625 60.457031 C 185.007812 55.324219 203.644531 50.285156 222.269531 45.164062 C 224.492188 44.460938 226.84375 44.496094 229.066406 45.199219 C 247.644531 50.285156 266.234375 55.359375 284.8125 60.433594 C 281.785156 61.292969 278.707031 62.445312 275.511719 62.054688 Z M 275.511719 62.054688 " fill-opacity="1" fill-rule="nonzero"/></svg>