<svg xmlns="http://www.w3.org/2000/svg" xmlns:xlink="http://www.w3.org/1999/xlink" width="500" zoomAndPan="magnify" viewBox="0 0 375 374.999991" height="500" preserveAspectRatio="xMidYMid meet" version="1.0"><defs><clipPath id="618f3eb6db"><path d="M 59.046875 82.125 L 179.691406 82.125 L 179.691406 160.125 L 59.046875 160.125 Z M 59.046875 82.125 " clip-rule="nonzero"/></clipPath></defs><rect x="-37.5" width="450" fill="#ffffff" y="-37.499999" height="449.999989" fill-opacity="1"/><rect x="-37.5" width="450" fill="#ffffff" y="-37.499999" height="449.999989" fill-opacity="1"/><rect x="-37.5" width="450" fill="#061a37" y="-37.499999" height="449.999989" fill-opacity="1"/><path fill="#63b0dd" d="M 208.023438 216.707031 C 206.066406 214.828125 204.105469 212.933594 202.292969 210.796875 C 189.71875 195.679688 180.777344 172.503906 180.777344 153.484375 C 180.777344 128.914062 200.054688 102.96875 228.835938 102.96875 C 251.324219 102.96875 275.496094 124.003906 275.496094 155.117188 C 275.496094 175.140625 264.457031 199.710938 249.367188 214.183594 C 248.390625 215.332031 247.273438 216.078125 246.296875 216.964844 L 244.480469 218.597656 L 245.039062 220.859375 C 248.953125 235.222656 266.550781 240.128906 301.898438 249.457031 L 309.164062 251.597656 C 327.460938 256.757812 336.125 265.070312 339.890625 274.144531 L 340.03125 274.144531 C 343.527344 283.082031 343.109375 292.910156 342.6875 301.976562 C 342.550781 303.242188 342.550781 304.753906 342.410156 306.007812 L 114.988281 306.007812 C 114.851562 303.867188 114.707031 301.847656 114.429688 299.210938 C 113.730469 290.898438 113.03125 282.203125 115.546875 274.144531 C 118.617188 264.945312 126.582031 256.757812 145.027344 251.597656 L 152.144531 249.457031 C 184.554688 240.765625 201.878906 235.847656 207.605469 224.386719 L 209.417969 221.621094 L 209.28125 217.964844 C 208.859375 217.59375 208.582031 217.464844 208.023438 216.707031 Z M 208.023438 216.707031 " fill-opacity="1" fill-rule="nonzero"/><path fill="#63b0dd" d="M 105.347656 194.914062 C 93.890625 185.347656 84.667969 166.828125 84.667969 151.210938 C 84.667969 129.292969 101.710938 113.667969 118.613281 113.667969 C 135.652344 113.667969 153.535156 128.15625 153.535156 150.070312 C 153.535156 165.574219 145.160156 184.839844 134.261719 194.664062 C 133.984375 195.039062 133.566406 195.421875 133.289062 195.675781 L 134.539062 195.675781 C 137.199219 203.480469 148.371094 206.503906 170.445312 212.558594 C 177.429688 213.558594 176.027344 217.089844 176.730469 219.609375 C 173.945312 225.65625 162.902344 228.675781 142.367188 234.34375 L 137.476562 235.726562 C 121.832031 239.882812 115.40625 247.441406 112.75 255.632812 L 39.550781 255.632812 C 39.550781 242.148438 34.382812 222.25 63.714844 214.0625 C 90.121094 206.882812 102.972656 203.855469 105.347656 194.914062 Z M 105.347656 194.914062 " fill-opacity="1" fill-rule="nonzero"/><g clip-path="url(#618f3eb6db)"><path fill="#46a0d4" d="M 61.957031 97.847656 C 79.542969 92.914062 97.199219 88.226562 114.808594 83.335938 C 117.65625 82.46875 120.710938 82.210938 123.582031 83.128906 C 140.957031 87.855469 158.328125 92.632812 175.707031 97.355469 C 177.234375 97.855469 179.695312 98.28125 179.449219 100.449219 C 179.1875 102.375 176.996094 102.582031 175.539062 103.125 C 170.101562 104.613281 164.644531 106.050781 159.210938 107.570312 C 159.15625 117.023438 159.25 126.476562 159.179688 135.929688 C 159.429688 137.824219 158.085938 139.832031 156.050781 139.78125 C 143.824219 140.539062 132.152344 145.816406 122.921875 153.769531 C 121.5 155.167969 119.171875 156.269531 117.476562 154.644531 C 108.972656 147.421875 98.789062 141.757812 87.59375 140.300781 C 85.585938 139.976562 83.488281 140.070312 81.554688 139.363281 C 79.664062 138.199219 80.058594 135.6875 79.984375 133.804688 C 80.152344 125.0625 79.933594 116.316406 80.058594 107.582031 C 78.476562 107.148438 76.886719 106.707031 75.308594 106.273438 C 75.320312 116.515625 75.257812 126.757812 75.351562 137 C 78.136719 139.050781 78.3125 143.078125 75.433594 145.152344 C 77.785156 149.761719 78.042969 155.039062 77.035156 160.046875 C 72.492188 158.050781 67.464844 158.664062 62.839844 160.027344 C 65.851562 155.144531 67.546875 149.585938 70.59375 144.714844 C 68.410156 142.351562 68.910156 138.925781 71.382812 137.011719 C 71.464844 126.414062 71.445312 115.816406 71.414062 105.230469 C 67.859375 104.148438 64.148438 103.511719 60.730469 102.035156 C 58.941406 100.804688 59.960938 98.074219 61.957031 97.847656 Z M 75.957031 101.617188 C 87.472656 100.71875 98.988281 99.816406 110.503906 98.980469 C 113.332031 99.097656 114.996094 96.109375 117.761719 95.910156 C 120.992188 95.339844 125.402344 96.148438 126.679688 99.605469 C 127.011719 103.207031 122.542969 104.738281 119.621094 104.664062 C 116.816406 105.046875 114.671875 102.550781 111.917969 102.75 C 102.847656 103.414062 93.78125 104.136719 84.707031 104.820312 C 95.488281 107.738281 106.242188 110.753906 117.035156 113.648438 C 119.570312 114.492188 122.1875 113.691406 124.652344 113.003906 C 140.234375 108.703125 155.832031 104.457031 171.433594 100.21875 C 155.148438 95.734375 138.839844 91.332031 122.542969 86.851562 C 120.597656 86.238281 118.539062 86.269531 116.597656 86.886719 C 100.339844 91.332031 84.074219 95.765625 67.816406 100.199219 C 70.46875 100.949219 73.160156 101.957031 75.957031 101.617188 Z M 75.957031 101.617188 " fill-opacity="1" fill-rule="nonzero"/></g></svg>