<svg xmlns="http://www.w3.org/2000/svg" xmlns:xlink="http://www.w3.org/1999/xlink" width="500" zoomAndPan="magnify" viewBox="0 0 375 374.999991" height="500" preserveAspectRatio="xMidYMid meet" version="1.0"><defs><clipPath id="52d5d03bb1"><path d="M 24.070312 85 L 348 85 L 348 294 L 24.070312 294 Z M 24.070312 85 " clip-rule="nonzero"/></clipPath></defs><rect x="-37.5" width="450" fill="#ffffff" y="-37.499999" height="449.999989" fill-opacity="1"/><rect x="-37.5" width="450" fill="#ffffff" y="-37.499999" height="449.999989" fill-opacity="1"/><rect x="-37.5" width="450" fill="#061a37" y="-37.499999" height="449.999989" fill-opacity="1"/><g clip-path="url(#52d5d03bb1)"><path fill="#63b0dd" d="M 341.445312 126.40625 C 294.039062 113.125 246.4375 100.511719 198.976562 87.339844 C 191.296875 85.011719 183.058594 84.308594 175.324219 86.777344 C 128.484375 99.503906 81.664062 112.367188 34.816406 125.089844 C 30.695312 126.433594 24.058594 127.582031 24.730469 133.414062 C 25.429688 138.597656 31.339844 139.160156 35.265625 140.617188 C 49.921875 144.625 64.628906 148.496094 79.285156 152.585938 C 79.425781 178.035156 79.171875 203.480469 79.367188 228.929688 C 78.695312 234.03125 82.3125 239.441406 87.804688 239.300781 C 120.753906 241.34375 152.214844 255.554688 177.097656 276.964844 C 180.933594 280.722656 187.210938 283.691406 191.78125 279.320312 C 214.703125 259.871094 242.160156 244.628906 272.335938 240.699219 C 277.742188 239.832031 283.402344 240.085938 288.613281 238.179688 C 293.714844 235.042969 292.648438 228.285156 292.84375 223.214844 C 292.398438 199.671875 292.984375 176.132812 292.648438 152.621094 C 296.90625 151.445312 301.195312 150.265625 305.449219 149.089844 C 305.421875 176.664062 305.589844 204.242188 305.335938 231.816406 C 297.828125 237.339844 297.355469 248.183594 305.113281 253.761719 C 298.777344 266.175781 298.078125 280.382812 300.796875 293.867188 C 313.039062 288.488281 326.597656 290.136719 339.066406 293.8125 C 330.941406 280.667969 326.375 265.703125 318.164062 252.585938 C 324.046875 246.222656 322.699219 237.003906 316.035156 231.84375 C 315.808594 203.316406 315.863281 174.785156 315.949219 146.285156 C 325.53125 143.371094 335.53125 141.660156 344.753906 137.683594 C 349.570312 134.367188 346.824219 127.023438 341.445312 126.40625 Z M 303.707031 136.554688 C 272.664062 134.140625 241.621094 131.707031 210.574219 129.460938 C 202.953125 129.773438 198.472656 121.726562 191.015625 121.195312 C 182.304688 119.652344 170.421875 121.839844 166.976562 131.140625 C 166.078125 140.839844 178.128906 144.957031 186 144.761719 C 193.5625 145.796875 199.335938 139.070312 206.761719 139.605469 C 231.21875 141.398438 255.65625 143.335938 280.113281 145.183594 C 251.054688 153.035156 222.0625 161.160156 192.976562 168.949219 C 186.140625 171.21875 179.078125 169.0625 172.4375 167.214844 C 130.4375 155.640625 88.386719 144.207031 46.328125 132.796875 C 90.234375 120.71875 134.195312 108.863281 178.128906 96.808594 C 183.367188 95.15625 188.914062 95.238281 194.15625 96.894531 C 237.976562 108.863281 281.824219 120.800781 325.644531 132.742188 C 318.503906 134.757812 311.242188 137.476562 303.707031 136.554688 Z M 303.707031 136.554688 " fill-opacity="1" fill-rule="nonzero"/></g></svg>