<svg xmlns="http://www.w3.org/2000/svg" xmlns:xlink="http://www.w3.org/1999/xlink" width="500" zoomAndPan="magnify" viewBox="0 0 375 374.999991" height="500" preserveAspectRatio="xMidYMid meet" version="1.0"><defs><g/><clipPath id="9dcdcf0bfa"><path d="M 22 164 L 99 164 L 99 244 L 22 244 Z M 22 164 " clip-rule="nonzero"/></clipPath><clipPath id="32039adaf3"><path d="M 93.929688 164.445312 L 98.992188 169.328125 L 27.003906 243.984375 L 21.941406 239.105469 Z M 93.929688 164.445312 " clip-rule="nonzero"/></clipPath><clipPath id="5bd31ccdbc"><path d="M 93.929688 164.445312 L 98.785156 169.125 L 27.042969 243.53125 L 22.1875 238.847656 Z M 93.929688 164.445312 " clip-rule="nonzero"/></clipPath><clipPath id="97755bfbe5"><path d="M 28.894531 153.324219 L 106.144531 153.324219 L 106.144531 230.574219 L 28.894531 230.574219 Z M 28.894531 153.324219 " clip-rule="nonzero"/></clipPath></defs><rect x="-37.5" width="450" fill="#ffffff" y="-37.499999" height="449.999989" fill-opacity="1"/><rect x="-37.5" width="450" fill="#ffffff" y="-37.499999" height="449.999989" fill-opacity="1"/><rect x="-37.5" width="450" fill="#061a37" y="-37.499999" height="449.999989" fill-opacity="1"/><g fill="#63b0dd" fill-opacity="1"><g transform="translate(29.702238, 222.773525)"><g/></g></g><g fill="#63b0dd" fill-opacity="1"><g transform="translate(73.214875, 222.773525)"><g/></g></g><g fill="#63b0dd" fill-opacity="1"><g transform="translate(116.72567, 222.773525)"><g><path d="M 41.921875 -58.796875 C 45.273438 -58.796875 48.335938 -58 51.109375 -56.40625 C 53.878906 -54.8125 56.09375 -52.65625 57.75 -49.9375 C 59.40625 -47.21875 60.234375 -44.148438 60.234375 -40.734375 C 60.234375 -37.265625 59.363281 -34.113281 57.625 -31.28125 C 55.882812 -28.457031 53.546875 -26.207031 50.609375 -24.53125 C 47.671875 -22.851562 44.460938 -22.015625 40.984375 -22.015625 L 21.25 -22.015625 L 21.25 0 L 12.1875 0 L 12.1875 -58.796875 Z M 40.484375 -30.75 C 42.335938 -30.75 44.046875 -31.207031 45.609375 -32.125 C 47.179688 -33.050781 48.425781 -34.269531 49.34375 -35.78125 C 50.269531 -37.289062 50.734375 -38.941406 50.734375 -40.734375 C 50.734375 -42.472656 50.269531 -44.039062 49.34375 -45.4375 C 48.425781 -46.84375 47.179688 -47.960938 45.609375 -48.796875 C 44.046875 -49.640625 42.335938 -50.0625 40.484375 -50.0625 L 21.25 -50.0625 L 21.25 -30.75 Z M 40.484375 -30.75 "/></g></g></g><g fill="#63b0dd" fill-opacity="1"><g transform="translate(195.350301, 222.773525)"><g><path d="M 57.453125 0 L 51.15625 -14.109375 L 21 -14.109375 L 14.703125 0 L 5.296875 0 L 31.328125 -58.796875 L 41.328125 -58.796875 L 67.28125 0 Z M 31.5 -37.96875 L 24.859375 -22.84375 L 47.296875 -22.84375 L 40.484375 -38.296875 C 38.921875 -41.773438 37.4375 -45.472656 36.03125 -49.390625 C 35.300781 -47.316406 34.554688 -45.328125 33.796875 -43.421875 C 33.046875 -41.523438 32.28125 -39.707031 31.5 -37.96875 Z M 31.5 -37.96875 "/></g></g></g><g fill="#63b0dd" fill-opacity="1"><g transform="translate(278.258935, 222.773525)"><g><path d="M 13.78125 -17.96875 C 16.6875 -14.5625 19.722656 -11.929688 22.890625 -10.078125 C 26.054688 -8.234375 29.9375 -7.3125 34.53125 -7.3125 C 36.988281 -7.3125 39.351562 -7.628906 41.625 -8.265625 C 43.894531 -8.910156 45.769531 -9.890625 47.25 -11.203125 C 48.726562 -12.523438 49.46875 -14.164062 49.46875 -16.125 C 49.46875 -18.925781 47.984375 -20.941406 45.015625 -22.171875 C 42.054688 -23.410156 37.890625 -24.421875 32.515625 -25.203125 C 25.898438 -26.210938 20.632812 -28.070312 16.71875 -30.78125 C 12.800781 -33.5 10.84375 -37.460938 10.84375 -42.671875 C 10.84375 -46.203125 11.890625 -49.226562 13.984375 -51.75 C 16.085938 -54.269531 18.929688 -56.210938 22.515625 -57.578125 C 26.097656 -58.953125 30.046875 -59.640625 34.359375 -59.640625 C 39.734375 -59.640625 44.378906 -58.742188 48.296875 -56.953125 C 52.222656 -55.160156 55.304688 -52.613281 57.546875 -49.3125 L 51.328125 -42.84375 C 49.472656 -45.414062 47.085938 -47.5 44.171875 -49.09375 C 41.265625 -50.6875 37.910156 -51.484375 34.109375 -51.484375 C 30.179688 -51.484375 26.898438 -50.769531 24.265625 -49.34375 C 21.640625 -47.914062 20.328125 -45.914062 20.328125 -43.34375 C 20.328125 -40.320312 21.738281 -38.179688 24.5625 -36.921875 C 27.394531 -35.660156 31.109375 -34.664062 35.703125 -33.9375 C 38.722656 -33.488281 41.617188 -32.898438 44.390625 -32.171875 C 47.160156 -31.441406 49.640625 -30.472656 51.828125 -29.265625 C 54.015625 -28.066406 55.75 -26.539062 57.03125 -24.6875 C 58.320312 -22.84375 58.96875 -20.550781 58.96875 -17.8125 C 58.96875 -14.0625 57.957031 -10.785156 55.9375 -7.984375 C 53.925781 -5.179688 51.054688 -3.007812 47.328125 -1.46875 C 43.609375 0.0703125 39.203125 0.84375 34.109375 0.84375 C 28.671875 0.84375 23.769531 -0.0507812 19.40625 -1.84375 C 15.039062 -3.632812 11.203125 -6.546875 7.890625 -10.578125 Z M 13.78125 -17.96875 "/></g></g></g><g clip-path="url(#9dcdcf0bfa)"><g clip-path="url(#32039adaf3)"><g clip-path="url(#5bd31ccdbc)"><path fill="#061a37" d="M 93.929688 164.445312 L 98.992188 169.328125 L 27.003906 243.984375 L 21.941406 239.105469 Z M 93.929688 164.445312 " fill-opacity="1" fill-rule="nonzero"/></g></g></g><g clip-path="url(#97755bfbe5)"><path fill="#63b0dd" d="M 67.519531 153.324219 C 46.1875 153.324219 28.894531 170.617188 28.894531 191.949219 C 28.894531 213.28125 46.1875 230.574219 67.519531 230.574219 C 88.851562 230.574219 106.144531 213.28125 106.144531 191.949219 C 106.144531 170.617188 88.851562 153.324219 67.519531 153.324219 Z M 82.5625 184.375 C 82.78125 184.621094 83.105469 184.738281 83.542969 184.710938 C 84.617188 184.648438 85.433594 184.3125 85.90625 183.742188 C 86.101562 183.503906 86.234375 183.234375 86.296875 182.9375 C 86.519531 183.464844 86.753906 183.765625 87.175781 183.765625 C 87.316406 183.765625 87.675781 183.765625 88.371094 183.003906 C 88.6875 183.792969 89.246094 184.664062 90.183594 184.714844 C 90.910156 184.753906 91.785156 184.746094 92.363281 184.730469 L 92.363281 186.382812 C 90.757812 186.535156 88.996094 186.582031 88.605469 186.382812 C 87.445312 185.808594 86.1875 186.570312 86.183594 186.574219 C 85.613281 186.855469 84.230469 187.359375 83.613281 187.117188 C 83.5 187.070312 83.433594 187.007812 83.390625 186.898438 C 83.273438 186.597656 83.175781 186.296875 83.082031 186.011719 C 82.757812 185.023438 82.359375 183.816406 81.25 183.816406 C 81.113281 183.816406 80.960938 183.835938 80.800781 183.878906 C 80.496094 183.953125 79.90625 184.015625 79.28125 184.078125 C 78.816406 184.125 78.378906 184.175781 77.96875 184.226562 C 78.167969 184.101562 78.378906 183.949219 78.59375 183.757812 C 79.996094 182.511719 81.464844 181.679688 82.144531 181.722656 C 82.28125 181.730469 82.335938 181.773438 82.371094 181.816406 C 82.574219 182.054688 82.519531 182.441406 82.414062 182.964844 C 82.320312 183.4375 82.214844 183.976562 82.5625 184.375 Z M 82.789062 173.433594 C 83.214844 173.464844 83.621094 173.398438 83.96875 173.15625 C 84.433594 172.832031 84.683594 172.277344 84.734375 171.460938 C 84.839844 169.804688 85.070312 168.855469 85.242188 168.375 C 85.375 168.859375 85.507812 169.609375 85.582031 170.335938 C 85.613281 170.648438 85.863281 170.902344 86.175781 170.878906 C 86.175781 170.878906 86.222656 170.882812 86.246094 170.910156 C 86.285156 170.957031 86.316406 171.097656 86.285156 171.347656 C 86.152344 172.4375 85.230469 174.449219 84.277344 174.449219 C 83.847656 174.449219 83.453125 174.066406 83.074219 173.699219 C 82.980469 173.609375 82.886719 173.519531 82.789062 173.433594 Z M 65.222656 155.816406 C 65.457031 155.804688 65.6875 155.789062 65.921875 155.777344 C 65.398438 156.089844 64.902344 156.40625 64.460938 156.722656 C 64.777344 156.375 65.027344 156.082031 65.222656 155.816406 Z M 103.597656 188.964844 C 103.628906 189.34375 103.664062 189.71875 103.683594 190.101562 C 103.613281 190.066406 103.539062 190.03125 103.457031 190.003906 C 103.132812 189.886719 102.707031 189.765625 102.25 189.636719 C 101.632812 189.460938 100.492188 189.132812 99.929688 188.84375 C 100.644531 188.738281 102.136719 188.78125 103.597656 188.964844 Z M 97.398438 195.402344 C 100.640625 194.9375 102.496094 194.273438 102.925781 193.417969 C 103.019531 193.226562 103.242188 192.960938 103.457031 192.703125 C 103.546875 192.597656 103.632812 192.488281 103.71875 192.382812 C 103.484375 212.148438 87.339844 228.160156 67.519531 228.160156 C 48.078125 228.160156 32.171875 212.757812 31.347656 193.511719 C 31.847656 193.628906 32.40625 193.582031 32.984375 193.535156 C 33.855469 193.464844 34.84375 193.382812 36.011719 193.726562 C 38.261719 194.394531 38.332031 194.714844 38.5 195.492188 C 38.605469 195.980469 38.75 196.652344 39.292969 197.523438 C 39.777344 198.292969 40.488281 198.78125 41.355469 198.925781 C 41.558594 198.960938 41.761719 198.976562 41.964844 198.976562 C 43.535156 198.976562 45.078125 198.046875 45.542969 197.675781 C 45.949219 197.351562 45.925781 197.003906 45.875 196.828125 C 45.71875 196.269531 45.105469 196.1875 44.175781 196.066406 C 43.84375 196.023438 43.460938 195.972656 43.148438 195.894531 C 43.421875 195.636719 43.742188 195.292969 43.742188 194.804688 C 43.742188 194.148438 43.261719 193.839844 42.878906 193.589844 C 42.5625 193.386719 42.207031 193.15625 41.910156 192.683594 C 41.695312 192.339844 41.734375 192.261719 41.894531 191.933594 C 42.058594 191.589844 42.3125 191.070312 42.132812 190.265625 C 42.035156 189.816406 41.753906 189.640625 41.59375 189.574219 C 41.085938 189.367188 40.589844 189.691406 40.019531 190.0625 C 39.609375 190.328125 38.992188 190.726562 38.695312 190.636719 C 38.53125 190.585938 38.398438 190.320312 38.335938 190.167969 C 38.148438 189.714844 38.257812 189.464844 38.355469 189.320312 C 38.929688 188.460938 41.1875 188.105469 42.269531 188.105469 C 42.496094 188.105469 42.984375 188.515625 43.34375 188.8125 C 44.070312 189.417969 44.976562 190.171875 45.957031 189.804688 C 46.726562 189.515625 47.289062 188.328125 48.296875 186.074219 C 49.0625 184.371094 49.925781 182.441406 50.808594 181.558594 C 51.925781 180.441406 53.078125 180.519531 54.195312 180.597656 C 54.738281 180.632812 55.25 180.671875 55.726562 180.5625 C 56.132812 180.472656 56.625 180.3125 56.855469 179.863281 C 57.132812 179.324219 56.894531 178.769531 56.535156 177.921875 C 56.472656 177.777344 56.40625 177.617188 56.335938 177.445312 C 56.597656 177.480469 56.894531 177.464844 57.21875 177.367188 C 57.265625 177.355469 57.292969 177.351562 57.296875 177.347656 C 57.382812 177.421875 57.515625 177.761719 57.59375 177.964844 C 57.882812 178.710938 58.355469 179.964844 59.980469 179.851562 C 60.605469 179.8125 61.058594 179.597656 61.324219 179.214844 C 61.8125 178.507812 61.515625 177.53125 61.144531 176.300781 C 60.90625 175.507812 60.636719 174.609375 60.542969 173.683594 C 60.429688 172.570312 60.089844 171.859375 59.496094 171.503906 C 58.710938 171.035156 57.828125 171.398438 57.300781 171.617188 C 57.296875 171.617188 57.296875 171.617188 57.292969 171.621094 C 57.203125 171.425781 57.09375 171.128906 57.003906 170.894531 C 56.691406 170.050781 56.335938 169.09375 55.671875 168.59375 C 55.425781 168.40625 55.136719 168.339844 54.855469 168.398438 C 54.207031 168.535156 53.796875 169.285156 53.320312 170.148438 C 53.074219 170.597656 52.558594 171.535156 52.3125 171.585938 C 51.132812 171.191406 50.433594 172.285156 50.074219 172.898438 C 49.894531 172.660156 49.761719 172.355469 49.679688 171.371094 C 49.621094 170.695312 52.03125 169.109375 53.324219 168.261719 C 54.75 167.324219 55.976562 166.515625 56.402344 165.808594 C 56.574219 165.519531 56.898438 164.984375 56.535156 164.554688 C 56.179688 164.136719 55.683594 164.332031 55.109375 164.554688 C 54.691406 164.71875 54.082031 164.957031 53.636719 164.917969 C 53.710938 164.679688 53.953125 164.289062 54.042969 164.144531 C 54.207031 163.878906 54.484375 163.433594 54.085938 163.074219 C 53.6875 162.714844 53.257812 163.050781 53.050781 163.214844 C 52.078125 163.976562 49.605469 164.894531 48.789062 164.894531 C 48.640625 164.894531 48.546875 164.890625 48.488281 164.882812 C 48.460938 164.734375 48.441406 164.457031 48.421875 164.183594 C 48.410156 164.003906 48.394531 163.796875 48.375 163.566406 C 48.332031 163.046875 48.097656 162.605469 47.691406 162.292969 C 47.539062 162.171875 47.371094 162.078125 47.1875 162 C 48.371094 161.195312 49.605469 160.464844 50.882812 159.800781 C 51.335938 160.246094 52.488281 160.910156 55.761719 161.601562 C 56.644531 161.785156 57.246094 162.066406 57.734375 162.289062 C 58.175781 162.492188 58.570312 162.648438 58.9375 162.648438 C 59.480469 162.648438 59.96875 162.308594 60.480469 161.28125 C 60.800781 160.644531 61.675781 159.667969 62.585938 158.707031 C 62.519531 158.898438 62.5 159.082031 62.539062 159.257812 C 62.710938 160.03125 63.054688 160.710938 63.332031 161.253906 C 63.441406 161.464844 63.578125 161.734375 63.644531 161.910156 C 63.570312 161.960938 63.476562 162.019531 63.402344 162.066406 C 62.902344 162.378906 62.214844 162.808594 62.09375 163.582031 C 62.011719 164.089844 62.203125 164.621094 62.65625 165.160156 C 63.441406 166.097656 63.230469 166.777344 62.957031 167.636719 C 62.816406 168.089844 62.667969 168.554688 62.667969 169.074219 C 62.667969 169.324219 62.632812 169.738281 62.589844 170.171875 C 62.402344 172.246094 62.332031 173.753906 63.175781 174.316406 C 63.324219 174.414062 63.527344 174.5 63.789062 174.5 C 64.007812 174.5 64.269531 174.4375 64.570312 174.277344 C 65.554688 173.75 65.84375 173.199219 66.183594 172.558594 C 66.601562 171.769531 67.171875 170.6875 69.460938 168.710938 C 73.53125 165.199219 76.621094 158.585938 76.761719 156.9375 C 82.476562 158.445312 87.644531 161.320312 91.886719 165.1875 C 91.382812 166.078125 90.71875 166.882812 90.179688 166.785156 C 89.980469 166.75 89.972656 166.746094 89.949219 166.21875 C 89.914062 165.449219 89.855469 164.15625 87.726562 163.738281 C 84.6875 163.140625 80.375 164.515625 79.367188 167.183594 C 78.671875 169.023438 78.605469 170.824219 79.191406 171.878906 C 79.492188 172.429688 79.960938 172.777344 80.539062 172.894531 C 80.78125 172.941406 81.046875 173.019531 81.324219 173.101562 C 81.152344 173.203125 81 173.363281 80.867188 173.574219 C 79.648438 175.527344 78.195312 177.046875 77.757812 177.054688 C 77 177.054688 76.394531 177.726562 76.136719 178.855469 C 76.035156 179.304688 75.972656 179.832031 76.105469 180.21875 C 76.097656 180.226562 76.09375 180.234375 76.085938 180.242188 C 75.621094 180.003906 74.886719 179.730469 74.292969 179.957031 C 73.921875 180.101562 73.660156 180.414062 73.554688 180.839844 C 73.289062 181.898438 73.53125 183.34375 74.09375 184.066406 C 74.457031 184.535156 74.871094 184.632812 75.152344 184.632812 C 75.3125 184.632812 75.476562 184.648438 75.640625 184.667969 C 75.699219 184.671875 75.761719 184.679688 75.828125 184.6875 C 75.332031 184.875 74.96875 185.121094 74.773438 185.464844 L 74.511719 185.925781 C 74.046875 186.761719 73.5625 187.625 73.039062 188.046875 L 72.925781 188.132812 C 72.203125 188.707031 71.113281 189.574219 70.652344 191.566406 C 70.160156 193.695312 71.234375 198.285156 73.996094 198.960938 C 75.792969 199.402344 78 199.210938 79.613281 199.070312 C 80.15625 199.019531 80.628906 198.980469 80.953125 198.976562 C 81.597656 198.976562 81.914062 199.308594 82.082031 201.167969 C 82.171875 202.136719 82.574219 202.742188 82.933594 203.277344 C 83.238281 203.734375 83.476562 204.09375 83.53125 204.648438 C 83.589844 205.238281 83.542969 205.644531 83.480469 206.160156 C 83.402344 206.816406 83.304688 207.636719 83.386719 209.109375 C 83.417969 209.707031 83.402344 210.359375 83.390625 211.050781 C 83.339844 213.324219 83.28125 215.902344 85.199219 216.722656 C 85.484375 216.84375 85.726562 216.972656 85.941406 217.082031 C 86.496094 217.367188 86.941406 217.546875 87.382812 217.546875 C 88.335938 217.546875 89.25 216.695312 91.132812 214.21875 C 94.488281 209.792969 95.175781 207.648438 95.730469 205.304688 C 96.296875 202.890625 98.035156 200.714844 99.410156 199.71875 C 100.773438 198.726562 101.746094 197.171875 101.492188 196.390625 C 101.390625 196.078125 101.113281 195.875 100.792969 195.875 C 100.726562 195.875 100.59375 195.886719 100.410156 195.910156 C 99.449219 196.023438 96.523438 196.371094 95.691406 194.550781 C 95.628906 194.414062 95.5625 194.277344 95.496094 194.140625 C 96.09375 194.96875 96.714844 195.496094 97.398438 195.402344 Z M 97.398438 195.402344 " fill-opacity="1" fill-rule="nonzero"/></g><path fill="#63b0dd" d="M 64.023438 201.835938 C 62.449219 201.375 60.835938 200.203125 59.414062 199.167969 C 58.726562 198.667969 58.078125 198.199219 57.496094 197.855469 C 55.863281 196.890625 53.238281 196.433594 52.625 196.335938 C 52.179688 196.054688 51.761719 195.746094 51.355469 195.445312 C 50.441406 194.769531 49.722656 194.238281 49.003906 194.238281 C 48.664062 194.238281 48.183594 194.363281 47.835938 194.953125 C 47.15625 196.09375 46.4375 197.222656 45.097656 198.503906 C 44.800781 198.789062 44.378906 199.0625 43.96875 199.328125 C 43.046875 199.929688 42.09375 200.550781 41.988281 201.578125 C 41.917969 202.261719 42.25 202.957031 43 203.710938 C 43.832031 204.539062 44.808594 205.066406 45.753906 205.574219 C 47.601562 206.566406 49.199219 207.425781 49.640625 210.324219 C 50.460938 215.730469 53.941406 220.917969 55.398438 222.894531 C 56.46875 224.34375 57.605469 225.140625 58.605469 225.140625 C 59.03125 225.140625 59.414062 224.992188 59.691406 224.722656 C 59.960938 224.457031 60.109375 224.09375 60.109375 223.695312 C 60.109375 223.40625 60.136719 223.101562 60.167969 222.777344 C 60.234375 222.011719 60.3125 221.140625 60.101562 219.96875 C 59.8125 218.386719 59.828125 217.632812 60.152344 217.085938 C 60.210938 216.992188 60.339844 216.953125 60.597656 216.898438 C 60.886719 216.835938 61.28125 216.75 61.5 216.371094 C 61.652344 216.113281 61.671875 215.796875 61.550781 215.414062 C 61.480469 215.183594 61.394531 214.964844 61.308594 214.753906 C 61.027344 214.066406 60.886719 213.722656 61.433594 213.085938 C 62.464844 211.882812 64.136719 209.164062 64.449219 207.140625 C 64.527344 206.636719 64.777344 206.085938 65.019531 205.546875 C 65.425781 204.652344 65.847656 203.726562 65.472656 202.90625 C 65.242188 202.40625 64.769531 202.054688 64.023438 201.835938 Z M 64.023438 201.835938 " fill-opacity="1" fill-rule="nonzero"/><path fill="#63b0dd" d="M 60.902344 162.742188 C 60.746094 162.460938 60.394531 162.351562 60.105469 162.496094 C 60.046875 162.527344 58.613281 163.257812 58.613281 164.773438 C 58.613281 165.078125 58.175781 165.625 57.855469 166.023438 C 57.292969 166.726562 56.445312 167.785156 57.382812 168.566406 C 57.613281 168.757812 57.925781 168.859375 58.292969 168.859375 C 59.183594 168.859375 60.449219 168.246094 61.140625 167.074219 C 61.648438 166.207031 62.019531 164.753906 60.902344 162.742188 Z M 60.902344 162.742188 " fill-opacity="1" fill-rule="nonzero"/><path fill="#63b0dd" d="M 72.378906 173.277344 C 74.746094 172.09375 74.460938 168.363281 74.449219 168.207031 C 74.433594 168.03125 74.34375 167.867188 74.199219 167.765625 C 74.054688 167.664062 73.875 167.628906 73.703125 167.667969 C 73.175781 167.800781 70.5 168.519531 69.832031 169.859375 C 69.441406 170.644531 69.347656 171.957031 69.867188 172.796875 C 70.175781 173.300781 70.667969 173.578125 71.246094 173.578125 C 71.597656 173.578125 71.976562 173.476562 72.378906 173.277344 Z M 72.378906 173.277344 " fill-opacity="1" fill-rule="nonzero"/><g fill="#fdfdfd" fill-opacity="1"><g transform="translate(61.640356, 259.003031)"><g><path d="M 1.84375 0 L 1.84375 -13.421875 L 3.40625 -13.421875 L 3.40625 0 Z M 1.84375 0 "/></g></g></g><g fill="#fdfdfd" fill-opacity="1"><g transform="translate(80.352369, 259.003031)"><g><path d="M 12.34375 0 L 10.546875 0 L 3.21875 -11.265625 L 3.140625 -11.265625 C 3.234375 -9.941406 3.28125 -8.734375 3.28125 -7.640625 L 3.28125 0 L 1.84375 0 L 1.84375 -13.421875 L 3.609375 -13.421875 L 10.9375 -2.203125 L 11 -2.203125 C 10.988281 -2.367188 10.960938 -2.898438 10.921875 -3.796875 C 10.878906 -4.691406 10.863281 -5.332031 10.875 -5.71875 L 10.875 -13.421875 L 12.34375 -13.421875 Z M 12.34375 0 "/></g></g></g><g fill="#fdfdfd" fill-opacity="1"><g transform="translate(107.992621, 259.003031)"><g><path d="M 9.515625 -13.421875 L 11.203125 -13.421875 L 6.359375 0 L 4.8125 0 L 0 -13.421875 L 1.65625 -13.421875 L 4.734375 -4.734375 C 5.085938 -3.742188 5.367188 -2.773438 5.578125 -1.828125 C 5.804688 -2.816406 6.097656 -3.804688 6.453125 -4.796875 Z M 9.515625 -13.421875 "/></g></g></g><g fill="#fdfdfd" fill-opacity="1"><g transform="translate(132.650675, 259.003031)"><g><path d="M 9.328125 0 L 1.84375 0 L 1.84375 -13.421875 L 9.328125 -13.421875 L 9.328125 -12.046875 L 3.40625 -12.046875 L 3.40625 -7.71875 L 8.96875 -7.71875 L 8.96875 -6.34375 L 3.40625 -6.34375 L 3.40625 -1.390625 L 9.328125 -1.390625 Z M 9.328125 0 "/></g></g></g><g fill="#fdfdfd" fill-opacity="1"><g transform="translate(156.574651, 259.003031)"><g><path d="M 9.421875 -3.578125 C 9.421875 -2.390625 8.992188 -1.460938 8.140625 -0.796875 C 7.285156 -0.140625 6.117188 0.1875 4.640625 0.1875 C 3.054688 0.1875 1.832031 -0.0195312 0.96875 -0.4375 L 0.96875 -1.9375 C 1.519531 -1.707031 2.117188 -1.523438 2.765625 -1.390625 C 3.421875 -1.253906 4.066406 -1.1875 4.703125 -1.1875 C 5.742188 -1.1875 6.523438 -1.382812 7.046875 -1.78125 C 7.578125 -2.175781 7.84375 -2.722656 7.84375 -3.421875 C 7.84375 -3.890625 7.75 -4.269531 7.5625 -4.5625 C 7.375 -4.863281 7.0625 -5.140625 6.625 -5.390625 C 6.1875 -5.640625 5.519531 -5.925781 4.625 -6.25 C 3.375 -6.695312 2.476562 -7.222656 1.9375 -7.828125 C 1.40625 -8.441406 1.140625 -9.242188 1.140625 -10.234375 C 1.140625 -11.265625 1.53125 -12.085938 2.3125 -12.703125 C 3.09375 -13.316406 4.125 -13.625 5.40625 -13.625 C 6.738281 -13.625 7.960938 -13.378906 9.078125 -12.890625 L 8.59375 -11.53125 C 7.488281 -11.988281 6.410156 -12.21875 5.359375 -12.21875 C 4.535156 -12.21875 3.890625 -12.039062 3.421875 -11.6875 C 2.960938 -11.332031 2.734375 -10.84375 2.734375 -10.21875 C 2.734375 -9.75 2.816406 -9.363281 2.984375 -9.0625 C 3.160156 -8.769531 3.453125 -8.5 3.859375 -8.25 C 4.265625 -8 4.882812 -7.726562 5.71875 -7.4375 C 7.125 -6.925781 8.09375 -6.382812 8.625 -5.8125 C 9.15625 -5.238281 9.421875 -4.492188 9.421875 -3.578125 Z M 9.421875 -3.578125 "/></g></g></g><g fill="#fdfdfd" fill-opacity="1"><g transform="translate(180.360988, 259.003031)"><g><path d="M 5.984375 0 L 4.421875 0 L 4.421875 -12.046875 L 0.171875 -12.046875 L 0.171875 -13.421875 L 10.234375 -13.421875 L 10.234375 -12.046875 L 5.984375 -12.046875 Z M 5.984375 0 "/></g></g></g><g fill="#fdfdfd" fill-opacity="1"><g transform="translate(204.229908, 259.003031)"><g><path d="M 7.796875 0 L 3.234375 -11.90625 L 3.15625 -11.90625 C 3.238281 -10.957031 3.28125 -9.835938 3.28125 -8.546875 L 3.28125 0 L 1.84375 0 L 1.84375 -13.421875 L 4.203125 -13.421875 L 8.453125 -2.359375 L 8.53125 -2.359375 L 12.8125 -13.421875 L 15.140625 -13.421875 L 15.140625 0 L 13.578125 0 L 13.578125 -8.65625 C 13.578125 -9.644531 13.625 -10.722656 13.71875 -11.890625 L 13.640625 -11.890625 L 9.046875 0 Z M 7.796875 0 "/></g></g></g><g fill="#fdfdfd" fill-opacity="1"><g transform="translate(234.668835, 259.003031)"><g><path d="M 9.328125 0 L 1.84375 0 L 1.84375 -13.421875 L 9.328125 -13.421875 L 9.328125 -12.046875 L 3.40625 -12.046875 L 3.40625 -7.71875 L 8.96875 -7.71875 L 8.96875 -6.34375 L 3.40625 -6.34375 L 3.40625 -1.390625 L 9.328125 -1.390625 Z M 9.328125 0 "/></g></g></g><g fill="#fdfdfd" fill-opacity="1"><g transform="translate(258.592811, 259.003031)"><g><path d="M 12.34375 0 L 10.546875 0 L 3.21875 -11.265625 L 3.140625 -11.265625 C 3.234375 -9.941406 3.28125 -8.734375 3.28125 -7.640625 L 3.28125 0 L 1.84375 0 L 1.84375 -13.421875 L 3.609375 -13.421875 L 10.9375 -2.203125 L 11 -2.203125 C 10.988281 -2.367188 10.960938 -2.898438 10.921875 -3.796875 C 10.878906 -4.691406 10.863281 -5.332031 10.875 -5.71875 L 10.875 -13.421875 L 12.34375 -13.421875 Z M 12.34375 0 "/></g></g></g><g fill="#fdfdfd" fill-opacity="1"><g transform="translate(286.233063, 259.003031)"><g><path d="M 5.984375 0 L 4.421875 0 L 4.421875 -12.046875 L 0.171875 -12.046875 L 0.171875 -13.421875 L 10.234375 -13.421875 L 10.234375 -12.046875 L 5.984375 -12.046875 Z M 5.984375 0 "/></g></g></g><g fill="#fdfdfd" fill-opacity="1"><g transform="translate(310.101983, 259.003031)"><g><path d="M 9.421875 -3.578125 C 9.421875 -2.390625 8.992188 -1.460938 8.140625 -0.796875 C 7.285156 -0.140625 6.117188 0.1875 4.640625 0.1875 C 3.054688 0.1875 1.832031 -0.0195312 0.96875 -0.4375 L 0.96875 -1.9375 C 1.519531 -1.707031 2.117188 -1.523438 2.765625 -1.390625 C 3.421875 -1.253906 4.066406 -1.1875 4.703125 -1.1875 C 5.742188 -1.1875 6.523438 -1.382812 7.046875 -1.78125 C 7.578125 -2.175781 7.84375 -2.722656 7.84375 -3.421875 C 7.84375 -3.890625 7.75 -4.269531 7.5625 -4.5625 C 7.375 -4.863281 7.0625 -5.140625 6.625 -5.390625 C 6.1875 -5.640625 5.519531 -5.925781 4.625 -6.25 C 3.375 -6.695312 2.476562 -7.222656 1.9375 -7.828125 C 1.40625 -8.441406 1.140625 -9.242188 1.140625 -10.234375 C 1.140625 -11.265625 1.53125 -12.085938 2.3125 -12.703125 C 3.09375 -13.316406 4.125 -13.625 5.40625 -13.625 C 6.738281 -13.625 7.960938 -13.378906 9.078125 -12.890625 L 8.59375 -11.53125 C 7.488281 -11.988281 6.410156 -12.21875 5.359375 -12.21875 C 4.535156 -12.21875 3.890625 -12.039062 3.421875 -11.6875 C 2.960938 -11.332031 2.734375 -10.84375 2.734375 -10.21875 C 2.734375 -9.75 2.816406 -9.363281 2.984375 -9.0625 C 3.160156 -8.769531 3.453125 -8.5 3.859375 -8.25 C 4.265625 -8 4.882812 -7.726562 5.71875 -7.4375 C 7.125 -6.925781 8.09375 -6.382812 8.625 -5.8125 C 9.15625 -5.238281 9.421875 -4.492188 9.421875 -3.578125 Z M 9.421875 -3.578125 "/></g></g></g><g fill="#ffffff" fill-opacity="1"><g transform="translate(61.58573, 258.497004)"><g><path d="M 1.84375 0 L 1.84375 -13.421875 L 3.40625 -13.421875 L 3.40625 0 Z M 1.84375 0 "/></g></g></g><g fill="#ffffff" fill-opacity="1"><g transform="translate(80.302256, 258.497004)"><g><path d="M 12.34375 0 L 10.546875 0 L 3.21875 -11.265625 L 3.140625 -11.265625 C 3.234375 -9.941406 3.28125 -8.734375 3.28125 -7.640625 L 3.28125 0 L 1.84375 0 L 1.84375 -13.421875 L 3.609375 -13.421875 L 10.9375 -2.203125 L 11 -2.203125 C 10.988281 -2.367188 10.960938 -2.898438 10.921875 -3.796875 C 10.878906 -4.691406 10.863281 -5.332031 10.875 -5.71875 L 10.875 -13.421875 L 12.34375 -13.421875 Z M 12.34375 0 "/></g></g></g><g fill="#ffffff" fill-opacity="1"><g transform="translate(107.954693, 258.497004)"><g><path d="M 9.515625 -13.421875 L 11.203125 -13.421875 L 6.359375 0 L 4.8125 0 L 0 -13.421875 L 1.65625 -13.421875 L 4.734375 -4.734375 C 5.085938 -3.742188 5.367188 -2.773438 5.578125 -1.828125 C 5.804688 -2.816406 6.097656 -3.804688 6.453125 -4.796875 Z M 9.515625 -13.421875 "/></g></g></g><g fill="#ffffff" fill-opacity="1"><g transform="translate(132.622375, 258.497004)"><g><path d="M 9.328125 0 L 1.84375 0 L 1.84375 -13.421875 L 9.328125 -13.421875 L 9.328125 -12.046875 L 3.40625 -12.046875 L 3.40625 -7.71875 L 8.96875 -7.71875 L 8.96875 -6.34375 L 3.40625 -6.34375 L 3.40625 -1.390625 L 9.328125 -1.390625 Z M 9.328125 0 "/></g></g></g><g fill="#ffffff" fill-opacity="1"><g transform="translate(156.555345, 258.497004)"><g><path d="M 9.421875 -3.578125 C 9.421875 -2.390625 8.992188 -1.460938 8.140625 -0.796875 C 7.285156 -0.140625 6.117188 0.1875 4.640625 0.1875 C 3.054688 0.1875 1.832031 -0.0195312 0.96875 -0.4375 L 0.96875 -1.9375 C 1.519531 -1.707031 2.117188 -1.523438 2.765625 -1.390625 C 3.421875 -1.253906 4.066406 -1.1875 4.703125 -1.1875 C 5.742188 -1.1875 6.523438 -1.382812 7.046875 -1.78125 C 7.578125 -2.175781 7.84375 -2.722656 7.84375 -3.421875 C 7.84375 -3.890625 7.75 -4.269531 7.5625 -4.5625 C 7.375 -4.863281 7.0625 -5.140625 6.625 -5.390625 C 6.1875 -5.640625 5.519531 -5.925781 4.625 -6.25 C 3.375 -6.695312 2.476562 -7.222656 1.9375 -7.828125 C 1.40625 -8.441406 1.140625 -9.242188 1.140625 -10.234375 C 1.140625 -11.265625 1.53125 -12.085938 2.3125 -12.703125 C 3.09375 -13.316406 4.125 -13.625 5.40625 -13.625 C 6.738281 -13.625 7.960938 -13.378906 9.078125 -12.890625 L 8.59375 -11.53125 C 7.488281 -11.988281 6.410156 -12.21875 5.359375 -12.21875 C 4.535156 -12.21875 3.890625 -12.039062 3.421875 -11.6875 C 2.960938 -11.332031 2.734375 -10.84375 2.734375 -10.21875 C 2.734375 -9.75 2.816406 -9.363281 2.984375 -9.0625 C 3.160156 -8.769531 3.453125 -8.5 3.859375 -8.25 C 4.265625 -8 4.882812 -7.726562 5.71875 -7.4375 C 7.125 -6.925781 8.09375 -6.382812 8.625 -5.8125 C 9.15625 -5.238281 9.421875 -4.492188 9.421875 -3.578125 Z M 9.421875 -3.578125 "/></g></g></g><g fill="#ffffff" fill-opacity="1"><g transform="translate(180.350551, 258.497004)"><g><path d="M 5.984375 0 L 4.421875 0 L 4.421875 -12.046875 L 0.171875 -12.046875 L 0.171875 -13.421875 L 10.234375 -13.421875 L 10.234375 -12.046875 L 5.984375 -12.046875 Z M 5.984375 0 "/></g></g></g><g fill="#ffffff" fill-opacity="1"><g transform="translate(204.228418, 258.497004)"><g><path d="M 7.796875 0 L 3.234375 -11.90625 L 3.15625 -11.90625 C 3.238281 -10.957031 3.28125 -9.835938 3.28125 -8.546875 L 3.28125 0 L 1.84375 0 L 1.84375 -13.421875 L 4.203125 -13.421875 L 8.453125 -2.359375 L 8.53125 -2.359375 L 12.8125 -13.421875 L 15.140625 -13.421875 L 15.140625 0 L 13.578125 0 L 13.578125 -8.65625 C 13.578125 -9.644531 13.625 -10.722656 13.71875 -11.890625 L 13.640625 -11.890625 L 9.046875 0 Z M 7.796875 0 "/></g></g></g><g fill="#ffffff" fill-opacity="1"><g transform="translate(234.681946, 258.497004)"><g><path d="M 9.328125 0 L 1.84375 0 L 1.84375 -13.421875 L 9.328125 -13.421875 L 9.328125 -12.046875 L 3.40625 -12.046875 L 3.40625 -7.71875 L 8.96875 -7.71875 L 8.96875 -6.34375 L 3.40625 -6.34375 L 3.40625 -1.390625 L 9.328125 -1.390625 Z M 9.328125 0 "/></g></g></g><g fill="#ffffff" fill-opacity="1"><g transform="translate(258.614916, 258.497004)"><g><path d="M 12.34375 0 L 10.546875 0 L 3.21875 -11.265625 L 3.140625 -11.265625 C 3.234375 -9.941406 3.28125 -8.734375 3.28125 -7.640625 L 3.28125 0 L 1.84375 0 L 1.84375 -13.421875 L 3.609375 -13.421875 L 10.9375 -2.203125 L 11 -2.203125 C 10.988281 -2.367188 10.960938 -2.898438 10.921875 -3.796875 C 10.878906 -4.691406 10.863281 -5.332031 10.875 -5.71875 L 10.875 -13.421875 L 12.34375 -13.421875 Z M 12.34375 0 "/></g></g></g><g fill="#ffffff" fill-opacity="1"><g transform="translate(286.267342, 258.497004)"><g><path d="M 5.984375 0 L 4.421875 0 L 4.421875 -12.046875 L 0.171875 -12.046875 L 0.171875 -13.421875 L 10.234375 -13.421875 L 10.234375 -12.046875 L 5.984375 -12.046875 Z M 5.984375 0 "/></g></g></g><g fill="#ffffff" fill-opacity="1"><g transform="translate(310.145209, 258.497004)"><g><path d="M 9.421875 -3.578125 C 9.421875 -2.390625 8.992188 -1.460938 8.140625 -0.796875 C 7.285156 -0.140625 6.117188 0.1875 4.640625 0.1875 C 3.054688 0.1875 1.832031 -0.0195312 0.96875 -0.4375 L 0.96875 -1.9375 C 1.519531 -1.707031 2.117188 -1.523438 2.765625 -1.390625 C 3.421875 -1.253906 4.066406 -1.1875 4.703125 -1.1875 C 5.742188 -1.1875 6.523438 -1.382812 7.046875 -1.78125 C 7.578125 -2.175781 7.84375 -2.722656 7.84375 -3.421875 C 7.84375 -3.890625 7.75 -4.269531 7.5625 -4.5625 C 7.375 -4.863281 7.0625 -5.140625 6.625 -5.390625 C 6.1875 -5.640625 5.519531 -5.925781 4.625 -6.25 C 3.375 -6.695312 2.476562 -7.222656 1.9375 -7.828125 C 1.40625 -8.441406 1.140625 -9.242188 1.140625 -10.234375 C 1.140625 -11.265625 1.53125 -12.085938 2.3125 -12.703125 C 3.09375 -13.316406 4.125 -13.625 5.40625 -13.625 C 6.738281 -13.625 7.960938 -13.378906 9.078125 -12.890625 L 8.59375 -11.53125 C 7.488281 -11.988281 6.410156 -12.21875 5.359375 -12.21875 C 4.535156 -12.21875 3.890625 -12.039062 3.421875 -11.6875 C 2.960938 -11.332031 2.734375 -10.84375 2.734375 -10.21875 C 2.734375 -9.75 2.816406 -9.363281 2.984375 -9.0625 C 3.160156 -8.769531 3.453125 -8.5 3.859375 -8.25 C 4.265625 -8 4.882812 -7.726562 5.71875 -7.4375 C 7.125 -6.925781 8.09375 -6.382812 8.625 -5.8125 C 9.15625 -5.238281 9.421875 -4.492188 9.421875 -3.578125 Z M 9.421875 -3.578125 "/></g></g></g></svg>