<svg xmlns="http://www.w3.org/2000/svg" xmlns:xlink="http://www.w3.org/1999/xlink" width="500" zoomAndPan="magnify" viewBox="0 0 375 374.999991" height="500" preserveAspectRatio="xMidYMid meet" version="1.0"><defs><g/><clipPath id="b681c6e0c3"><path d="M 22.191406 150.679688 L 103.191406 150.679688 L 103.191406 231.679688 L 22.191406 231.679688 Z M 22.191406 150.679688 " clip-rule="nonzero"/></clipPath><clipPath id="6d593e98df"><path d="M 47 197 L 84 197 L 84 225 L 47 225 Z M 47 197 " clip-rule="nonzero"/></clipPath><clipPath id="66a3fc29f4"><path d="M 77.5625 192.027344 L 87.839844 211.292969 L 52.726562 230.027344 L 42.449219 210.757812 Z M 77.5625 192.027344 " clip-rule="nonzero"/></clipPath><clipPath id="6c49c537ec"><path d="M 82.699219 201.65625 C 79.859375 196.335938 69.746094 196.195312 60.109375 201.335938 C 50.472656 206.476562 44.960938 214.957031 47.796875 220.273438 C 50.632812 225.59375 60.746094 225.738281 70.382812 220.597656 C 80.023438 215.453125 85.535156 206.976562 82.699219 201.65625 " clip-rule="nonzero"/></clipPath><clipPath id="0de24b43e0"><path d="M 22 164 L 99 164 L 99 244 L 22 244 Z M 22 164 " clip-rule="nonzero"/></clipPath><clipPath id="8e27461f67"><path d="M 93.929688 164.445312 L 98.992188 169.328125 L 27.003906 243.984375 L 21.941406 239.105469 Z M 93.929688 164.445312 " clip-rule="nonzero"/></clipPath><clipPath id="99714d8c52"><path d="M 93.929688 164.445312 L 98.785156 169.125 L 27.042969 243.53125 L 22.1875 238.847656 Z M 93.929688 164.445312 " clip-rule="nonzero"/></clipPath></defs><rect x="-37.5" width="450" fill="#ffffff" y="-37.499999" height="449.999989" fill-opacity="1"/><rect x="-37.5" width="450" fill="#ffffff" y="-37.499999" height="449.999989" fill-opacity="1"/><rect x="-37.5" width="450" fill="#061a37" y="-37.499999" height="449.999989" fill-opacity="1"/><g fill="#63b0dd" fill-opacity="1"><g transform="translate(29.702238, 222.773525)"><g/></g></g><g fill="#63b0dd" fill-opacity="1"><g transform="translate(73.214875, 222.773525)"><g/></g></g><g fill="#63b0dd" fill-opacity="1"><g transform="translate(116.72567, 222.773525)"><g><path d="M 41.921875 -58.796875 C 45.273438 -58.796875 48.335938 -58 51.109375 -56.40625 C 53.878906 -54.8125 56.09375 -52.65625 57.75 -49.9375 C 59.40625 -47.21875 60.234375 -44.148438 60.234375 -40.734375 C 60.234375 -37.265625 59.363281 -34.113281 57.625 -31.28125 C 55.882812 -28.457031 53.546875 -26.207031 50.609375 -24.53125 C 47.671875 -22.851562 44.460938 -22.015625 40.984375 -22.015625 L 21.25 -22.015625 L 21.25 0 L 12.1875 0 L 12.1875 -58.796875 Z M 40.484375 -30.75 C 42.335938 -30.75 44.046875 -31.207031 45.609375 -32.125 C 47.179688 -33.050781 48.425781 -34.269531 49.34375 -35.78125 C 50.269531 -37.289062 50.734375 -38.941406 50.734375 -40.734375 C 50.734375 -42.472656 50.269531 -44.039062 49.34375 -45.4375 C 48.425781 -46.84375 47.179688 -47.960938 45.609375 -48.796875 C 44.046875 -49.640625 42.335938 -50.0625 40.484375 -50.0625 L 21.25 -50.0625 L 21.25 -30.75 Z M 40.484375 -30.75 "/></g></g></g><g fill="#63b0dd" fill-opacity="1"><g transform="translate(195.350301, 222.773525)"><g><path d="M 57.453125 0 L 51.15625 -14.109375 L 21 -14.109375 L 14.703125 0 L 5.296875 0 L 31.328125 -58.796875 L 41.328125 -58.796875 L 67.28125 0 Z M 31.5 -37.96875 L 24.859375 -22.84375 L 47.296875 -22.84375 L 40.484375 -38.296875 C 38.921875 -41.773438 37.4375 -45.472656 36.03125 -49.390625 C 35.300781 -47.316406 34.554688 -45.328125 33.796875 -43.421875 C 33.046875 -41.523438 32.28125 -39.707031 31.5 -37.96875 Z M 31.5 -37.96875 "/></g></g></g><g fill="#63b0dd" fill-opacity="1"><g transform="translate(278.258935, 222.773525)"><g><path d="M 13.78125 -17.96875 C 16.6875 -14.5625 19.722656 -11.929688 22.890625 -10.078125 C 26.054688 -8.234375 29.9375 -7.3125 34.53125 -7.3125 C 36.988281 -7.3125 39.351562 -7.628906 41.625 -8.265625 C 43.894531 -8.910156 45.769531 -9.890625 47.25 -11.203125 C 48.726562 -12.523438 49.46875 -14.164062 49.46875 -16.125 C 49.46875 -18.925781 47.984375 -20.941406 45.015625 -22.171875 C 42.054688 -23.410156 37.890625 -24.421875 32.515625 -25.203125 C 25.898438 -26.210938 20.632812 -28.070312 16.71875 -30.78125 C 12.800781 -33.5 10.84375 -37.460938 10.84375 -42.671875 C 10.84375 -46.203125 11.890625 -49.226562 13.984375 -51.75 C 16.085938 -54.269531 18.929688 -56.210938 22.515625 -57.578125 C 26.097656 -58.953125 30.046875 -59.640625 34.359375 -59.640625 C 39.734375 -59.640625 44.378906 -58.742188 48.296875 -56.953125 C 52.222656 -55.160156 55.304688 -52.613281 57.546875 -49.3125 L 51.328125 -42.84375 C 49.472656 -45.414062 47.085938 -47.5 44.171875 -49.09375 C 41.265625 -50.6875 37.910156 -51.484375 34.109375 -51.484375 C 30.179688 -51.484375 26.898438 -50.769531 24.265625 -49.34375 C 21.640625 -47.914062 20.328125 -45.914062 20.328125 -43.34375 C 20.328125 -40.320312 21.738281 -38.179688 24.5625 -36.921875 C 27.394531 -35.660156 31.109375 -34.664062 35.703125 -33.9375 C 38.722656 -33.488281 41.617188 -32.898438 44.390625 -32.171875 C 47.160156 -31.441406 49.640625 -30.472656 51.828125 -29.265625 C 54.015625 -28.066406 55.75 -26.539062 57.03125 -24.6875 C 58.320312 -22.84375 58.96875 -20.550781 58.96875 -17.8125 C 58.96875 -14.0625 57.957031 -10.785156 55.9375 -7.984375 C 53.925781 -5.179688 51.054688 -3.007812 47.328125 -1.46875 C 43.609375 0.0703125 39.203125 0.84375 34.109375 0.84375 C 28.671875 0.84375 23.769531 -0.0507812 19.40625 -1.84375 C 15.039062 -3.632812 11.203125 -6.546875 7.890625 -10.578125 Z M 13.78125 -17.96875 "/></g></g></g><g clip-path="url(#b681c6e0c3)"><path fill="#46a0d4" d="M 98.863281 166.847656 L 103.191406 150.679688 L 87.027344 155.011719 L 90.660156 158.644531 L 31.445312 217.863281 C 31.445312 217.863281 31.816406 218.296875 33.683594 220.195312 C 35.550781 222.09375 36.015625 222.433594 36.015625 222.433594 L 95.226562 163.210938 Z M 57.425781 179.527344 L 61.0625 183.164062 L 65.390625 167 L 49.226562 171.328125 L 52.855469 174.964844 L 29.21875 198.605469 C 28.933594 197.097656 28.761719 195.578125 28.691406 194.042969 C 28.625 192.507812 28.664062 190.976562 28.8125 189.449219 C 28.960938 187.921875 29.214844 186.410156 29.578125 184.917969 C 29.9375 183.425781 30.402344 181.96875 30.96875 180.539062 C 31.535156 179.113281 32.203125 177.734375 32.964844 176.402344 C 33.726562 175.066406 34.578125 173.796875 35.519531 172.582031 C 36.460938 171.371094 37.480469 170.230469 38.585938 169.160156 C 39.6875 168.09375 40.859375 167.105469 42.101562 166.203125 C 43.34375 165.300781 44.640625 164.488281 45.996094 163.769531 C 47.355469 163.050781 48.753906 162.429688 50.199219 161.90625 C 51.640625 161.382812 53.113281 160.964844 54.617188 160.652344 C 56.121094 160.339844 57.636719 160.128906 59.171875 160.03125 C 60.703125 159.929688 62.234375 159.9375 63.765625 160.054688 C 65.296875 160.171875 66.8125 160.394531 68.308594 160.722656 C 69.808594 161.054688 71.277344 161.488281 72.71875 162.023438 C 74.15625 162.5625 75.550781 163.195312 76.898438 163.929688 L 81.621094 159.207031 C 80.71875 158.65625 79.796875 158.144531 78.855469 157.671875 C 77.910156 157.199219 76.949219 156.761719 75.96875 156.367188 C 74.992188 155.972656 73.996094 155.613281 72.988281 155.300781 C 71.980469 154.984375 70.960938 154.710938 69.933594 154.476562 C 68.902344 154.242188 67.863281 154.054688 66.820312 153.902344 C 65.773438 153.753906 64.722656 153.648438 63.671875 153.585938 C 62.617188 153.519531 61.5625 153.5 60.503906 153.519531 C 59.449219 153.542969 58.394531 153.605469 57.347656 153.714844 C 56.296875 153.820312 55.25 153.96875 54.210938 154.160156 C 53.171875 154.351562 52.144531 154.585938 51.125 154.859375 C 50.105469 155.136719 49.097656 155.449219 48.105469 155.808594 C 47.109375 156.164062 46.132812 156.558594 45.171875 156.996094 C 44.207031 157.429688 43.265625 157.90625 42.339844 158.417969 C 41.417969 158.929688 40.515625 159.476562 39.636719 160.0625 C 38.757812 160.648438 37.902344 161.265625 37.074219 161.921875 C 36.246094 162.574219 35.445312 163.261719 34.671875 163.980469 C 33.898438 164.699219 33.15625 165.449219 32.441406 166.226562 C 31.730469 167.007812 31.050781 167.8125 30.402344 168.648438 C 29.753906 169.484375 29.140625 170.34375 28.566406 171.226562 C 27.988281 172.109375 27.445312 173.015625 26.941406 173.945312 C 26.4375 174.871094 25.972656 175.816406 25.542969 176.785156 C 25.117188 177.75 24.726562 178.730469 24.378906 179.726562 C 24.03125 180.722656 23.722656 181.734375 23.457031 182.753906 C 23.191406 183.777344 22.964844 184.808594 22.785156 185.847656 C 22.601562 186.890625 22.460938 187.933594 22.363281 188.984375 C 22.261719 190.039062 22.207031 191.089844 22.195312 192.148438 C 22.183594 193.203125 22.210938 194.257812 22.285156 195.3125 C 22.355469 196.363281 22.472656 197.414062 22.628906 198.457031 C 22.785156 199.503906 22.988281 200.539062 23.226562 201.566406 C 23.46875 202.59375 23.753906 203.609375 24.074219 204.617188 C 24.398438 205.621094 24.761719 206.613281 25.167969 207.585938 C 25.570312 208.5625 26.015625 209.519531 26.496094 210.460938 L 31.351562 205.601562 Z M 89.9375 176.988281 C 96.667969 189.363281 94.808594 205.210938 84.351562 215.667969 C 83.417969 216.601562 82.429688 217.476562 81.390625 218.289062 C 80.347656 219.105469 79.261719 219.851562 78.128906 220.535156 C 77 221.214844 75.832031 221.828125 74.625 222.367188 C 73.417969 222.90625 72.183594 223.371094 70.921875 223.761719 C 69.660156 224.152344 68.378906 224.464844 67.078125 224.699219 C 65.777344 224.933594 64.46875 225.089844 63.148438 225.164062 C 61.828125 225.238281 60.511719 225.234375 59.191406 225.148438 C 57.875 225.066406 56.566406 224.898438 55.265625 224.65625 L 63.808594 216.113281 L 67.445312 219.75 L 71.777344 203.582031 L 55.609375 207.914062 L 59.246094 211.550781 L 48.273438 222.523438 L 43.414062 227.378906 C 44.355469 227.859375 45.3125 228.304688 46.289062 228.707031 C 47.265625 229.109375 48.253906 229.476562 49.257812 229.800781 C 50.265625 230.121094 51.28125 230.40625 52.308594 230.648438 C 53.335938 230.886719 54.375 231.089844 55.417969 231.246094 C 56.460938 231.402344 57.511719 231.519531 58.5625 231.589844 C 59.617188 231.664062 60.671875 231.695312 61.730469 231.679688 C 62.785156 231.667969 63.839844 231.613281 64.890625 231.515625 C 65.941406 231.414062 66.988281 231.273438 68.027344 231.09375 C 69.066406 230.910156 70.097656 230.683594 71.121094 230.417969 C 72.140625 230.152344 73.152344 229.84375 74.148438 229.496094 C 75.144531 229.148438 76.125 228.761719 77.089844 228.332031 C 78.058594 227.90625 79.003906 227.4375 79.933594 226.933594 C 80.859375 226.429688 81.765625 225.890625 82.648438 225.3125 C 83.535156 224.734375 84.394531 224.121094 85.226562 223.472656 C 86.0625 222.828125 86.867188 222.148438 87.648438 221.433594 C 88.425781 220.722656 89.175781 219.980469 89.894531 219.207031 C 90.613281 218.433594 91.300781 217.632812 91.953125 216.800781 C 92.609375 215.972656 93.230469 215.117188 93.8125 214.238281 C 94.398438 213.359375 94.945312 212.460938 95.460938 211.535156 C 95.972656 210.613281 96.445312 209.667969 96.878906 208.707031 C 97.316406 207.746094 97.710938 206.765625 98.070312 205.773438 C 98.425781 204.777344 98.742188 203.773438 99.015625 202.753906 C 99.289062 201.734375 99.523438 200.703125 99.714844 199.664062 C 99.90625 198.625 100.054688 197.582031 100.164062 196.53125 C 100.269531 195.480469 100.332031 194.429688 100.355469 193.371094 C 100.375 192.316406 100.355469 191.261719 100.292969 190.207031 C 100.226562 189.152344 100.121094 188.105469 99.972656 187.058594 C 99.824219 186.011719 99.632812 184.976562 99.398438 183.945312 C 99.167969 182.914062 98.890625 181.894531 98.578125 180.886719 C 98.261719 179.878906 97.90625 178.886719 97.507812 177.90625 C 97.113281 176.929688 96.679688 175.96875 96.203125 175.023438 C 95.730469 174.082031 95.21875 173.15625 94.671875 172.253906 Z M 89.9375 176.988281 " fill-opacity="1" fill-rule="nonzero"/><path fill="#63b0dd" d="M 98.863281 166.847656 L 103.191406 150.679688 L 87.027344 155.011719 L 90.660156 158.644531 L 31.445312 217.863281 C 31.445312 217.863281 31.816406 218.296875 33.683594 220.195312 C 35.550781 222.09375 36.015625 222.433594 36.015625 222.433594 L 95.226562 163.210938 Z M 57.425781 179.527344 L 61.0625 183.164062 L 65.390625 167 L 49.226562 171.328125 L 52.855469 174.964844 L 29.21875 198.605469 C 28.933594 197.097656 28.761719 195.578125 28.691406 194.042969 C 28.625 192.507812 28.664062 190.976562 28.8125 189.449219 C 28.960938 187.921875 29.214844 186.410156 29.578125 184.917969 C 29.9375 183.425781 30.402344 181.96875 30.96875 180.539062 C 31.535156 179.113281 32.203125 177.734375 32.964844 176.402344 C 33.726562 175.066406 34.578125 173.796875 35.519531 172.582031 C 36.460938 171.371094 37.480469 170.230469 38.585938 169.160156 C 39.6875 168.09375 40.859375 167.105469 42.101562 166.203125 C 43.34375 165.300781 44.640625 164.488281 45.996094 163.769531 C 47.355469 163.050781 48.753906 162.429688 50.199219 161.90625 C 51.640625 161.382812 53.113281 160.964844 54.617188 160.652344 C 56.121094 160.339844 57.636719 160.128906 59.171875 160.03125 C 60.703125 159.929688 62.234375 159.9375 63.765625 160.054688 C 65.296875 160.171875 66.8125 160.394531 68.308594 160.722656 C 69.808594 161.054688 71.277344 161.488281 72.71875 162.023438 C 74.15625 162.5625 75.550781 163.195312 76.898438 163.929688 L 81.621094 159.207031 C 80.71875 158.65625 79.796875 158.144531 78.855469 157.671875 C 77.910156 157.199219 76.949219 156.761719 75.96875 156.367188 C 74.992188 155.972656 73.996094 155.613281 72.988281 155.300781 C 71.980469 154.984375 70.960938 154.710938 69.933594 154.476562 C 68.902344 154.242188 67.863281 154.054688 66.820312 153.902344 C 65.773438 153.753906 64.722656 153.648438 63.671875 153.585938 C 62.617188 153.519531 61.5625 153.5 60.503906 153.519531 C 59.449219 153.542969 58.394531 153.605469 57.347656 153.714844 C 56.296875 153.820312 55.25 153.96875 54.210938 154.160156 C 53.171875 154.351562 52.144531 154.585938 51.125 154.859375 C 50.105469 155.136719 49.097656 155.449219 48.105469 155.808594 C 47.109375 156.164062 46.132812 156.558594 45.171875 156.996094 C 44.207031 157.429688 43.265625 157.90625 42.339844 158.417969 C 41.417969 158.929688 40.515625 159.476562 39.636719 160.0625 C 38.757812 160.648438 37.902344 161.265625 37.074219 161.921875 C 36.246094 162.574219 35.445312 163.261719 34.671875 163.980469 C 33.898438 164.699219 33.15625 165.449219 32.441406 166.226562 C 31.730469 167.007812 31.050781 167.8125 30.402344 168.648438 C 29.753906 169.484375 29.140625 170.34375 28.566406 171.226562 C 27.988281 172.109375 27.445312 173.015625 26.941406 173.945312 C 26.4375 174.871094 25.972656 175.816406 25.542969 176.785156 C 25.117188 177.75 24.726562 178.730469 24.378906 179.726562 C 24.03125 180.722656 23.722656 181.734375 23.457031 182.753906 C 23.191406 183.777344 22.964844 184.808594 22.785156 185.847656 C 22.601562 186.890625 22.460938 187.933594 22.363281 188.984375 C 22.261719 190.039062 22.207031 191.089844 22.195312 192.148438 C 22.183594 193.203125 22.210938 194.257812 22.285156 195.3125 C 22.355469 196.363281 22.472656 197.414062 22.628906 198.457031 C 22.785156 199.503906 22.988281 200.539062 23.226562 201.566406 C 23.46875 202.59375 23.753906 203.609375 24.074219 204.617188 C 24.398438 205.621094 24.761719 206.613281 25.167969 207.585938 C 25.570312 208.5625 26.015625 209.519531 26.496094 210.460938 L 31.351562 205.601562 Z M 89.9375 176.988281 C 96.667969 189.363281 94.808594 205.210938 84.351562 215.667969 C 83.417969 216.601562 82.429688 217.476562 81.390625 218.289062 C 80.347656 219.105469 79.261719 219.851562 78.128906 220.535156 C 77 221.214844 75.832031 221.828125 74.625 222.367188 C 73.417969 222.90625 72.183594 223.371094 70.921875 223.761719 C 69.660156 224.152344 68.378906 224.464844 67.078125 224.699219 C 65.777344 224.933594 64.46875 225.089844 63.148438 225.164062 C 61.828125 225.238281 60.511719 225.234375 59.191406 225.148438 C 57.875 225.066406 56.566406 224.898438 55.265625 224.65625 L 63.808594 216.113281 L 67.445312 219.75 L 71.777344 203.582031 L 55.609375 207.914062 L 59.246094 211.550781 L 48.273438 222.523438 L 43.414062 227.378906 C 44.355469 227.859375 45.3125 228.304688 46.289062 228.707031 C 47.265625 229.109375 48.253906 229.476562 49.257812 229.800781 C 50.265625 230.121094 51.28125 230.40625 52.308594 230.648438 C 53.335938 230.886719 54.375 231.089844 55.417969 231.246094 C 56.460938 231.402344 57.511719 231.519531 58.5625 231.589844 C 59.617188 231.664062 60.671875 231.695312 61.730469 231.679688 C 62.785156 231.667969 63.839844 231.613281 64.890625 231.515625 C 65.941406 231.414062 66.988281 231.273438 68.027344 231.09375 C 69.066406 230.910156 70.097656 230.683594 71.121094 230.417969 C 72.140625 230.152344 73.152344 229.84375 74.148438 229.496094 C 75.144531 229.148438 76.125 228.761719 77.089844 228.332031 C 78.058594 227.90625 79.003906 227.4375 79.933594 226.933594 C 80.859375 226.429688 81.765625 225.890625 82.648438 225.3125 C 83.535156 224.734375 84.394531 224.121094 85.226562 223.472656 C 86.0625 222.828125 86.867188 222.148438 87.648438 221.433594 C 88.425781 220.722656 89.175781 219.980469 89.894531 219.207031 C 90.613281 218.433594 91.300781 217.632812 91.953125 216.800781 C 92.609375 215.972656 93.230469 215.117188 93.8125 214.238281 C 94.398438 213.359375 94.945312 212.460938 95.460938 211.535156 C 95.972656 210.613281 96.445312 209.667969 96.878906 208.707031 C 97.316406 207.746094 97.710938 206.765625 98.070312 205.773438 C 98.425781 204.777344 98.742188 203.773438 99.015625 202.753906 C 99.289062 201.734375 99.523438 200.703125 99.714844 199.664062 C 99.90625 198.625 100.054688 197.582031 100.164062 196.53125 C 100.269531 195.480469 100.332031 194.429688 100.355469 193.371094 C 100.375 192.316406 100.355469 191.261719 100.292969 190.207031 C 100.226562 189.152344 100.121094 188.105469 99.972656 187.058594 C 99.824219 186.011719 99.632812 184.976562 99.398438 183.945312 C 99.167969 182.914062 98.890625 181.894531 98.578125 180.886719 C 98.261719 179.878906 97.90625 178.886719 97.507812 177.90625 C 97.113281 176.929688 96.679688 175.96875 96.203125 175.023438 C 95.730469 174.082031 95.21875 173.15625 94.671875 172.253906 Z M 89.9375 176.988281 " fill-opacity="1" fill-rule="nonzero"/></g><g clip-path="url(#6d593e98df)"><g clip-path="url(#66a3fc29f4)"><g clip-path="url(#6c49c537ec)"><path fill="#061a37" d="M 77.5625 192.027344 L 87.839844 211.292969 L 52.726562 230.027344 L 42.449219 210.757812 Z M 77.5625 192.027344 " fill-opacity="1" fill-rule="nonzero"/></g></g></g><g clip-path="url(#0de24b43e0)"><g clip-path="url(#8e27461f67)"><g clip-path="url(#99714d8c52)"><path fill="#061a37" d="M 93.929688 164.445312 L 98.992188 169.328125 L 27.003906 243.984375 L 21.941406 239.105469 Z M 93.929688 164.445312 " fill-opacity="1" fill-rule="nonzero"/></g></g></g><g fill="#fdfdfd" fill-opacity="1"><g transform="translate(61.640356, 259.003031)"><g><path d="M 1.84375 0 L 1.84375 -13.421875 L 3.40625 -13.421875 L 3.40625 0 Z M 1.84375 0 "/></g></g></g><g fill="#fdfdfd" fill-opacity="1"><g transform="translate(80.352369, 259.003031)"><g><path d="M 12.34375 0 L 10.546875 0 L 3.21875 -11.265625 L 3.140625 -11.265625 C 3.234375 -9.941406 3.28125 -8.734375 3.28125 -7.640625 L 3.28125 0 L 1.84375 0 L 1.84375 -13.421875 L 3.609375 -13.421875 L 10.9375 -2.203125 L 11 -2.203125 C 10.988281 -2.367188 10.960938 -2.898438 10.921875 -3.796875 C 10.878906 -4.691406 10.863281 -5.332031 10.875 -5.71875 L 10.875 -13.421875 L 12.34375 -13.421875 Z M 12.34375 0 "/></g></g></g><g fill="#fdfdfd" fill-opacity="1"><g transform="translate(107.992621, 259.003031)"><g><path d="M 9.515625 -13.421875 L 11.203125 -13.421875 L 6.359375 0 L 4.8125 0 L 0 -13.421875 L 1.65625 -13.421875 L 4.734375 -4.734375 C 5.085938 -3.742188 5.367188 -2.773438 5.578125 -1.828125 C 5.804688 -2.816406 6.097656 -3.804688 6.453125 -4.796875 Z M 9.515625 -13.421875 "/></g></g></g><g fill="#fdfdfd" fill-opacity="1"><g transform="translate(132.650675, 259.003031)"><g><path d="M 9.328125 0 L 1.84375 0 L 1.84375 -13.421875 L 9.328125 -13.421875 L 9.328125 -12.046875 L 3.40625 -12.046875 L 3.40625 -7.71875 L 8.96875 -7.71875 L 8.96875 -6.34375 L 3.40625 -6.34375 L 3.40625 -1.390625 L 9.328125 -1.390625 Z M 9.328125 0 "/></g></g></g><g fill="#fdfdfd" fill-opacity="1"><g transform="translate(156.574651, 259.003031)"><g><path d="M 9.421875 -3.578125 C 9.421875 -2.390625 8.992188 -1.460938 8.140625 -0.796875 C 7.285156 -0.140625 6.117188 0.1875 4.640625 0.1875 C 3.054688 0.1875 1.832031 -0.0195312 0.96875 -0.4375 L 0.96875 -1.9375 C 1.519531 -1.707031 2.117188 -1.523438 2.765625 -1.390625 C 3.421875 -1.253906 4.066406 -1.1875 4.703125 -1.1875 C 5.742188 -1.1875 6.523438 -1.382812 7.046875 -1.78125 C 7.578125 -2.175781 7.84375 -2.722656 7.84375 -3.421875 C 7.84375 -3.890625 7.75 -4.269531 7.5625 -4.5625 C 7.375 -4.863281 7.0625 -5.140625 6.625 -5.390625 C 6.1875 -5.640625 5.519531 -5.925781 4.625 -6.25 C 3.375 -6.695312 2.476562 -7.222656 1.9375 -7.828125 C 1.40625 -8.441406 1.140625 -9.242188 1.140625 -10.234375 C 1.140625 -11.265625 1.53125 -12.085938 2.3125 -12.703125 C 3.09375 -13.316406 4.125 -13.625 5.40625 -13.625 C 6.738281 -13.625 7.960938 -13.378906 9.078125 -12.890625 L 8.59375 -11.53125 C 7.488281 -11.988281 6.410156 -12.21875 5.359375 -12.21875 C 4.535156 -12.21875 3.890625 -12.039062 3.421875 -11.6875 C 2.960938 -11.332031 2.734375 -10.84375 2.734375 -10.21875 C 2.734375 -9.75 2.816406 -9.363281 2.984375 -9.0625 C 3.160156 -8.769531 3.453125 -8.5 3.859375 -8.25 C 4.265625 -8 4.882812 -7.726562 5.71875 -7.4375 C 7.125 -6.925781 8.09375 -6.382812 8.625 -5.8125 C 9.15625 -5.238281 9.421875 -4.492188 9.421875 -3.578125 Z M 9.421875 -3.578125 "/></g></g></g><g fill="#fdfdfd" fill-opacity="1"><g transform="translate(180.360988, 259.003031)"><g><path d="M 5.984375 0 L 4.421875 0 L 4.421875 -12.046875 L 0.171875 -12.046875 L 0.171875 -13.421875 L 10.234375 -13.421875 L 10.234375 -12.046875 L 5.984375 -12.046875 Z M 5.984375 0 "/></g></g></g><g fill="#fdfdfd" fill-opacity="1"><g transform="translate(204.229908, 259.003031)"><g><path d="M 7.796875 0 L 3.234375 -11.90625 L 3.15625 -11.90625 C 3.238281 -10.957031 3.28125 -9.835938 3.28125 -8.546875 L 3.28125 0 L 1.84375 0 L 1.84375 -13.421875 L 4.203125 -13.421875 L 8.453125 -2.359375 L 8.53125 -2.359375 L 12.8125 -13.421875 L 15.140625 -13.421875 L 15.140625 0 L 13.578125 0 L 13.578125 -8.65625 C 13.578125 -9.644531 13.625 -10.722656 13.71875 -11.890625 L 13.640625 -11.890625 L 9.046875 0 Z M 7.796875 0 "/></g></g></g><g fill="#fdfdfd" fill-opacity="1"><g transform="translate(234.668835, 259.003031)"><g><path d="M 9.328125 0 L 1.84375 0 L 1.84375 -13.421875 L 9.328125 -13.421875 L 9.328125 -12.046875 L 3.40625 -12.046875 L 3.40625 -7.71875 L 8.96875 -7.71875 L 8.96875 -6.34375 L 3.40625 -6.34375 L 3.40625 -1.390625 L 9.328125 -1.390625 Z M 9.328125 0 "/></g></g></g><g fill="#fdfdfd" fill-opacity="1"><g transform="translate(258.592811, 259.003031)"><g><path d="M 12.34375 0 L 10.546875 0 L 3.21875 -11.265625 L 3.140625 -11.265625 C 3.234375 -9.941406 3.28125 -8.734375 3.28125 -7.640625 L 3.28125 0 L 1.84375 0 L 1.84375 -13.421875 L 3.609375 -13.421875 L 10.9375 -2.203125 L 11 -2.203125 C 10.988281 -2.367188 10.960938 -2.898438 10.921875 -3.796875 C 10.878906 -4.691406 10.863281 -5.332031 10.875 -5.71875 L 10.875 -13.421875 L 12.34375 -13.421875 Z M 12.34375 0 "/></g></g></g><g fill="#fdfdfd" fill-opacity="1"><g transform="translate(286.233063, 259.003031)"><g><path d="M 5.984375 0 L 4.421875 0 L 4.421875 -12.046875 L 0.171875 -12.046875 L 0.171875 -13.421875 L 10.234375 -13.421875 L 10.234375 -12.046875 L 5.984375 -12.046875 Z M 5.984375 0 "/></g></g></g><g fill="#fdfdfd" fill-opacity="1"><g transform="translate(310.101983, 259.003031)"><g><path d="M 9.421875 -3.578125 C 9.421875 -2.390625 8.992188 -1.460938 8.140625 -0.796875 C 7.285156 -0.140625 6.117188 0.1875 4.640625 0.1875 C 3.054688 0.1875 1.832031 -0.0195312 0.96875 -0.4375 L 0.96875 -1.9375 C 1.519531 -1.707031 2.117188 -1.523438 2.765625 -1.390625 C 3.421875 -1.253906 4.066406 -1.1875 4.703125 -1.1875 C 5.742188 -1.1875 6.523438 -1.382812 7.046875 -1.78125 C 7.578125 -2.175781 7.84375 -2.722656 7.84375 -3.421875 C 7.84375 -3.890625 7.75 -4.269531 7.5625 -4.5625 C 7.375 -4.863281 7.0625 -5.140625 6.625 -5.390625 C 6.1875 -5.640625 5.519531 -5.925781 4.625 -6.25 C 3.375 -6.695312 2.476562 -7.222656 1.9375 -7.828125 C 1.40625 -8.441406 1.140625 -9.242188 1.140625 -10.234375 C 1.140625 -11.265625 1.53125 -12.085938 2.3125 -12.703125 C 3.09375 -13.316406 4.125 -13.625 5.40625 -13.625 C 6.738281 -13.625 7.960938 -13.378906 9.078125 -12.890625 L 8.59375 -11.53125 C 7.488281 -11.988281 6.410156 -12.21875 5.359375 -12.21875 C 4.535156 -12.21875 3.890625 -12.039062 3.421875 -11.6875 C 2.960938 -11.332031 2.734375 -10.84375 2.734375 -10.21875 C 2.734375 -9.75 2.816406 -9.363281 2.984375 -9.0625 C 3.160156 -8.769531 3.453125 -8.5 3.859375 -8.25 C 4.265625 -8 4.882812 -7.726562 5.71875 -7.4375 C 7.125 -6.925781 8.09375 -6.382812 8.625 -5.8125 C 9.15625 -5.238281 9.421875 -4.492188 9.421875 -3.578125 Z M 9.421875 -3.578125 "/></g></g></g><g fill="#ffffff" fill-opacity="1"><g transform="translate(61.58573, 258.497004)"><g><path d="M 1.84375 0 L 1.84375 -13.421875 L 3.40625 -13.421875 L 3.40625 0 Z M 1.84375 0 "/></g></g></g><g fill="#ffffff" fill-opacity="1"><g transform="translate(80.302256, 258.497004)"><g><path d="M 12.34375 0 L 10.546875 0 L 3.21875 -11.265625 L 3.140625 -11.265625 C 3.234375 -9.941406 3.28125 -8.734375 3.28125 -7.640625 L 3.28125 0 L 1.84375 0 L 1.84375 -13.421875 L 3.609375 -13.421875 L 10.9375 -2.203125 L 11 -2.203125 C 10.988281 -2.367188 10.960938 -2.898438 10.921875 -3.796875 C 10.878906 -4.691406 10.863281 -5.332031 10.875 -5.71875 L 10.875 -13.421875 L 12.34375 -13.421875 Z M 12.34375 0 "/></g></g></g><g fill="#ffffff" fill-opacity="1"><g transform="translate(107.954693, 258.497004)"><g><path d="M 9.515625 -13.421875 L 11.203125 -13.421875 L 6.359375 0 L 4.8125 0 L 0 -13.421875 L 1.65625 -13.421875 L 4.734375 -4.734375 C 5.085938 -3.742188 5.367188 -2.773438 5.578125 -1.828125 C 5.804688 -2.816406 6.097656 -3.804688 6.453125 -4.796875 Z M 9.515625 -13.421875 "/></g></g></g><g fill="#ffffff" fill-opacity="1"><g transform="translate(132.622375, 258.497004)"><g><path d="M 9.328125 0 L 1.84375 0 L 1.84375 -13.421875 L 9.328125 -13.421875 L 9.328125 -12.046875 L 3.40625 -12.046875 L 3.40625 -7.71875 L 8.96875 -7.71875 L 8.96875 -6.34375 L 3.40625 -6.34375 L 3.40625 -1.390625 L 9.328125 -1.390625 Z M 9.328125 0 "/></g></g></g><g fill="#ffffff" fill-opacity="1"><g transform="translate(156.555345, 258.497004)"><g><path d="M 9.421875 -3.578125 C 9.421875 -2.390625 8.992188 -1.460938 8.140625 -0.796875 C 7.285156 -0.140625 6.117188 0.1875 4.640625 0.1875 C 3.054688 0.1875 1.832031 -0.0195312 0.96875 -0.4375 L 0.96875 -1.9375 C 1.519531 -1.707031 2.117188 -1.523438 2.765625 -1.390625 C 3.421875 -1.253906 4.066406 -1.1875 4.703125 -1.1875 C 5.742188 -1.1875 6.523438 -1.382812 7.046875 -1.78125 C 7.578125 -2.175781 7.84375 -2.722656 7.84375 -3.421875 C 7.84375 -3.890625 7.75 -4.269531 7.5625 -4.5625 C 7.375 -4.863281 7.0625 -5.140625 6.625 -5.390625 C 6.1875 -5.640625 5.519531 -5.925781 4.625 -6.25 C 3.375 -6.695312 2.476562 -7.222656 1.9375 -7.828125 C 1.40625 -8.441406 1.140625 -9.242188 1.140625 -10.234375 C 1.140625 -11.265625 1.53125 -12.085938 2.3125 -12.703125 C 3.09375 -13.316406 4.125 -13.625 5.40625 -13.625 C 6.738281 -13.625 7.960938 -13.378906 9.078125 -12.890625 L 8.59375 -11.53125 C 7.488281 -11.988281 6.410156 -12.21875 5.359375 -12.21875 C 4.535156 -12.21875 3.890625 -12.039062 3.421875 -11.6875 C 2.960938 -11.332031 2.734375 -10.84375 2.734375 -10.21875 C 2.734375 -9.75 2.816406 -9.363281 2.984375 -9.0625 C 3.160156 -8.769531 3.453125 -8.5 3.859375 -8.25 C 4.265625 -8 4.882812 -7.726562 5.71875 -7.4375 C 7.125 -6.925781 8.09375 -6.382812 8.625 -5.8125 C 9.15625 -5.238281 9.421875 -4.492188 9.421875 -3.578125 Z M 9.421875 -3.578125 "/></g></g></g><g fill="#ffffff" fill-opacity="1"><g transform="translate(180.350551, 258.497004)"><g><path d="M 5.984375 0 L 4.421875 0 L 4.421875 -12.046875 L 0.171875 -12.046875 L 0.171875 -13.421875 L 10.234375 -13.421875 L 10.234375 -12.046875 L 5.984375 -12.046875 Z M 5.984375 0 "/></g></g></g><g fill="#ffffff" fill-opacity="1"><g transform="translate(204.228418, 258.497004)"><g><path d="M 7.796875 0 L 3.234375 -11.90625 L 3.15625 -11.90625 C 3.238281 -10.957031 3.28125 -9.835938 3.28125 -8.546875 L 3.28125 0 L 1.84375 0 L 1.84375 -13.421875 L 4.203125 -13.421875 L 8.453125 -2.359375 L 8.53125 -2.359375 L 12.8125 -13.421875 L 15.140625 -13.421875 L 15.140625 0 L 13.578125 0 L 13.578125 -8.65625 C 13.578125 -9.644531 13.625 -10.722656 13.71875 -11.890625 L 13.640625 -11.890625 L 9.046875 0 Z M 7.796875 0 "/></g></g></g><g fill="#ffffff" fill-opacity="1"><g transform="translate(234.681946, 258.497004)"><g><path d="M 9.328125 0 L 1.84375 0 L 1.84375 -13.421875 L 9.328125 -13.421875 L 9.328125 -12.046875 L 3.40625 -12.046875 L 3.40625 -7.71875 L 8.96875 -7.71875 L 8.96875 -6.34375 L 3.40625 -6.34375 L 3.40625 -1.390625 L 9.328125 -1.390625 Z M 9.328125 0 "/></g></g></g><g fill="#ffffff" fill-opacity="1"><g transform="translate(258.614916, 258.497004)"><g><path d="M 12.34375 0 L 10.546875 0 L 3.21875 -11.265625 L 3.140625 -11.265625 C 3.234375 -9.941406 3.28125 -8.734375 3.28125 -7.640625 L 3.28125 0 L 1.84375 0 L 1.84375 -13.421875 L 3.609375 -13.421875 L 10.9375 -2.203125 L 11 -2.203125 C 10.988281 -2.367188 10.960938 -2.898438 10.921875 -3.796875 C 10.878906 -4.691406 10.863281 -5.332031 10.875 -5.71875 L 10.875 -13.421875 L 12.34375 -13.421875 Z M 12.34375 0 "/></g></g></g><g fill="#ffffff" fill-opacity="1"><g transform="translate(286.267342, 258.497004)"><g><path d="M 5.984375 0 L 4.421875 0 L 4.421875 -12.046875 L 0.171875 -12.046875 L 0.171875 -13.421875 L 10.234375 -13.421875 L 10.234375 -12.046875 L 5.984375 -12.046875 Z M 5.984375 0 "/></g></g></g><g fill="#ffffff" fill-opacity="1"><g transform="translate(310.145209, 258.497004)"><g><path d="M 9.421875 -3.578125 C 9.421875 -2.390625 8.992188 -1.460938 8.140625 -0.796875 C 7.285156 -0.140625 6.117188 0.1875 4.640625 0.1875 C 3.054688 0.1875 1.832031 -0.0195312 0.96875 -0.4375 L 0.96875 -1.9375 C 1.519531 -1.707031 2.117188 -1.523438 2.765625 -1.390625 C 3.421875 -1.253906 4.066406 -1.1875 4.703125 -1.1875 C 5.742188 -1.1875 6.523438 -1.382812 7.046875 -1.78125 C 7.578125 -2.175781 7.84375 -2.722656 7.84375 -3.421875 C 7.84375 -3.890625 7.75 -4.269531 7.5625 -4.5625 C 7.375 -4.863281 7.0625 -5.140625 6.625 -5.390625 C 6.1875 -5.640625 5.519531 -5.925781 4.625 -6.25 C 3.375 -6.695312 2.476562 -7.222656 1.9375 -7.828125 C 1.40625 -8.441406 1.140625 -9.242188 1.140625 -10.234375 C 1.140625 -11.265625 1.53125 -12.085938 2.3125 -12.703125 C 3.09375 -13.316406 4.125 -13.625 5.40625 -13.625 C 6.738281 -13.625 7.960938 -13.378906 9.078125 -12.890625 L 8.59375 -11.53125 C 7.488281 -11.988281 6.410156 -12.21875 5.359375 -12.21875 C 4.535156 -12.21875 3.890625 -12.039062 3.421875 -11.6875 C 2.960938 -11.332031 2.734375 -10.84375 2.734375 -10.21875 C 2.734375 -9.75 2.816406 -9.363281 2.984375 -9.0625 C 3.160156 -8.769531 3.453125 -8.5 3.859375 -8.25 C 4.265625 -8 4.882812 -7.726562 5.71875 -7.4375 C 7.125 -6.925781 8.09375 -6.382812 8.625 -5.8125 C 9.15625 -5.238281 9.421875 -4.492188 9.421875 -3.578125 Z M 9.421875 -3.578125 "/></g></g></g></svg>