<svg xmlns="http://www.w3.org/2000/svg" xmlns:xlink="http://www.w3.org/1999/xlink" width="500" zoomAndPan="magnify" viewBox="0 0 375 374.999991" height="500" preserveAspectRatio="xMidYMid meet" version="1.0"><defs><g/><clipPath id="0e939670d3"><path d="M 48 200 L 78 200 L 78 224 L 48 224 Z M 48 200 " clip-rule="nonzero"/></clipPath><clipPath id="439618f913"><path d="M 71.726562 195.863281 L 81.636719 214.433594 L 54.199219 229.070312 L 44.289062 210.5 Z M 71.726562 195.863281 " clip-rule="nonzero"/></clipPath><clipPath id="fdf661d669"><path d="M 76.609375 205.015625 C 73.914062 199.960938 65.621094 199.121094 58.085938 203.140625 C 50.554688 207.15625 46.632812 214.511719 49.328125 219.566406 C 52.027344 224.625 60.320312 225.464844 67.851562 221.445312 C 75.386719 217.425781 79.304688 210.070312 76.609375 205.015625 " clip-rule="nonzero"/></clipPath><clipPath id="8a8f13dc44"><path d="M 28.367188 151.261719 L 108.617188 151.261719 L 108.617188 231.511719 L 28.367188 231.511719 Z M 28.367188 151.261719 " clip-rule="nonzero"/></clipPath></defs><rect x="-37.5" width="450" fill="#ffffff" y="-37.499999" height="449.999989" fill-opacity="1"/><rect x="-37.5" width="450" fill="#ffffff" y="-37.499999" height="449.999989" fill-opacity="1"/><rect x="-37.5" width="450" fill="#061a37" y="-37.499999" height="449.999989" fill-opacity="1"/><g fill="#65b857" fill-opacity="1"><g transform="translate(29.702238, 222.773525)"><g/></g></g><g fill="#65b857" fill-opacity="1"><g transform="translate(73.214875, 222.773525)"><g/></g></g><g fill="#65b857" fill-opacity="1"><g transform="translate(116.72567, 222.773525)"><g><path d="M 41.921875 -58.796875 C 45.273438 -58.796875 48.335938 -58 51.109375 -56.40625 C 53.878906 -54.8125 56.09375 -52.65625 57.75 -49.9375 C 59.40625 -47.21875 60.234375 -44.148438 60.234375 -40.734375 C 60.234375 -37.265625 59.363281 -34.113281 57.625 -31.28125 C 55.882812 -28.457031 53.546875 -26.207031 50.609375 -24.53125 C 47.671875 -22.851562 44.460938 -22.015625 40.984375 -22.015625 L 21.25 -22.015625 L 21.25 0 L 12.1875 0 L 12.1875 -58.796875 Z M 40.484375 -30.75 C 42.335938 -30.75 44.046875 -31.207031 45.609375 -32.125 C 47.179688 -33.050781 48.425781 -34.269531 49.34375 -35.78125 C 50.269531 -37.289062 50.734375 -38.941406 50.734375 -40.734375 C 50.734375 -42.472656 50.269531 -44.039062 49.34375 -45.4375 C 48.425781 -46.84375 47.179688 -47.960938 45.609375 -48.796875 C 44.046875 -49.640625 42.335938 -50.0625 40.484375 -50.0625 L 21.25 -50.0625 L 21.25 -30.75 Z M 40.484375 -30.75 "/></g></g></g><g fill="#65b857" fill-opacity="1"><g transform="translate(195.350301, 222.773525)"><g><path d="M 57.453125 0 L 51.15625 -14.109375 L 21 -14.109375 L 14.703125 0 L 5.296875 0 L 31.328125 -58.796875 L 41.328125 -58.796875 L 67.28125 0 Z M 31.5 -37.96875 L 24.859375 -22.84375 L 47.296875 -22.84375 L 40.484375 -38.296875 C 38.921875 -41.773438 37.4375 -45.472656 36.03125 -49.390625 C 35.300781 -47.316406 34.554688 -45.328125 33.796875 -43.421875 C 33.046875 -41.523438 32.28125 -39.707031 31.5 -37.96875 Z M 31.5 -37.96875 "/></g></g></g><g fill="#65b857" fill-opacity="1"><g transform="translate(278.258935, 222.773525)"><g><path d="M 13.78125 -17.96875 C 16.6875 -14.5625 19.722656 -11.929688 22.890625 -10.078125 C 26.054688 -8.234375 29.9375 -7.3125 34.53125 -7.3125 C 36.988281 -7.3125 39.351562 -7.628906 41.625 -8.265625 C 43.894531 -8.910156 45.769531 -9.890625 47.25 -11.203125 C 48.726562 -12.523438 49.46875 -14.164062 49.46875 -16.125 C 49.46875 -18.925781 47.984375 -20.941406 45.015625 -22.171875 C 42.054688 -23.410156 37.890625 -24.421875 32.515625 -25.203125 C 25.898438 -26.210938 20.632812 -28.070312 16.71875 -30.78125 C 12.800781 -33.5 10.84375 -37.460938 10.84375 -42.671875 C 10.84375 -46.203125 11.890625 -49.226562 13.984375 -51.75 C 16.085938 -54.269531 18.929688 -56.210938 22.515625 -57.578125 C 26.097656 -58.953125 30.046875 -59.640625 34.359375 -59.640625 C 39.734375 -59.640625 44.378906 -58.742188 48.296875 -56.953125 C 52.222656 -55.160156 55.304688 -52.613281 57.546875 -49.3125 L 51.328125 -42.84375 C 49.472656 -45.414062 47.085938 -47.5 44.171875 -49.09375 C 41.265625 -50.6875 37.910156 -51.484375 34.109375 -51.484375 C 30.179688 -51.484375 26.898438 -50.769531 24.265625 -49.34375 C 21.640625 -47.914062 20.328125 -45.914062 20.328125 -43.34375 C 20.328125 -40.320312 21.738281 -38.179688 24.5625 -36.921875 C 27.394531 -35.660156 31.109375 -34.664062 35.703125 -33.9375 C 38.722656 -33.488281 41.617188 -32.898438 44.390625 -32.171875 C 47.160156 -31.441406 49.640625 -30.472656 51.828125 -29.265625 C 54.015625 -28.066406 55.75 -26.539062 57.03125 -24.6875 C 58.320312 -22.84375 58.96875 -20.550781 58.96875 -17.8125 C 58.96875 -14.0625 57.957031 -10.785156 55.9375 -7.984375 C 53.925781 -5.179688 51.054688 -3.007812 47.328125 -1.46875 C 43.609375 0.0703125 39.203125 0.84375 34.109375 0.84375 C 28.671875 0.84375 23.769531 -0.0507812 19.40625 -1.84375 C 15.039062 -3.632812 11.203125 -6.546875 7.890625 -10.578125 Z M 13.78125 -17.96875 "/></g></g></g><g clip-path="url(#0e939670d3)"><g clip-path="url(#439618f913)"><g clip-path="url(#fdf661d669)"><path fill="#061a37" d="M 71.726562 195.863281 L 81.410156 214.011719 L 53.972656 228.648438 L 44.289062 210.5 Z M 71.726562 195.863281 " fill-opacity="1" fill-rule="nonzero"/></g></g></g><g clip-path="url(#8a8f13dc44)"><path fill="#65b857" d="M 68.492188 151.261719 C 46.332031 151.261719 28.367188 169.226562 28.367188 191.386719 C 28.367188 213.546875 46.332031 231.511719 68.492188 231.511719 C 90.652344 231.511719 108.617188 213.546875 108.617188 191.386719 C 108.617188 169.226562 90.652344 151.261719 68.492188 151.261719 Z M 84.121094 183.515625 C 84.347656 183.777344 84.683594 183.894531 85.136719 183.867188 C 86.25 183.800781 87.101562 183.453125 87.59375 182.859375 C 87.796875 182.613281 87.933594 182.332031 88 182.023438 C 88.230469 182.574219 88.472656 182.882812 88.910156 182.882812 C 89.058594 182.882812 89.433594 182.882812 90.15625 182.09375 C 90.480469 182.910156 91.0625 183.816406 92.039062 183.871094 C 92.789062 183.910156 93.703125 183.902344 94.300781 183.890625 L 94.300781 185.601562 C 92.632812 185.761719 90.800781 185.808594 90.394531 185.605469 C 89.191406 185.003906 87.882812 185.800781 87.878906 185.804688 C 87.289062 186.09375 85.851562 186.617188 85.210938 186.367188 C 85.089844 186.320312 85.023438 186.253906 84.980469 186.140625 C 84.859375 185.824219 84.757812 185.515625 84.660156 185.21875 C 84.320312 184.191406 83.910156 182.9375 82.757812 182.9375 C 82.613281 182.9375 82.457031 182.957031 82.289062 183 C 81.972656 183.078125 81.359375 183.144531 80.710938 183.210938 C 80.226562 183.257812 79.769531 183.308594 79.347656 183.363281 C 79.554688 183.234375 79.773438 183.074219 79.996094 182.875 C 81.453125 181.582031 82.976562 180.714844 83.683594 180.761719 C 83.828125 180.773438 83.882812 180.816406 83.917969 180.859375 C 84.132812 181.105469 84.074219 181.511719 83.964844 182.054688 C 83.867188 182.546875 83.757812 183.101562 84.121094 183.515625 Z M 84.355469 172.148438 C 84.796875 172.183594 85.21875 172.117188 85.582031 171.863281 C 86.0625 171.527344 86.320312 170.949219 86.375 170.101562 C 86.484375 168.382812 86.722656 167.398438 86.902344 166.894531 C 87.039062 167.402344 87.179688 168.179688 87.253906 168.933594 C 87.289062 169.261719 87.546875 169.519531 87.871094 169.496094 C 87.871094 169.496094 87.921875 169.5 87.945312 169.527344 C 87.984375 169.578125 88.019531 169.726562 87.988281 169.984375 C 87.847656 171.117188 86.890625 173.207031 85.902344 173.207031 C 85.453125 173.207031 85.046875 172.808594 84.648438 172.425781 C 84.554688 172.332031 84.457031 172.238281 84.355469 172.148438 Z M 66.105469 153.851562 C 66.347656 153.835938 66.589844 153.820312 66.832031 153.808594 C 66.289062 154.132812 65.773438 154.460938 65.3125 154.792969 C 65.640625 154.433594 65.902344 154.125 66.105469 153.851562 Z M 105.96875 188.285156 C 106.003906 188.679688 106.039062 189.070312 106.058594 189.46875 C 105.988281 189.429688 105.910156 189.394531 105.824219 189.363281 C 105.488281 189.246094 105.046875 189.117188 104.570312 188.984375 C 103.929688 188.800781 102.742188 188.460938 102.160156 188.160156 C 102.90625 188.050781 104.453125 188.09375 105.96875 188.285156 Z M 99.53125 194.972656 C 102.898438 194.492188 104.828125 193.800781 105.273438 192.914062 C 105.371094 192.714844 105.601562 192.4375 105.824219 192.171875 C 105.917969 192.058594 106.007812 191.949219 106.097656 191.835938 C 105.855469 212.371094 89.082031 229.003906 68.492188 229.003906 C 48.296875 229.003906 31.769531 213 30.914062 193.011719 C 31.433594 193.132812 32.015625 193.085938 32.613281 193.035156 C 33.519531 192.957031 34.546875 192.875 35.761719 193.234375 C 38.097656 193.925781 38.171875 194.257812 38.34375 195.066406 C 38.453125 195.574219 38.605469 196.273438 39.171875 197.175781 C 39.671875 197.976562 40.414062 198.484375 41.3125 198.636719 C 41.523438 198.671875 41.734375 198.6875 41.945312 198.6875 C 43.578125 198.6875 45.179688 197.722656 45.660156 197.335938 C 46.082031 196.996094 46.058594 196.640625 46.007812 196.453125 C 45.84375 195.875 45.207031 195.789062 44.238281 195.664062 C 43.898438 195.621094 43.496094 195.566406 43.175781 195.484375 C 43.460938 195.21875 43.789062 194.859375 43.789062 194.351562 C 43.789062 193.671875 43.292969 193.351562 42.894531 193.09375 C 42.566406 192.878906 42.195312 192.640625 41.886719 192.152344 C 41.664062 191.792969 41.703125 191.710938 41.871094 191.371094 C 42.042969 191.011719 42.304688 190.472656 42.121094 189.640625 C 42.015625 189.167969 41.726562 188.988281 41.5625 188.921875 C 41.03125 188.707031 40.515625 189.039062 39.921875 189.425781 C 39.5 189.703125 38.859375 190.117188 38.550781 190.023438 C 38.375 189.96875 38.242188 189.695312 38.175781 189.535156 C 37.980469 189.066406 38.09375 188.808594 38.195312 188.652344 C 38.792969 187.765625 41.136719 187.394531 42.261719 187.394531 C 42.496094 187.394531 43.003906 187.820312 43.375 188.128906 C 44.132812 188.757812 45.074219 189.542969 46.09375 189.160156 C 46.890625 188.859375 47.476562 187.625 48.523438 185.285156 C 49.316406 183.515625 50.214844 181.507812 51.132812 180.59375 C 52.292969 179.433594 53.492188 179.515625 54.652344 179.59375 C 55.210938 179.632812 55.742188 179.667969 56.242188 179.558594 C 56.660156 179.464844 57.175781 179.296875 57.414062 178.828125 C 57.703125 178.273438 57.453125 177.691406 57.082031 176.816406 C 57.015625 176.664062 56.945312 176.5 56.871094 176.320312 C 57.144531 176.355469 57.453125 176.339844 57.789062 176.238281 C 57.839844 176.222656 57.867188 176.222656 57.871094 176.21875 C 57.960938 176.292969 58.097656 176.644531 58.179688 176.859375 C 58.480469 177.632812 58.972656 178.933594 60.660156 178.820312 C 61.308594 178.777344 61.78125 178.554688 62.054688 178.15625 C 62.5625 177.421875 62.257812 176.410156 61.871094 175.128906 C 61.621094 174.304688 61.339844 173.375 61.242188 172.410156 C 61.128906 171.257812 60.773438 170.515625 60.15625 170.148438 C 59.339844 169.65625 58.421875 170.039062 57.875 170.265625 C 57.871094 170.265625 57.871094 170.265625 57.867188 170.269531 C 57.773438 170.066406 57.660156 169.757812 57.570312 169.515625 C 57.242188 168.636719 56.875 167.644531 56.183594 167.121094 C 55.929688 166.929688 55.628906 166.859375 55.335938 166.921875 C 54.664062 167.066406 54.234375 167.839844 53.742188 168.742188 C 53.484375 169.207031 52.949219 170.179688 52.691406 170.230469 C 51.46875 169.824219 50.742188 170.957031 50.367188 171.59375 C 50.179688 171.347656 50.042969 171.03125 49.957031 170.011719 C 49.898438 169.304688 52.402344 167.660156 53.746094 166.777344 C 55.226562 165.804688 56.5 164.964844 56.945312 164.230469 C 57.125 163.929688 57.457031 163.375 57.082031 162.929688 C 56.710938 162.492188 56.195312 162.695312 55.597656 162.929688 C 55.167969 163.097656 54.535156 163.347656 54.070312 163.304688 C 54.144531 163.058594 54.398438 162.652344 54.492188 162.5 C 54.664062 162.226562 54.953125 161.761719 54.539062 161.390625 C 54.121094 161.019531 53.675781 161.367188 53.460938 161.535156 C 52.453125 162.328125 49.882812 163.28125 49.03125 163.28125 C 48.878906 163.28125 48.78125 163.277344 48.71875 163.269531 C 48.691406 163.117188 48.671875 162.824219 48.652344 162.542969 C 48.636719 162.355469 48.625 162.140625 48.605469 161.898438 C 48.558594 161.363281 48.3125 160.90625 47.894531 160.578125 C 47.738281 160.453125 47.558594 160.355469 47.371094 160.273438 C 48.597656 159.4375 49.882812 158.679688 51.210938 157.988281 C 51.679688 158.453125 52.875 159.144531 56.277344 159.859375 C 57.195312 160.050781 57.820312 160.339844 58.324219 160.574219 C 58.785156 160.785156 59.191406 160.949219 59.574219 160.949219 C 60.140625 160.949219 60.644531 160.59375 61.179688 159.527344 C 61.511719 158.863281 62.421875 157.851562 63.363281 156.851562 C 63.296875 157.050781 63.277344 157.242188 63.316406 157.425781 C 63.496094 158.230469 63.855469 158.933594 64.144531 159.5 C 64.253906 159.71875 64.398438 160 64.464844 160.179688 C 64.390625 160.234375 64.292969 160.292969 64.214844 160.34375 C 63.695312 160.667969 62.980469 161.113281 62.851562 161.917969 C 62.769531 162.445312 62.96875 162.996094 63.441406 163.558594 C 64.257812 164.53125 64.035156 165.238281 63.753906 166.132812 C 63.605469 166.601562 63.453125 167.085938 63.453125 167.621094 C 63.453125 167.882812 63.414062 168.3125 63.371094 168.761719 C 63.175781 170.917969 63.101562 172.484375 63.980469 173.066406 C 64.132812 173.167969 64.34375 173.257812 64.617188 173.257812 C 64.84375 173.257812 65.113281 173.195312 65.429688 173.027344 C 66.449219 172.480469 66.753906 171.90625 67.105469 171.242188 C 67.539062 170.421875 68.132812 169.300781 70.511719 167.246094 C 74.734375 163.597656 77.945312 156.726562 78.09375 155.015625 C 84.03125 156.582031 89.398438 159.566406 93.804688 163.585938 C 93.285156 164.511719 92.589844 165.347656 92.03125 165.246094 C 91.824219 165.207031 91.816406 165.207031 91.792969 164.65625 C 91.753906 163.855469 91.691406 162.511719 89.480469 162.078125 C 86.328125 161.457031 81.847656 162.886719 80.800781 165.660156 C 80.078125 167.570312 80.007812 169.441406 80.613281 170.539062 C 80.929688 171.105469 81.414062 171.46875 82.015625 171.589844 C 82.269531 171.640625 82.542969 171.722656 82.832031 171.808594 C 82.65625 171.914062 82.496094 172.078125 82.359375 172.296875 C 81.09375 174.324219 79.582031 175.90625 79.128906 175.914062 C 78.339844 175.914062 77.710938 176.613281 77.445312 177.785156 C 77.339844 178.25 77.273438 178.800781 77.410156 179.199219 C 77.402344 179.207031 77.398438 179.214844 77.390625 179.222656 C 76.90625 178.976562 76.144531 178.691406 75.527344 178.929688 C 75.140625 179.078125 74.871094 179.40625 74.757812 179.847656 C 74.484375 180.945312 74.734375 182.449219 75.320312 183.199219 C 75.699219 183.683594 76.128906 183.785156 76.421875 183.785156 C 76.589844 183.785156 76.753906 183.804688 76.925781 183.820312 C 76.992188 183.828125 77.054688 183.835938 77.121094 183.839844 C 76.605469 184.039062 76.230469 184.292969 76.027344 184.652344 L 75.757812 185.128906 C 75.269531 185.996094 74.769531 186.894531 74.222656 187.332031 L 74.109375 187.421875 C 73.359375 188.015625 72.222656 188.917969 71.746094 190.988281 C 71.234375 193.203125 72.347656 197.96875 75.21875 198.667969 C 77.085938 199.128906 79.378906 198.929688 81.054688 198.78125 C 81.621094 198.734375 82.109375 198.691406 82.445312 198.6875 C 83.113281 198.6875 83.445312 199.03125 83.621094 200.960938 C 83.710938 201.96875 84.132812 202.601562 84.503906 203.15625 C 84.820312 203.628906 85.070312 204 85.125 204.578125 C 85.1875 205.191406 85.136719 205.617188 85.070312 206.148438 C 84.988281 206.832031 84.886719 207.679688 84.972656 209.210938 C 85.007812 209.835938 84.992188 210.511719 84.976562 211.230469 C 84.925781 213.59375 84.863281 216.269531 86.855469 217.121094 C 87.152344 217.25 87.40625 217.378906 87.628906 217.496094 C 88.207031 217.792969 88.667969 217.976562 89.125 217.976562 C 90.117188 217.976562 91.066406 217.09375 93.019531 214.519531 C 96.507812 209.925781 97.222656 207.695312 97.796875 205.261719 C 98.386719 202.753906 100.191406 200.492188 101.617188 199.457031 C 103.035156 198.425781 104.046875 196.8125 103.78125 196 C 103.675781 195.675781 103.390625 195.464844 103.054688 195.464844 C 102.988281 195.464844 102.851562 195.480469 102.660156 195.5 C 101.664062 195.617188 98.625 195.976562 97.757812 194.089844 C 97.691406 193.949219 97.625 193.804688 97.554688 193.664062 C 98.175781 194.523438 98.820312 195.070312 99.53125 194.972656 Z M 99.53125 194.972656 " fill-opacity="1" fill-rule="nonzero"/></g><path fill="#65b857" d="M 64.859375 201.65625 C 63.226562 201.175781 61.550781 199.960938 60.074219 198.886719 C 59.359375 198.367188 58.683594 197.878906 58.078125 197.519531 C 56.382812 196.519531 53.65625 196.042969 53.015625 195.941406 C 52.554688 195.652344 52.121094 195.332031 51.699219 195.019531 C 50.753906 194.316406 50.003906 193.765625 49.257812 193.765625 C 48.90625 193.765625 48.40625 193.894531 48.042969 194.503906 C 47.335938 195.691406 46.589844 196.863281 45.199219 198.195312 C 44.890625 198.492188 44.453125 198.777344 44.027344 199.054688 C 43.070312 199.679688 42.078125 200.324219 41.96875 201.390625 C 41.894531 202.097656 42.238281 202.824219 43.019531 203.605469 C 43.882812 204.464844 44.898438 205.011719 45.882812 205.539062 C 47.800781 206.570312 49.460938 207.460938 49.917969 210.472656 C 50.769531 216.09375 54.386719 221.480469 55.902344 223.535156 C 57.011719 225.039062 58.195312 225.867188 59.234375 225.867188 C 59.671875 225.867188 60.074219 225.714844 60.359375 225.433594 C 60.640625 225.15625 60.792969 224.777344 60.792969 224.367188 C 60.792969 224.0625 60.824219 223.746094 60.851562 223.410156 C 60.925781 222.613281 61.007812 221.710938 60.785156 220.496094 C 60.484375 218.851562 60.5 218.066406 60.839844 217.5 C 60.898438 217.402344 61.03125 217.363281 61.300781 217.304688 C 61.597656 217.238281 62.007812 217.148438 62.238281 216.757812 C 62.398438 216.488281 62.414062 216.160156 62.292969 215.761719 C 62.21875 215.523438 62.128906 215.296875 62.039062 215.078125 C 61.75 214.363281 61.601562 214.003906 62.167969 213.34375 C 63.242188 212.097656 64.976562 209.269531 65.300781 207.167969 C 65.382812 206.644531 65.644531 206.070312 65.894531 205.511719 C 66.316406 204.582031 66.753906 203.621094 66.363281 202.769531 C 66.125 202.25 65.632812 201.882812 64.859375 201.65625 Z M 64.859375 201.65625 " fill-opacity="1" fill-rule="nonzero"/><path fill="#65b857" d="M 61.617188 161.046875 C 61.457031 160.753906 61.09375 160.640625 60.789062 160.789062 C 60.726562 160.820312 59.242188 161.582031 59.242188 163.15625 C 59.242188 163.46875 58.785156 164.039062 58.453125 164.453125 C 57.871094 165.183594 56.988281 166.285156 57.960938 167.097656 C 58.199219 167.292969 58.527344 167.398438 58.90625 167.398438 C 59.832031 167.398438 61.148438 166.761719 61.863281 165.542969 C 62.394531 164.644531 62.78125 163.132812 61.617188 161.046875 Z M 61.617188 161.046875 " fill-opacity="1" fill-rule="nonzero"/><path fill="#65b857" d="M 73.539062 171.988281 C 76 170.757812 75.703125 166.882812 75.691406 166.71875 C 75.675781 166.539062 75.582031 166.371094 75.429688 166.261719 C 75.28125 166.15625 75.09375 166.121094 74.914062 166.164062 C 74.367188 166.300781 71.589844 167.046875 70.894531 168.4375 C 70.484375 169.253906 70.390625 170.617188 70.929688 171.492188 C 71.253906 172.015625 71.761719 172.304688 72.363281 172.304688 C 72.726562 172.304688 73.121094 172.195312 73.539062 171.988281 Z M 73.539062 171.988281 " fill-opacity="1" fill-rule="nonzero"/><g fill="#fdfdfd" fill-opacity="1"><g transform="translate(61.640356, 259.003031)"><g><path d="M 1.84375 0 L 1.84375 -13.421875 L 3.40625 -13.421875 L 3.40625 0 Z M 1.84375 0 "/></g></g></g><g fill="#fdfdfd" fill-opacity="1"><g transform="translate(80.352369, 259.003031)"><g><path d="M 12.34375 0 L 10.546875 0 L 3.21875 -11.265625 L 3.140625 -11.265625 C 3.234375 -9.941406 3.28125 -8.734375 3.28125 -7.640625 L 3.28125 0 L 1.84375 0 L 1.84375 -13.421875 L 3.609375 -13.421875 L 10.9375 -2.203125 L 11 -2.203125 C 10.988281 -2.367188 10.960938 -2.898438 10.921875 -3.796875 C 10.878906 -4.691406 10.863281 -5.332031 10.875 -5.71875 L 10.875 -13.421875 L 12.34375 -13.421875 Z M 12.34375 0 "/></g></g></g><g fill="#fdfdfd" fill-opacity="1"><g transform="translate(107.992621, 259.003031)"><g><path d="M 9.515625 -13.421875 L 11.203125 -13.421875 L 6.359375 0 L 4.8125 0 L 0 -13.421875 L 1.65625 -13.421875 L 4.734375 -4.734375 C 5.085938 -3.742188 5.367188 -2.773438 5.578125 -1.828125 C 5.804688 -2.816406 6.097656 -3.804688 6.453125 -4.796875 Z M 9.515625 -13.421875 "/></g></g></g><g fill="#fdfdfd" fill-opacity="1"><g transform="translate(132.650675, 259.003031)"><g><path d="M 9.328125 0 L 1.84375 0 L 1.84375 -13.421875 L 9.328125 -13.421875 L 9.328125 -12.046875 L 3.40625 -12.046875 L 3.40625 -7.71875 L 8.96875 -7.71875 L 8.96875 -6.34375 L 3.40625 -6.34375 L 3.40625 -1.390625 L 9.328125 -1.390625 Z M 9.328125 0 "/></g></g></g><g fill="#fdfdfd" fill-opacity="1"><g transform="translate(156.574651, 259.003031)"><g><path d="M 9.421875 -3.578125 C 9.421875 -2.390625 8.992188 -1.460938 8.140625 -0.796875 C 7.285156 -0.140625 6.117188 0.1875 4.640625 0.1875 C 3.054688 0.1875 1.832031 -0.0195312 0.96875 -0.4375 L 0.96875 -1.9375 C 1.519531 -1.707031 2.117188 -1.523438 2.765625 -1.390625 C 3.421875 -1.253906 4.066406 -1.1875 4.703125 -1.1875 C 5.742188 -1.1875 6.523438 -1.382812 7.046875 -1.78125 C 7.578125 -2.175781 7.84375 -2.722656 7.84375 -3.421875 C 7.84375 -3.890625 7.75 -4.269531 7.5625 -4.5625 C 7.375 -4.863281 7.0625 -5.140625 6.625 -5.390625 C 6.1875 -5.640625 5.519531 -5.925781 4.625 -6.25 C 3.375 -6.695312 2.476562 -7.222656 1.9375 -7.828125 C 1.40625 -8.441406 1.140625 -9.242188 1.140625 -10.234375 C 1.140625 -11.265625 1.53125 -12.085938 2.3125 -12.703125 C 3.09375 -13.316406 4.125 -13.625 5.40625 -13.625 C 6.738281 -13.625 7.960938 -13.378906 9.078125 -12.890625 L 8.59375 -11.53125 C 7.488281 -11.988281 6.410156 -12.21875 5.359375 -12.21875 C 4.535156 -12.21875 3.890625 -12.039062 3.421875 -11.6875 C 2.960938 -11.332031 2.734375 -10.84375 2.734375 -10.21875 C 2.734375 -9.75 2.816406 -9.363281 2.984375 -9.0625 C 3.160156 -8.769531 3.453125 -8.5 3.859375 -8.25 C 4.265625 -8 4.882812 -7.726562 5.71875 -7.4375 C 7.125 -6.925781 8.09375 -6.382812 8.625 -5.8125 C 9.15625 -5.238281 9.421875 -4.492188 9.421875 -3.578125 Z M 9.421875 -3.578125 "/></g></g></g><g fill="#fdfdfd" fill-opacity="1"><g transform="translate(180.360988, 259.003031)"><g><path d="M 5.984375 0 L 4.421875 0 L 4.421875 -12.046875 L 0.171875 -12.046875 L 0.171875 -13.421875 L 10.234375 -13.421875 L 10.234375 -12.046875 L 5.984375 -12.046875 Z M 5.984375 0 "/></g></g></g><g fill="#fdfdfd" fill-opacity="1"><g transform="translate(204.229908, 259.003031)"><g><path d="M 7.796875 0 L 3.234375 -11.90625 L 3.15625 -11.90625 C 3.238281 -10.957031 3.28125 -9.835938 3.28125 -8.546875 L 3.28125 0 L 1.84375 0 L 1.84375 -13.421875 L 4.203125 -13.421875 L 8.453125 -2.359375 L 8.53125 -2.359375 L 12.8125 -13.421875 L 15.140625 -13.421875 L 15.140625 0 L 13.578125 0 L 13.578125 -8.65625 C 13.578125 -9.644531 13.625 -10.722656 13.71875 -11.890625 L 13.640625 -11.890625 L 9.046875 0 Z M 7.796875 0 "/></g></g></g><g fill="#fdfdfd" fill-opacity="1"><g transform="translate(234.668835, 259.003031)"><g><path d="M 9.328125 0 L 1.84375 0 L 1.84375 -13.421875 L 9.328125 -13.421875 L 9.328125 -12.046875 L 3.40625 -12.046875 L 3.40625 -7.71875 L 8.96875 -7.71875 L 8.96875 -6.34375 L 3.40625 -6.34375 L 3.40625 -1.390625 L 9.328125 -1.390625 Z M 9.328125 0 "/></g></g></g><g fill="#fdfdfd" fill-opacity="1"><g transform="translate(258.592811, 259.003031)"><g><path d="M 12.34375 0 L 10.546875 0 L 3.21875 -11.265625 L 3.140625 -11.265625 C 3.234375 -9.941406 3.28125 -8.734375 3.28125 -7.640625 L 3.28125 0 L 1.84375 0 L 1.84375 -13.421875 L 3.609375 -13.421875 L 10.9375 -2.203125 L 11 -2.203125 C 10.988281 -2.367188 10.960938 -2.898438 10.921875 -3.796875 C 10.878906 -4.691406 10.863281 -5.332031 10.875 -5.71875 L 10.875 -13.421875 L 12.34375 -13.421875 Z M 12.34375 0 "/></g></g></g><g fill="#fdfdfd" fill-opacity="1"><g transform="translate(286.233063, 259.003031)"><g><path d="M 5.984375 0 L 4.421875 0 L 4.421875 -12.046875 L 0.171875 -12.046875 L 0.171875 -13.421875 L 10.234375 -13.421875 L 10.234375 -12.046875 L 5.984375 -12.046875 Z M 5.984375 0 "/></g></g></g><g fill="#fdfdfd" fill-opacity="1"><g transform="translate(310.101983, 259.003031)"><g><path d="M 9.421875 -3.578125 C 9.421875 -2.390625 8.992188 -1.460938 8.140625 -0.796875 C 7.285156 -0.140625 6.117188 0.1875 4.640625 0.1875 C 3.054688 0.1875 1.832031 -0.0195312 0.96875 -0.4375 L 0.96875 -1.9375 C 1.519531 -1.707031 2.117188 -1.523438 2.765625 -1.390625 C 3.421875 -1.253906 4.066406 -1.1875 4.703125 -1.1875 C 5.742188 -1.1875 6.523438 -1.382812 7.046875 -1.78125 C 7.578125 -2.175781 7.84375 -2.722656 7.84375 -3.421875 C 7.84375 -3.890625 7.75 -4.269531 7.5625 -4.5625 C 7.375 -4.863281 7.0625 -5.140625 6.625 -5.390625 C 6.1875 -5.640625 5.519531 -5.925781 4.625 -6.25 C 3.375 -6.695312 2.476562 -7.222656 1.9375 -7.828125 C 1.40625 -8.441406 1.140625 -9.242188 1.140625 -10.234375 C 1.140625 -11.265625 1.53125 -12.085938 2.3125 -12.703125 C 3.09375 -13.316406 4.125 -13.625 5.40625 -13.625 C 6.738281 -13.625 7.960938 -13.378906 9.078125 -12.890625 L 8.59375 -11.53125 C 7.488281 -11.988281 6.410156 -12.21875 5.359375 -12.21875 C 4.535156 -12.21875 3.890625 -12.039062 3.421875 -11.6875 C 2.960938 -11.332031 2.734375 -10.84375 2.734375 -10.21875 C 2.734375 -9.75 2.816406 -9.363281 2.984375 -9.0625 C 3.160156 -8.769531 3.453125 -8.5 3.859375 -8.25 C 4.265625 -8 4.882812 -7.726562 5.71875 -7.4375 C 7.125 -6.925781 8.09375 -6.382812 8.625 -5.8125 C 9.15625 -5.238281 9.421875 -4.492188 9.421875 -3.578125 Z M 9.421875 -3.578125 "/></g></g></g></svg>