<svg xmlns="http://www.w3.org/2000/svg" xmlns:xlink="http://www.w3.org/1999/xlink" width="500" zoomAndPan="magnify" viewBox="0 0 375 374.999991" height="500" preserveAspectRatio="xMidYMid meet" version="1.0"><defs><clipPath id="737c0dab83"><path d="M 53.488281 53.488281 L 321.238281 53.488281 L 321.238281 321.238281 L 53.488281 321.238281 Z M 53.488281 53.488281 " clip-rule="nonzero"/></clipPath><clipPath id="ca52715591"><path d="M 8.25 37.5 L 169.921875 37.5 L 169.921875 176.074219 L 8.25 176.074219 Z M 8.25 37.5 " clip-rule="nonzero"/></clipPath><clipPath id="869a41d823"><path d="M 88.839844 37.5 C 44.332031 37.5 8.25 68.519531 8.25 106.789062 C 8.25 145.054688 44.332031 176.074219 88.839844 176.074219 C 133.34375 176.074219 169.425781 145.054688 169.425781 106.789062 C 169.425781 68.519531 133.34375 37.5 88.839844 37.5 " clip-rule="nonzero"/></clipPath><clipPath id="fa1ebbcd20"><path d="M 46.5 54.988281 L 182.25 54.988281 L 182.25 190.738281 L 46.5 190.738281 Z M 46.5 54.988281 " clip-rule="nonzero"/></clipPath></defs><rect x="-37.5" width="450" fill="#ffffff" y="-37.499999" height="449.999989" fill-opacity="1"/><rect x="-37.5" width="450" fill="#ffffff" y="-37.499999" height="449.999989" fill-opacity="1"/><rect x="-37.5" width="450" fill="#061a37" y="-37.499999" height="449.999989" fill-opacity="1"/><path fill="#63b0dd" d="M 109.632812 131.222656 C 97.722656 131.222656 88.039062 121.539062 88.039062 109.632812 C 88.039062 97.722656 97.722656 88.039062 109.632812 88.039062 C 121.539062 88.039062 131.222656 97.722656 131.222656 109.632812 C 131.222656 121.539062 121.539062 131.222656 109.632812 131.222656 Z M 139.859375 109.632812 C 139.859375 92.964844 126.296875 79.402344 109.632812 79.402344 C 92.964844 79.402344 79.402344 92.964844 79.402344 109.632812 C 79.402344 126.296875 92.964844 139.859375 109.632812 139.859375 C 126.296875 139.859375 139.859375 126.296875 139.859375 109.632812 " fill-opacity="1" fill-rule="nonzero"/><path fill="#63b0dd" d="M 269.417969 144.179688 L 260.78125 144.179688 L 260.78125 92.355469 L 269.417969 92.355469 Z M 243.507812 144.179688 L 243.507812 109.632812 L 252.144531 109.632812 L 252.144531 144.179688 Z M 226.230469 118.269531 L 234.867188 118.269531 L 234.867188 144.179688 L 226.230469 144.179688 Z M 217.59375 144.179688 L 208.957031 144.179688 L 208.957031 100.992188 L 217.59375 100.992188 Z M 278.054688 83.71875 L 252.144531 83.71875 L 252.144531 100.992188 L 234.867188 100.992188 L 234.867188 109.632812 L 226.230469 109.632812 L 226.230469 92.355469 L 200.320312 92.355469 L 200.320312 152.816406 L 278.054688 152.816406 L 278.054688 83.71875 " fill-opacity="1" fill-rule="nonzero"/><path fill="#63b0dd" d="M 280.011719 249.105469 C 277.617188 246.15625 275.035156 243.285156 272.335938 240.585938 C 269.652344 237.886719 266.785156 235.324219 263.832031 232.929688 C 271.136719 228.425781 277.464844 226.214844 281.511719 226.214844 C 283.300781 226.214844 284.667969 226.636719 285.476562 227.445312 C 288.125 230.09375 286.539062 238.546875 280.011719 249.105469 Z M 285.476562 285.476562 C 282.828125 288.125 274.359375 286.554688 263.800781 279.996094 C 266.75 277.597656 269.636719 275.050781 272.335938 272.335938 C 275.035156 269.636719 277.617188 266.769531 280.011719 263.816406 C 286.539062 274.375 288.125 282.828125 285.476562 285.476562 Z M 227.445312 285.476562 C 224.796875 282.828125 226.382812 274.375 232.910156 263.816406 C 235.308594 266.769531 237.886719 269.636719 240.585938 272.335938 C 243.285156 275.050781 246.171875 277.597656 249.125 279.996094 C 238.5625 286.539062 230.09375 288.125 227.445312 285.476562 Z M 256.460938 238.058594 C 259.648438 240.535156 262.921875 243.371094 266.230469 246.675781 C 269.535156 250 272.421875 253.273438 274.898438 256.460938 C 272.421875 259.648438 269.535156 262.921875 266.230469 266.246094 C 262.921875 269.550781 259.648438 272.421875 256.460938 274.898438 C 253.273438 272.421875 250 269.550781 246.695312 266.246094 C 243.386719 262.921875 240.503906 259.648438 238.023438 256.460938 C 240.503906 253.273438 243.386719 250 246.695312 246.675781 C 250 243.371094 253.273438 240.535156 256.460938 238.058594 Z M 227.445312 227.445312 C 228.257812 226.636719 229.621094 226.214844 231.410156 226.214844 C 235.460938 226.214844 241.785156 228.425781 249.089844 232.929688 C 246.136719 235.324219 243.269531 237.886719 240.585938 240.585938 C 237.886719 243.285156 235.308594 246.15625 232.910156 249.105469 C 226.382812 238.546875 224.796875 230.09375 227.445312 227.445312 Z M 291.582031 221.339844 C 284.226562 213.984375 270.125 218.253906 256.460938 227.445312 C 242.796875 218.253906 228.695312 213.984375 221.339844 221.339844 C 214 228.695312 218.269531 242.796875 227.464844 256.460938 C 218.269531 270.125 214 284.226562 221.339844 291.582031 C 223.9375 294.164062 227.363281 295.328125 231.308594 295.328125 C 238.582031 295.328125 247.621094 291.433594 256.460938 285.476562 C 265.300781 291.433594 274.34375 295.328125 281.613281 295.328125 C 285.5625 295.328125 288.984375 294.164062 291.582031 291.582031 C 298.921875 284.226562 294.652344 270.125 285.460938 256.460938 C 294.652344 242.796875 298.921875 228.695312 291.582031 221.339844 " fill-opacity="1" fill-rule="nonzero"/><path fill="#63b0dd" d="M 256.460938 260.78125 C 258.839844 260.78125 260.78125 258.839844 260.78125 256.460938 C 260.78125 254.082031 258.839844 252.144531 256.460938 252.144531 C 254.082031 252.144531 252.144531 254.082031 252.144531 256.460938 C 252.144531 258.839844 254.082031 260.78125 256.460938 260.78125 " fill-opacity="1" fill-rule="nonzero"/><g clip-path="url(#737c0dab83)"><path fill="#63b0dd" d="M 256.460938 312.601562 C 225.507812 312.601562 200.320312 287.417969 200.320312 256.460938 C 200.320312 225.507812 225.507812 200.320312 256.460938 200.320312 C 287.417969 200.320312 312.601562 225.507812 312.601562 256.460938 C 312.601562 287.417969 287.417969 312.601562 256.460938 312.601562 Z M 174.410156 260.78125 C 141.074219 260.78125 113.949219 233.652344 113.949219 200.320312 C 113.949219 166.988281 141.074219 139.859375 174.410156 139.859375 C 175.640625 139.859375 176.972656 139.996094 178.273438 140.082031 C 179.402344 143.21875 180.683594 146.269531 182.253906 149.15625 C 179.671875 148.75 177.058594 148.496094 174.410156 148.496094 C 145.832031 148.496094 122.585938 171.742188 122.585938 200.320312 C 122.585938 228.898438 145.832031 252.144531 174.410156 252.144531 C 180.480469 252.144531 186.472656 250.980469 192.171875 248.886719 C 191.867188 251.382812 191.683594 253.898438 191.683594 256.460938 C 191.683594 257.019531 191.75 257.574219 191.769531 258.132812 C 186.066406 259.851562 180.246094 260.78125 174.410156 260.78125 Z M 122.585938 263.308594 L 111.417969 252.144531 L 120.34375 243.21875 C 123.632812 247.351562 127.378906 251.097656 131.511719 254.386719 Z M 86.03125 308.503906 C 83.382812 311.152344 79.875 312.601562 76.128906 312.601562 C 68.402344 312.601562 62.125 306.328125 62.125 298.601562 C 62.125 294.855469 63.578125 291.347656 66.226562 288.699219 L 100.992188 253.929688 L 120.796875 273.734375 Z M 100.050781 157.136719 L 97.941406 148.71875 L 97.0625 146.40625 L 92.136719 144.398438 L 82.824219 150 L 69.261719 136.453125 L 74.863281 127.125 L 72.703125 121.859375 L 62.125 119.210938 L 62.125 100.050781 L 72.6875 97.402344 L 74.863281 92.136719 L 69.261719 82.808594 L 82.824219 69.261719 L 92.136719 74.863281 L 97.402344 72.722656 L 100.050781 62.125 L 119.210938 62.125 L 121.320312 70.542969 L 122.199219 72.855469 L 127.125 74.863281 L 136.453125 69.261719 L 150 82.808594 L 144.398438 92.136719 L 146.574219 97.402344 L 157.136719 100.050781 L 157.136719 119.210938 L 148.71875 121.320312 L 146.40625 122.199219 L 144.382812 127.175781 L 149.8125 135.828125 C 138.257812 140.25 128.1875 147.636719 120.5625 157.136719 Z M 239.1875 62.125 C 270.144531 62.125 295.328125 87.3125 295.328125 118.269531 C 295.328125 149.222656 270.144531 174.410156 239.1875 174.410156 C 208.230469 174.410156 183.046875 149.222656 183.046875 118.269531 C 183.046875 87.3125 208.230469 62.125 239.1875 62.125 Z M 226.179688 199.222656 C 226.0625 192.832031 224.78125 186.605469 222.386719 180.753906 C 225.539062 181.613281 228.761719 182.269531 232.085938 182.640625 C 233.382812 186.890625 234.226562 191.210938 234.566406 195.582031 C 231.679688 196.609375 228.863281 197.808594 226.179688 199.222656 Z M 194.246094 238.546875 C 188.105469 241.75 181.308594 243.507812 174.410156 243.507812 C 150.589844 243.507812 131.222656 224.140625 131.222656 200.320312 C 131.222656 176.5 150.589844 157.136719 174.410156 157.136719 C 179.65625 157.136719 184.800781 158.113281 189.710938 159.984375 C 195.308594 166.632812 202.226562 172.082031 210.054688 176.046875 C 214.980469 183.25 217.59375 191.617188 217.59375 200.320312 C 217.59375 201.769531 217.460938 203.324219 217.273438 205.011719 C 206.359375 213.34375 198.160156 225.035156 194.246094 238.546875 Z M 256.460938 191.683594 C 251.855469 191.683594 247.386719 192.171875 243.050781 193.101562 C 242.695312 189.675781 242.054688 186.300781 241.179688 182.945312 C 275.960938 181.882812 303.964844 153.324219 303.964844 118.269531 C 303.964844 82.539062 274.898438 53.488281 239.1875 53.488281 C 203.476562 53.488281 174.410156 82.539062 174.410156 118.269531 C 174.410156 122.722656 174.863281 127.058594 175.726562 131.257812 C 175.285156 131.257812 174.847656 131.222656 174.410156 131.222656 C 168.875 131.222656 163.511719 131.949219 158.347656 133.179688 L 155.429688 128.542969 L 165.773438 125.960938 L 165.773438 93.300781 L 155.347656 90.703125 L 160.878906 81.476562 L 137.785156 58.398438 L 128.558594 63.914062 L 125.960938 53.488281 L 93.300781 53.488281 L 90.703125 63.914062 L 81.476562 58.398438 L 58.382812 81.476562 L 63.914062 90.703125 L 53.488281 93.300781 L 53.488281 125.960938 L 63.914062 128.558594 L 58.382812 137.785156 L 81.476562 160.863281 L 90.703125 155.347656 L 93.300781 165.773438 L 114.65625 165.773438 C 108.753906 175.945312 105.3125 187.734375 105.3125 200.320312 C 105.3125 213.394531 109.023438 225.558594 115.351562 236 L 105.3125 246.035156 L 100.992188 241.71875 L 60.121094 282.59375 C 55.851562 286.859375 53.488281 292.546875 53.488281 298.601562 C 53.488281 311.085938 63.644531 321.238281 76.128906 321.238281 C 82.167969 321.238281 87.851562 318.878906 92.136719 314.609375 L 133.011719 273.734375 L 128.691406 269.417969 L 138.730469 259.378906 C 149.15625 265.707031 161.335938 269.417969 174.410156 269.417969 C 180.515625 269.417969 186.621094 268.558594 192.609375 266.902344 C 197.621094 297.65625 224.308594 321.238281 256.460938 321.238281 C 292.175781 321.238281 321.238281 292.175781 321.238281 256.460938 C 321.238281 220.730469 292.175781 191.683594 256.460938 191.683594 " fill-opacity="1" fill-rule="nonzero"/></g><path fill="#63b0dd" d="M 157.136719 204.640625 L 165.773438 204.640625 L 165.773438 196 L 157.136719 196 L 157.136719 204.640625 " fill-opacity="1" fill-rule="nonzero"/><path fill="#63b0dd" d="M 139.859375 204.640625 L 148.496094 204.640625 L 148.496094 196 L 139.859375 196 L 139.859375 204.640625 " fill-opacity="1" fill-rule="nonzero"/><path fill="#63b0dd" d="M 191.683594 204.640625 L 200.320312 204.640625 L 200.320312 196 L 191.683594 196 L 191.683594 204.640625 " fill-opacity="1" fill-rule="nonzero"/><path fill="#63b0dd" d="M 174.410156 204.640625 L 183.046875 204.640625 L 183.046875 196 L 174.410156 196 L 174.410156 204.640625 " fill-opacity="1" fill-rule="nonzero"/><path fill="#63b0dd" d="M 102.257812 278.578125 L 108.367188 272.46875 L 102.257812 266.363281 L 96.152344 272.46875 L 102.257812 278.578125 " fill-opacity="1" fill-rule="nonzero"/><path fill="#63b0dd" d="M 72.027344 296.59375 L 78.136719 302.699219 L 83.9375 296.898438 L 77.832031 290.789062 L 72.027344 296.59375 " fill-opacity="1" fill-rule="nonzero"/><path fill="#63b0dd" d="M 83.9375 284.683594 L 90.046875 290.789062 L 96.152344 284.683594 L 90.046875 278.578125 L 83.9375 284.683594 " fill-opacity="1" fill-rule="nonzero"/><g clip-path="url(#ca52715591)"><g clip-path="url(#869a41d823)"><path fill="#061a37" d="M 8.25 37.5 L 169.199219 37.5 L 169.199219 176.074219 L 8.25 176.074219 Z M 8.25 37.5 " fill-opacity="1" fill-rule="nonzero"/></g></g><g clip-path="url(#fa1ebbcd20)"><path fill="#63b0dd" d="M 174.707031 111.550781 L 162.03125 111.550781 C 160.808594 106.390625 158.773438 101.554688 156.066406 97.171875 L 165.035156 88.199219 C 167.980469 85.253906 167.980469 80.476562 165.035156 77.53125 L 159.703125 72.199219 C 156.757812 69.253906 151.984375 69.253906 149.039062 72.199219 L 140.070312 81.171875 C 135.679688 78.464844 130.851562 76.429688 125.6875 75.210938 L 125.6875 62.53125 C 125.6875 58.367188 122.308594 54.988281 118.144531 54.988281 L 110.605469 54.988281 C 106.441406 54.988281 103.0625 58.367188 103.0625 62.53125 L 103.0625 75.210938 C 97.898438 76.429688 93.066406 78.46875 88.679688 81.175781 L 79.714844 72.203125 C 76.769531 69.257812 71.992188 69.257812 69.050781 72.203125 L 63.714844 77.535156 C 60.769531 80.480469 60.769531 85.257812 63.710938 88.203125 L 72.679688 97.175781 C 69.972656 101.558594 67.941406 106.394531 66.71875 111.550781 L 54.042969 111.550781 C 49.878906 111.550781 46.5 114.929688 46.5 119.09375 L 46.5 126.636719 C 46.5 130.796875 49.878906 134.175781 54.042969 134.175781 L 66.71875 134.175781 C 67.941406 139.335938 69.976562 144.171875 72.683594 148.554688 L 63.714844 157.527344 C 60.773438 160.46875 60.773438 165.25 63.71875 168.195312 L 69.050781 173.527344 C 71.992188 176.46875 76.769531 176.46875 79.714844 173.527344 L 88.683594 164.554688 C 93.070312 167.265625 97.902344 169.300781 103.066406 170.519531 L 103.066406 183.199219 C 103.066406 187.359375 106.445312 190.738281 110.609375 190.738281 L 118.148438 190.738281 C 122.3125 190.738281 125.691406 187.359375 125.691406 183.199219 L 125.691406 170.519531 C 130.851562 169.300781 135.683594 167.261719 140.070312 164.554688 L 149.039062 173.527344 C 151.984375 176.472656 156.757812 176.472656 159.703125 173.527344 L 165.035156 168.195312 C 167.980469 165.25 167.980469 160.472656 165.035156 157.527344 L 156.066406 148.554688 C 158.777344 144.171875 160.808594 139.335938 162.03125 134.171875 L 174.707031 134.171875 C 178.871094 134.171875 182.25 130.792969 182.25 126.632812 L 182.25 119.089844 C 182.25 114.929688 178.871094 111.550781 174.707031 111.550781 Z M 114.375 153.03125 C 97.714844 153.03125 84.207031 139.523438 84.207031 122.863281 C 84.207031 106.207031 97.714844 92.699219 114.375 92.699219 C 131.035156 92.699219 144.542969 106.207031 144.542969 122.863281 C 144.542969 139.523438 131.035156 153.03125 114.375 153.03125 Z M 114.375 153.03125 " fill-opacity="1" fill-rule="nonzero"/></g></svg>