<svg xmlns="http://www.w3.org/2000/svg" xmlns:xlink="http://www.w3.org/1999/xlink" width="500" zoomAndPan="magnify" viewBox="0 0 375 374.999991" height="500" preserveAspectRatio="xMidYMid meet" version="1.0"><defs><clipPath id="ebdcf52c28"><path d="M 37.996094 45.0625 L 337.246094 45.0625 L 337.246094 330 L 37.996094 330 Z M 37.996094 45.0625 " clip-rule="nonzero"/></clipPath><clipPath id="9fd367f613"><path d="M 134.148438 230.792969 L 240.851562 230.792969 L 240.851562 337.5 L 134.148438 337.5 Z M 134.148438 230.792969 " clip-rule="nonzero"/></clipPath><clipPath id="2bb4145a55"><path d="M 187.5 230.792969 C 158.035156 230.792969 134.148438 254.679688 134.148438 284.148438 C 134.148438 313.613281 158.035156 337.5 187.5 337.5 C 216.964844 337.5 240.851562 313.613281 240.851562 284.148438 C 240.851562 254.679688 216.964844 230.792969 187.5 230.792969 " clip-rule="nonzero"/></clipPath><clipPath id="feb5a19ff0"><path d="M 134.148438 221.945312 L 240.648438 221.945312 L 240.648438 328.445312 L 134.148438 328.445312 Z M 134.148438 221.945312 " clip-rule="nonzero"/></clipPath></defs><rect x="-37.5" width="450" fill="#ffffff" y="-37.499999" height="449.999989" fill-opacity="1"/><rect x="-37.5" width="450" fill="#ffffff" y="-37.499999" height="449.999989" fill-opacity="1"/><rect x="-37.5" width="450" fill="#061a37" y="-37.499999" height="449.999989" fill-opacity="1"/><g clip-path="url(#ebdcf52c28)"><path fill="#63b0dd" d="M 337.246094 188.796875 C 337.246094 159.113281 313.085938 134.960938 283.386719 134.960938 C 253.691406 134.960938 229.53125 159.113281 229.53125 188.796875 C 229.53125 204.945312 236.6875 219.445312 247.988281 229.320312 L 219.761719 248.417969 C 214.65625 243.636719 208.523438 239.945312 201.691406 237.804688 C 201.65625 237.792969 201.625 237.777344 201.589844 237.769531 C 197.902344 236.621094 194.003906 235.976562 189.996094 235.773438 L 189.996094 152.96875 C 198.316406 152.605469 206.152344 150.347656 213.082031 146.617188 C 213.136719 146.59375 213.179688 146.566406 213.234375 146.539062 C 230.039062 137.417969 241.476562 119.613281 241.476562 99.1875 C 241.480469 69.503906 217.316406 45.355469 187.621094 45.355469 C 157.925781 45.355469 133.761719 69.503906 133.761719 99.191406 C 133.761719 119.613281 145.199219 137.417969 162.003906 146.539062 C 162.054688 146.566406 162.105469 146.59375 162.160156 146.621094 C 169.089844 150.351562 176.925781 152.605469 185.242188 152.96875 L 185.242188 235.773438 C 181.230469 235.972656 177.335938 236.621094 173.652344 237.765625 C 173.617188 237.777344 173.582031 237.789062 173.546875 237.800781 C 166.714844 239.945312 160.582031 243.636719 155.476562 248.417969 L 127.25 229.320312 C 138.550781 219.441406 145.710938 204.945312 145.710938 188.796875 C 145.710938 159.109375 121.546875 134.957031 91.851562 134.957031 C 62.15625 134.957031 37.996094 159.113281 37.996094 188.796875 C 37.996094 209.226562 49.433594 227.027344 66.242188 236.148438 C 66.292969 236.175781 66.335938 236.203125 66.390625 236.226562 C 73.976562 240.3125 82.644531 242.636719 91.851562 242.636719 C 101.058594 242.636719 109.726562 240.3125 117.3125 236.226562 C 117.367188 236.203125 117.410156 236.175781 117.460938 236.148438 C 119.511719 235.035156 121.476562 233.78125 123.359375 232.421875 L 152.125 251.886719 C 150.207031 254.089844 148.496094 256.472656 147.007812 259.007812 C 146.867188 259.1875 146.738281 259.375 146.65625 259.589844 C 142.773438 266.433594 140.523438 274.316406 140.523438 282.726562 C 140.523438 291.140625 142.773438 299.023438 146.652344 305.863281 C 146.738281 306.085938 146.871094 306.277344 147.015625 306.460938 C 152.890625 316.464844 162.320312 324.148438 173.59375 327.667969 C 173.648438 327.683594 173.703125 327.699219 173.757812 327.710938 C 178.140625 329.0625 182.792969 329.800781 187.613281 329.800781 C 192.433594 329.800781 197.085938 329.066406 201.46875 327.710938 C 201.527344 327.699219 201.578125 327.683594 201.632812 327.667969 C 212.894531 324.148438 222.3125 316.484375 228.191406 306.496094 C 228.351562 306.300781 228.488281 306.09375 228.582031 305.855469 C 232.460938 299.015625 234.707031 291.132812 234.707031 282.726562 C 234.707031 274.320312 232.460938 266.4375 228.582031 259.597656 C 228.492188 259.363281 228.355469 259.164062 228.203125 258.976562 C 226.71875 256.453125 225.019531 254.082031 223.105469 251.886719 L 251.875 232.425781 C 253.753906 233.789062 255.71875 235.039062 257.773438 236.152344 C 257.824219 236.179688 257.867188 236.203125 257.917969 236.226562 C 265.503906 240.3125 274.175781 242.636719 283.382812 242.636719 C 292.585938 242.636719 301.257812 240.3125 308.84375 236.226562 C 308.894531 236.207031 308.941406 236.179688 308.992188 236.152344 C 325.808594 227.027344 337.246094 209.222656 337.246094 188.796875 Z M 42.746094 188.796875 C 42.746094 161.730469 64.773438 139.707031 91.855469 139.707031 C 118.933594 139.707031 140.960938 161.726562 140.960938 188.796875 C 140.960938 206.023438 132.023438 221.175781 118.554688 229.9375 C 117.882812 220.871094 115.179688 199.128906 104.582031 189.15625 C 109.191406 185.433594 112.148438 179.75 112.148438 173.378906 C 112.148438 162.195312 103.042969 153.097656 91.855469 153.097656 C 80.667969 153.097656 71.5625 162.195312 71.5625 173.378906 C 71.5625 179.746094 74.519531 185.433594 79.125 189.15625 C 68.527344 199.125 65.828125 220.871094 65.152344 229.9375 C 51.683594 221.175781 42.746094 206.023438 42.746094 188.796875 Z M 76.3125 173.382812 C 76.3125 164.816406 83.285156 157.847656 91.855469 157.847656 C 100.421875 157.847656 107.394531 164.816406 107.394531 173.382812 C 107.394531 181.949219 100.421875 188.917969 91.855469 188.917969 C 83.285156 188.917969 76.3125 181.949219 76.3125 173.382812 Z M 69.75 232.574219 C 70.109375 226.082031 72.214844 200.695312 83.34375 191.773438 C 85.933594 192.976562 88.8125 193.667969 91.855469 193.667969 C 94.894531 193.667969 97.773438 192.976562 100.363281 191.773438 C 111.492188 200.695312 113.597656 226.082031 113.957031 232.574219 C 107.304688 235.945312 99.808594 237.886719 91.855469 237.886719 C 83.898438 237.886719 76.402344 235.945312 69.75 232.574219 Z M 224.957031 302.648438 L 212.128906 302.648438 C 213.523438 296.804688 214.300781 290.957031 214.464844 285.101562 L 229.839844 285.101562 C 229.488281 291.414062 227.789062 297.367188 224.957031 302.648438 Z M 189.996094 324.929688 L 189.996094 307.394531 L 205.894531 307.394531 C 204.230469 312.734375 202.039062 318.0625 199.292969 323.378906 C 196.3125 324.234375 193.203125 324.753906 189.996094 324.929688 Z M 175.949219 323.378906 C 173.203125 318.0625 171.011719 312.734375 169.347656 307.398438 L 185.246094 307.398438 L 185.246094 324.933594 C 182.039062 324.753906 178.929688 324.234375 175.949219 323.378906 Z M 145.402344 285.101562 L 160.777344 285.101562 C 160.945312 290.953125 161.722656 296.804688 163.113281 302.648438 L 150.285156 302.648438 C 147.453125 297.367188 145.753906 291.414062 145.402344 285.101562 Z M 150.28125 262.804688 L 163.117188 262.804688 C 161.722656 268.652344 160.945312 274.5 160.777344 280.355469 L 145.402344 280.355469 C 145.753906 274.042969 147.453125 268.085938 150.28125 262.804688 Z M 169.4375 244.5625 C 167.375 249.054688 165.71875 253.554688 164.390625 258.058594 L 153.285156 258.058594 C 157.433594 252.304688 162.980469 247.648438 169.4375 244.5625 Z M 185.246094 240.519531 L 185.246094 258.058594 L 169.351562 258.058594 C 171.015625 252.71875 173.210938 247.390625 175.953125 242.074219 C 178.929688 241.21875 182.039062 240.699219 185.246094 240.519531 Z M 199.289062 242.074219 C 202.03125 247.390625 204.226562 252.722656 205.890625 258.058594 L 189.996094 258.058594 L 189.996094 240.519531 C 193.203125 240.699219 196.3125 241.21875 199.289062 242.074219 Z M 189.996094 262.804688 L 207.234375 262.804688 C 208.703125 268.648438 209.503906 274.5 209.679688 280.355469 L 189.996094 280.355469 Z M 185.246094 280.355469 L 165.558594 280.355469 C 165.734375 274.5 166.539062 268.652344 168.007812 262.804688 L 185.246094 262.804688 Z M 165.558594 285.101562 L 185.246094 285.101562 L 185.246094 302.648438 L 168.007812 302.648438 C 166.539062 296.804688 165.734375 290.953125 165.558594 285.101562 Z M 189.996094 302.648438 L 189.996094 285.101562 L 209.683594 285.101562 C 209.507812 290.953125 208.707031 296.804688 207.238281 302.648438 Z M 214.464844 280.355469 C 214.296875 274.5 213.519531 268.652344 212.125 262.804688 L 224.957031 262.804688 C 227.789062 268.085938 229.488281 274.039062 229.839844 280.355469 Z M 210.855469 258.058594 C 209.523438 253.550781 207.867188 249.054688 205.804688 244.5625 C 212.261719 247.648438 217.808594 252.304688 221.957031 258.058594 Z M 165.515625 142.964844 C 165.875 136.472656 167.96875 111.09375 179.113281 102.167969 C 181.703125 103.371094 184.582031 104.0625 187.621094 104.0625 C 190.660156 104.0625 193.539062 103.371094 196.128906 102.167969 C 207.261719 111.085938 209.367188 136.46875 209.726562 142.964844 C 203.074219 146.335938 195.578125 148.277344 187.621094 148.277344 C 179.664062 148.28125 172.167969 146.335938 165.515625 142.964844 Z M 187.621094 99.3125 C 179.050781 99.3125 172.078125 92.34375 172.078125 83.777344 C 172.078125 75.210938 179.050781 68.238281 187.621094 68.238281 C 196.191406 68.238281 203.164062 75.210938 203.164062 83.777344 C 203.164062 92.34375 196.191406 99.3125 187.621094 99.3125 Z M 138.511719 99.191406 C 138.511719 72.121094 160.542969 50.101562 187.621094 50.101562 C 214.699219 50.101562 236.730469 72.121094 236.730469 99.191406 C 236.730469 116.414062 227.789062 131.570312 214.324219 140.332031 C 213.648438 131.261719 210.949219 109.519531 200.351562 99.550781 C 204.957031 95.828125 207.914062 90.144531 207.914062 83.773438 C 207.914062 72.589844 198.808594 63.488281 187.621094 63.488281 C 176.433594 63.488281 167.328125 72.589844 167.328125 83.773438 C 167.328125 90.140625 170.285156 95.828125 174.890625 99.550781 C 164.292969 109.519531 161.589844 131.261719 160.917969 140.332031 C 147.453125 131.570312 138.511719 116.414062 138.511719 99.191406 Z M 153.285156 307.398438 L 164.382812 307.398438 C 165.714844 311.902344 167.371094 316.402344 169.4375 320.890625 C 162.980469 317.804688 157.433594 313.148438 153.285156 307.398438 Z M 205.808594 320.890625 C 207.871094 316.398438 209.527344 311.902344 210.859375 307.394531 L 221.957031 307.394531 C 217.808594 313.148438 212.261719 317.804688 205.808594 320.890625 Z M 234.28125 188.796875 C 234.28125 161.730469 256.308594 139.707031 283.386719 139.707031 C 310.46875 139.707031 332.496094 161.730469 332.496094 188.796875 C 332.496094 206.023438 323.554688 221.175781 310.089844 229.9375 C 309.414062 220.871094 306.714844 199.125 296.117188 189.15625 C 300.726562 185.433594 303.679688 179.75 303.679688 173.378906 C 303.679688 162.195312 294.578125 153.097656 283.386719 153.097656 C 272.199219 153.097656 263.097656 162.195312 263.097656 173.378906 C 263.097656 179.746094 266.054688 185.433594 270.660156 189.15625 C 260.0625 199.128906 257.363281 220.871094 256.6875 229.9375 C 243.222656 221.175781 234.28125 206.023438 234.28125 188.796875 Z M 267.847656 173.382812 C 267.847656 164.816406 274.820312 157.847656 283.386719 157.847656 C 291.957031 157.847656 298.929688 164.816406 298.929688 173.382812 C 298.929688 181.949219 291.957031 188.917969 283.386719 188.917969 C 274.820312 188.917969 267.847656 181.949219 267.847656 173.382812 Z M 261.285156 232.574219 C 261.640625 226.082031 263.734375 200.703125 274.878906 191.773438 C 277.46875 192.976562 280.347656 193.667969 283.386719 193.667969 C 286.429688 193.667969 289.304688 192.976562 291.898438 191.773438 C 303.027344 200.695312 305.132812 226.082031 305.492188 232.574219 C 298.839844 235.945312 291.34375 237.886719 283.386719 237.886719 C 275.433594 237.886719 267.9375 235.945312 261.285156 232.574219 Z M 261.285156 232.574219 " fill-opacity="1" fill-rule="nonzero"/></g><g clip-path="url(#9fd367f613)"><g clip-path="url(#2bb4145a55)"><path fill="#061a37" d="M 134.148438 230.792969 L 240.851562 230.792969 L 240.851562 337.5 L 134.148438 337.5 Z M 134.148438 230.792969 " fill-opacity="1" fill-rule="nonzero"/></g></g><g clip-path="url(#feb5a19ff0)"><path fill="#63b0dd" d="M 187.398438 221.945312 C 157.988281 221.945312 134.148438 245.785156 134.148438 275.195312 C 134.148438 304.605469 157.988281 328.445312 187.398438 328.445312 C 216.808594 328.445312 240.648438 304.605469 240.648438 275.195312 C 240.648438 245.785156 216.808594 221.945312 187.398438 221.945312 Z M 208.140625 264.753906 C 208.4375 265.097656 208.886719 265.253906 209.488281 265.21875 C 210.964844 265.128906 212.09375 264.667969 212.746094 263.882812 C 213.015625 263.554688 213.199219 263.179688 213.285156 262.773438 C 213.59375 263.5 213.914062 263.910156 214.496094 263.910156 C 214.691406 263.910156 215.1875 263.910156 216.144531 262.863281 C 216.582031 263.949219 217.351562 265.152344 218.644531 265.222656 C 219.644531 265.277344 220.851562 265.265625 221.648438 265.246094 L 221.648438 267.519531 C 219.4375 267.734375 217.003906 267.792969 216.464844 267.523438 C 214.871094 266.726562 213.132812 267.78125 213.128906 267.789062 C 212.339844 268.175781 210.4375 268.867188 209.585938 268.535156 C 209.425781 268.472656 209.339844 268.386719 209.28125 268.234375 C 209.117188 267.816406 208.980469 267.402344 208.855469 267.011719 C 208.40625 265.648438 207.859375 263.988281 206.328125 263.988281 C 206.136719 263.988281 205.929688 264.011719 205.707031 264.070312 C 205.289062 264.171875 204.476562 264.257812 203.613281 264.34375 C 202.972656 264.410156 202.367188 264.476562 201.800781 264.550781 C 202.078125 264.378906 202.367188 264.164062 202.664062 263.902344 C 204.597656 262.1875 206.621094 261.035156 207.558594 261.097656 C 207.75 261.109375 207.824219 261.167969 207.871094 261.226562 C 208.152344 261.554688 208.074219 262.089844 207.933594 262.8125 C 207.804688 263.464844 207.660156 264.203125 208.140625 264.753906 Z M 208.449219 249.667969 C 209.035156 249.710938 209.597656 249.625 210.078125 249.289062 C 210.714844 248.839844 211.058594 248.078125 211.128906 246.949219 C 211.273438 244.667969 211.59375 243.359375 211.828125 242.695312 C 212.011719 243.367188 212.195312 244.398438 212.300781 245.398438 C 212.34375 245.832031 212.6875 246.179688 213.117188 246.148438 C 213.117188 246.148438 213.183594 246.152344 213.214844 246.1875 C 213.265625 246.253906 213.3125 246.449219 213.269531 246.792969 C 213.082031 248.296875 211.816406 251.070312 210.5 251.070312 C 209.910156 251.070312 209.367188 250.542969 208.839844 250.035156 C 208.714844 249.910156 208.585938 249.785156 208.449219 249.667969 Z M 184.230469 225.382812 C 184.554688 225.363281 184.875 225.34375 185.195312 225.328125 C 184.472656 225.757812 183.789062 226.195312 183.179688 226.632812 C 183.613281 226.152344 183.960938 225.746094 184.230469 225.382812 Z M 237.136719 271.082031 C 237.179688 271.601562 237.226562 272.125 237.253906 272.648438 C 237.160156 272.601562 237.058594 272.554688 236.941406 272.511719 C 236.496094 272.355469 235.910156 272.1875 235.277344 272.007812 C 234.429688 271.765625 232.851562 271.316406 232.078125 270.914062 C 233.066406 270.769531 235.125 270.828125 237.136719 271.082031 Z M 228.589844 279.957031 C 233.058594 279.320312 235.621094 278.398438 236.207031 277.222656 C 236.339844 276.957031 236.644531 276.59375 236.941406 276.238281 C 237.0625 276.089844 237.183594 275.941406 237.304688 275.792969 C 236.980469 303.042969 214.722656 325.117188 187.398438 325.117188 C 160.59375 325.117188 138.664062 303.882812 137.53125 277.351562 C 138.21875 277.511719 138.988281 277.449219 139.785156 277.382812 C 140.988281 277.285156 142.347656 277.171875 143.960938 277.648438 C 147.0625 278.566406 147.160156 279.007812 147.390625 280.078125 C 147.535156 280.753906 147.734375 281.679688 148.484375 282.882812 C 149.148438 283.945312 150.132812 284.613281 151.328125 284.816406 C 151.605469 284.863281 151.886719 284.886719 152.167969 284.886719 C 154.332031 284.886719 156.457031 283.601562 157.097656 283.089844 C 157.65625 282.644531 157.625 282.167969 157.558594 281.921875 C 157.34375 281.152344 156.496094 281.039062 155.210938 280.875 C 154.757812 280.816406 154.226562 280.746094 153.796875 280.636719 C 154.175781 280.28125 154.617188 279.804688 154.617188 279.132812 C 154.617188 278.226562 153.957031 277.800781 153.425781 277.460938 C 152.992188 277.179688 152.5 276.859375 152.09375 276.210938 C 151.796875 275.734375 151.847656 275.628906 152.070312 275.175781 C 152.296875 274.699219 152.644531 273.984375 152.398438 272.878906 C 152.261719 272.253906 151.875 272.011719 151.65625 271.925781 C 150.957031 271.636719 150.273438 272.082031 149.484375 272.597656 C 148.921875 272.964844 148.070312 273.511719 147.660156 273.390625 C 147.429688 273.316406 147.25 272.953125 147.164062 272.742188 C 146.90625 272.117188 147.058594 271.773438 147.191406 271.570312 C 147.984375 270.390625 151.097656 269.898438 152.585938 269.898438 C 152.894531 269.898438 153.574219 270.460938 154.066406 270.871094 C 155.070312 271.707031 156.320312 272.75 157.671875 272.242188 C 158.730469 271.84375 159.507812 270.203125 160.898438 267.097656 C 161.953125 264.75 163.144531 262.085938 164.359375 260.875 C 165.898438 259.332031 167.492188 259.441406 169.027344 259.546875 C 169.773438 259.597656 170.480469 259.648438 171.140625 259.5 C 171.699219 259.375 172.378906 259.15625 172.699219 258.53125 C 173.078125 257.792969 172.75 257.023438 172.253906 255.859375 C 172.167969 255.65625 172.074219 255.4375 171.976562 255.203125 C 172.339844 255.246094 172.75 255.226562 173.195312 255.09375 C 173.261719 255.074219 173.300781 255.070312 173.304688 255.066406 C 173.425781 255.167969 173.605469 255.636719 173.714844 255.917969 C 174.113281 256.945312 174.761719 258.671875 177.003906 258.519531 C 177.867188 258.460938 178.488281 258.164062 178.855469 257.636719 C 179.527344 256.664062 179.121094 255.320312 178.609375 253.621094 C 178.28125 252.53125 177.90625 251.292969 177.777344 250.015625 C 177.625 248.480469 177.152344 247.5 176.335938 247.011719 C 175.25 246.359375 174.035156 246.867188 173.308594 247.167969 C 173.304688 247.167969 173.300781 247.167969 173.300781 247.171875 C 173.175781 246.90625 173.023438 246.496094 172.902344 246.171875 C 172.46875 245.007812 171.980469 243.6875 171.0625 242.996094 C 170.726562 242.742188 170.328125 242.648438 169.9375 242.730469 C 169.042969 242.917969 168.476562 243.949219 167.820312 245.144531 C 167.480469 245.761719 166.769531 247.054688 166.429688 247.121094 C 164.804688 246.578125 163.839844 248.085938 163.347656 248.929688 C 163.097656 248.605469 162.914062 248.183594 162.800781 246.828125 C 162.722656 245.894531 166.042969 243.710938 167.828125 242.539062 C 169.792969 241.25 171.484375 240.132812 172.070312 239.15625 C 172.308594 238.761719 172.753906 238.023438 172.253906 237.433594 C 171.761719 236.851562 171.078125 237.121094 170.285156 237.429688 C 169.714844 237.65625 168.875 237.984375 168.257812 237.929688 C 168.359375 237.601562 168.695312 237.0625 168.816406 236.863281 C 169.046875 236.496094 169.429688 235.882812 168.878906 235.390625 C 168.328125 234.894531 167.734375 235.355469 167.449219 235.578125 C 166.109375 236.632812 162.703125 237.898438 161.574219 237.898438 C 161.371094 237.898438 161.242188 237.890625 161.160156 237.882812 C 161.121094 237.679688 161.09375 237.292969 161.066406 236.917969 C 161.050781 236.667969 161.03125 236.386719 161.003906 236.066406 C 160.945312 235.351562 160.621094 234.746094 160.0625 234.308594 C 159.855469 234.144531 159.617188 234.015625 159.367188 233.90625 C 161 232.796875 162.703125 231.789062 164.460938 230.875 C 165.085938 231.492188 166.671875 232.40625 171.1875 233.355469 C 172.40625 233.613281 173.238281 233.996094 173.90625 234.304688 C 174.515625 234.585938 175.058594 234.800781 175.5625 234.800781 C 176.3125 234.800781 176.984375 234.332031 177.695312 232.914062 C 178.132812 232.035156 179.339844 230.695312 180.59375 229.367188 C 180.503906 229.628906 180.476562 229.886719 180.53125 230.128906 C 180.769531 231.195312 181.242188 232.128906 181.625 232.878906 C 181.773438 233.171875 181.964844 233.542969 182.054688 233.785156 C 181.953125 233.851562 181.824219 233.933594 181.71875 234 C 181.03125 234.429688 180.085938 235.019531 179.914062 236.089844 C 179.804688 236.789062 180.066406 237.519531 180.691406 238.265625 C 181.777344 239.558594 181.480469 240.496094 181.109375 241.679688 C 180.914062 242.304688 180.710938 242.945312 180.710938 243.660156 C 180.710938 244.007812 180.660156 244.574219 180.605469 245.171875 C 180.339844 248.03125 180.246094 250.113281 181.410156 250.886719 C 181.609375 251.019531 181.890625 251.136719 182.253906 251.136719 C 182.554688 251.136719 182.914062 251.054688 183.332031 250.832031 C 184.6875 250.109375 185.089844 249.347656 185.554688 248.464844 C 186.132812 247.375 186.917969 245.886719 190.074219 243.160156 C 195.683594 238.320312 199.945312 229.199219 200.140625 226.925781 C 208.019531 229.007812 215.140625 232.96875 220.992188 238.300781 C 220.296875 239.527344 219.378906 240.640625 218.636719 240.503906 C 218.363281 240.457031 218.355469 240.453125 218.320312 239.722656 C 218.269531 238.660156 218.1875 236.878906 215.253906 236.300781 C 211.066406 235.480469 205.121094 237.375 203.730469 241.054688 C 202.773438 243.589844 202.679688 246.070312 203.484375 247.527344 C 203.90625 248.285156 204.546875 248.765625 205.34375 248.925781 C 205.683594 248.992188 206.046875 249.101562 206.429688 249.214844 C 206.195312 249.355469 205.984375 249.570312 205.800781 249.863281 C 204.121094 252.554688 202.117188 254.652344 201.515625 254.664062 C 200.46875 254.664062 199.632812 255.589844 199.277344 257.144531 C 199.136719 257.761719 199.050781 258.492188 199.234375 259.023438 C 199.222656 259.035156 199.214844 259.046875 199.207031 259.054688 C 198.566406 258.726562 197.550781 258.347656 196.734375 258.667969 C 196.222656 258.863281 195.863281 259.296875 195.714844 259.882812 C 195.351562 261.339844 195.683594 263.335938 196.460938 264.328125 C 196.964844 264.972656 197.53125 265.109375 197.917969 265.109375 C 198.140625 265.109375 198.363281 265.132812 198.59375 265.15625 C 198.675781 265.167969 198.761719 265.175781 198.851562 265.183594 C 198.164062 265.445312 197.667969 265.785156 197.398438 266.257812 L 197.039062 266.894531 C 196.394531 268.046875 195.726562 269.234375 195.003906 269.8125 L 194.851562 269.933594 C 193.855469 270.726562 192.351562 271.921875 191.714844 274.667969 C 191.039062 277.605469 192.515625 283.929688 196.324219 284.863281 C 198.804688 285.46875 201.847656 285.207031 204.066406 285.011719 C 204.820312 284.945312 205.46875 284.890625 205.914062 284.886719 C 206.804688 284.886719 207.242188 285.34375 207.476562 287.902344 C 207.597656 289.242188 208.15625 290.078125 208.648438 290.816406 C 209.066406 291.441406 209.398438 291.9375 209.472656 292.703125 C 209.554688 293.519531 209.488281 294.078125 209.402344 294.789062 C 209.292969 295.695312 209.15625 296.820312 209.269531 298.851562 C 209.316406 299.679688 209.296875 300.578125 209.277344 301.53125 C 209.207031 304.667969 209.125 308.21875 211.769531 309.351562 C 212.164062 309.519531 212.496094 309.691406 212.796875 309.847656 C 213.558594 310.238281 214.175781 310.488281 214.78125 310.488281 C 216.097656 310.488281 217.359375 309.3125 219.949219 305.894531 C 224.578125 299.800781 225.527344 296.839844 226.289062 293.609375 C 227.074219 290.28125 229.46875 287.28125 231.359375 285.90625 C 233.242188 284.539062 234.582031 282.394531 234.230469 281.316406 C 234.089844 280.886719 233.714844 280.609375 233.265625 280.609375 C 233.175781 280.609375 232.996094 280.628906 232.742188 280.65625 C 231.417969 280.8125 227.386719 281.289062 226.234375 278.785156 C 226.148438 278.597656 226.058594 278.410156 225.96875 278.21875 C 226.792969 279.359375 227.648438 280.089844 228.589844 279.957031 Z M 228.589844 279.957031 " fill-opacity="1" fill-rule="nonzero"/></g><path fill="#63b0dd" d="M 182.578125 288.828125 C 180.40625 288.1875 178.1875 286.574219 176.226562 285.148438 C 175.277344 284.460938 174.382812 283.8125 173.578125 283.335938 C 171.328125 282.007812 167.710938 281.378906 166.863281 281.242188 C 166.25 280.859375 165.671875 280.429688 165.113281 280.015625 C 163.855469 279.085938 162.859375 278.351562 161.871094 278.351562 C 161.402344 278.351562 160.742188 278.523438 160.257812 279.335938 C 159.324219 280.910156 158.332031 282.464844 156.484375 284.234375 C 156.074219 284.625 155.492188 285.003906 154.929688 285.371094 C 153.660156 286.199219 152.347656 287.058594 152.199219 288.472656 C 152.101562 289.414062 152.558594 290.375 153.59375 291.410156 C 154.738281 292.554688 156.085938 293.277344 157.390625 293.980469 C 159.941406 295.347656 162.140625 296.53125 162.75 300.527344 C 163.878906 307.984375 168.675781 315.132812 170.6875 317.863281 C 172.160156 319.855469 173.730469 320.957031 175.109375 320.957031 C 175.695312 320.957031 176.226562 320.75 176.605469 320.378906 C 176.976562 320.011719 177.183594 319.511719 177.183594 318.964844 C 177.183594 318.5625 177.21875 318.140625 177.261719 317.695312 C 177.355469 316.640625 177.464844 315.441406 177.167969 313.828125 C 176.773438 311.644531 176.792969 310.605469 177.242188 309.851562 C 177.320312 309.722656 177.496094 309.667969 177.851562 309.59375 C 178.25 309.503906 178.796875 309.386719 179.097656 308.867188 C 179.308594 308.507812 179.332031 308.074219 179.171875 307.542969 C 179.074219 307.226562 178.953125 306.925781 178.835938 306.636719 C 178.449219 305.691406 178.253906 305.214844 179.007812 304.339844 C 180.429688 302.679688 182.734375 298.925781 183.164062 296.140625 C 183.269531 295.449219 183.617188 294.683594 183.953125 293.945312 C 184.511719 292.710938 185.089844 291.433594 184.574219 290.304688 C 184.257812 289.613281 183.605469 289.128906 182.578125 288.828125 Z M 182.578125 288.828125 " fill-opacity="1" fill-rule="nonzero"/><path fill="#63b0dd" d="M 178.277344 234.929688 C 178.058594 234.542969 177.578125 234.390625 177.175781 234.589844 C 177.09375 234.632812 175.121094 235.644531 175.121094 237.730469 C 175.121094 238.148438 174.515625 238.902344 174.074219 239.453125 C 173.300781 240.421875 172.128906 241.882812 173.421875 242.960938 C 173.738281 243.222656 174.171875 243.363281 174.675781 243.363281 C 175.90625 243.363281 177.648438 242.515625 178.601562 240.902344 C 179.304688 239.707031 179.816406 237.703125 178.277344 234.929688 Z M 178.277344 234.929688 " fill-opacity="1" fill-rule="nonzero"/><path fill="#63b0dd" d="M 194.097656 249.453125 C 197.359375 247.820312 196.96875 242.679688 196.949219 242.460938 C 196.929688 242.21875 196.804688 241.996094 196.605469 241.855469 C 196.410156 241.714844 196.160156 241.667969 195.921875 241.722656 C 195.195312 241.902344 191.507812 242.898438 190.585938 244.742188 C 190.042969 245.824219 189.914062 247.632812 190.632812 248.796875 C 191.0625 249.488281 191.738281 249.871094 192.535156 249.871094 C 193.019531 249.871094 193.542969 249.730469 194.097656 249.453125 Z M 194.097656 249.453125 " fill-opacity="1" fill-rule="nonzero"/></svg>