<svg xmlns="http://www.w3.org/2000/svg" xmlns:xlink="http://www.w3.org/1999/xlink" width="500" zoomAndPan="magnify" viewBox="0 0 375 374.999991" height="500" preserveAspectRatio="xMidYMid meet" version="1.0"><rect x="-37.5" width="450" fill="#ffffff" y="-37.499999" height="449.999989" fill-opacity="1"/><rect x="-37.5" width="450" fill="#ffffff" y="-37.499999" height="449.999989" fill-opacity="1"/><rect x="-37.5" width="450" fill="#061a37" y="-37.499999" height="449.999989" fill-opacity="1"/><path fill="#63b0dd" d="M 277.46875 131.507812 C 272.277344 42.515625 188.304688 41.386719 187.402344 41.386719 C 186.5 41.386719 102.527344 42.515625 97.335938 131.507812 C 96.886719 134.898438 94.402344 159.96875 124.199219 206.046875 C 124.199219 206.273438 135.484375 224.792969 135.484375 242.414062 L 135.484375 242.863281 C 135.484375 243.992188 138.417969 271.777344 158.960938 271.777344 L 216.070312 271.777344 C 236.386719 271.777344 239.320312 243.992188 239.320312 242.863281 L 239.320312 242.414062 C 239.320312 224.792969 250.382812 206.273438 250.382812 206.273438 C 280.402344 159.96875 277.917969 134.898438 277.46875 131.507812 Z M 242.933594 201.304688 C 242.480469 202.207031 230.515625 222.082031 230.292969 242.1875 C 230.292969 244.21875 227.808594 262.742188 215.84375 262.742188 L 158.960938 262.742188 C 147.222656 262.742188 144.738281 244.21875 144.515625 242.1875 C 144.515625 222.082031 132.550781 202.207031 131.875 201.304688 C 102.527344 156.128906 106.140625 133.089844 106.367188 132.863281 L 106.367188 132.1875 C 110.882812 51.550781 184.242188 50.421875 187.402344 50.421875 C 190.5625 50.421875 263.925781 51.550781 268.4375 132.1875 L 268.4375 132.863281 C 268.664062 133.089844 272.277344 156.128906 242.933594 201.304688 Z M 242.933594 201.304688 " fill-opacity="1" fill-rule="nonzero"/><path fill="#63b0dd" d="M 187.402344 330.503906 C 187.855469 330.503906 188.078125 330.503906 188.53125 330.503906 C 188.984375 330.503906 189.207031 330.503906 189.660156 330.503906 C 206.363281 329.375 208.621094 316.949219 208.621094 316.949219 L 168.441406 316.949219 C 168.441406 316.949219 170.699219 329.375 187.402344 330.503906 Z M 187.402344 330.503906 " fill-opacity="1" fill-rule="nonzero"/><path fill="#63b0dd" d="M 218.328125 280.8125 L 156.476562 280.8125 C 153.996094 280.8125 151.964844 282.84375 151.964844 285.328125 C 151.964844 287.8125 153.996094 289.847656 156.476562 289.847656 L 218.328125 289.847656 C 220.808594 289.847656 222.84375 287.8125 222.84375 285.328125 C 222.84375 282.84375 220.808594 280.8125 218.328125 280.8125 Z M 218.328125 280.8125 " fill-opacity="1" fill-rule="nonzero"/><path fill="#63b0dd" d="M 213.585938 298.882812 L 161.21875 298.882812 C 158.734375 298.882812 156.703125 300.914062 156.703125 303.398438 C 156.703125 305.882812 158.734375 307.914062 161.21875 307.914062 L 213.585938 307.914062 C 216.070312 307.914062 218.101562 305.882812 218.101562 303.398438 C 218.101562 300.914062 216.070312 298.882812 213.585938 298.882812 Z M 213.585938 298.882812 " fill-opacity="1" fill-rule="nonzero"/><path fill="#63b0dd" d="M 230.96875 122.925781 C 229.839844 123.378906 216.523438 130.605469 203.203125 150.707031 C 197.335938 159.515625 192.59375 170.585938 189.433594 179.167969 L 189.433594 111.40625 L 197.558594 111.40625 L 187.175781 93.335938 L 176.792969 111.40625 L 184.917969 111.40625 L 184.917969 179.167969 C 181.757812 170.585938 177.019531 159.515625 171.148438 150.707031 C 159.636719 133.316406 148.125 125.636719 144.515625 123.601562 L 149.027344 116.375 L 128.261719 115.699219 L 137.96875 133.992188 L 142.03125 127.441406 C 144.964844 129.25 156.253906 136.476562 167.3125 153.417969 C 177.019531 168.101562 184.015625 190.234375 184.917969 193.171875 L 184.917969 194.980469 L 189.433594 194.980469 L 189.433594 192.945312 C 190.335938 190.011719 197.335938 167.875 207.042969 153.191406 C 219.90625 133.765625 233 126.992188 233.226562 126.765625 L 232.546875 126.085938 L 236.613281 133.992188 L 247.671875 116.375 L 226.90625 115.699219 Z M 230.96875 122.925781 " fill-opacity="1" fill-rule="nonzero"/></svg>