<svg xmlns="http://www.w3.org/2000/svg" xmlns:xlink="http://www.w3.org/1999/xlink" width="500" zoomAndPan="magnify" viewBox="0 0 375 374.999991" height="500" preserveAspectRatio="xMidYMid meet" version="1.0"><defs><clipPath id="b3048d2369"><path d="M 57 152 L 148 152 L 148 309.925781 L 57 309.925781 Z M 57 152 " clip-rule="nonzero"/></clipPath><clipPath id="6ac8a69aa6"><path d="M 99 65.425781 L 284 65.425781 L 284 238 L 99 238 Z M 99 65.425781 " clip-rule="nonzero"/></clipPath></defs><rect x="-37.5" width="450" fill="#ffffff" y="-37.499999" height="449.999989" fill-opacity="1"/><rect x="-37.5" width="450" fill="#ffffff" y="-37.499999" height="449.999989" fill-opacity="1"/><rect x="-37.5" width="450" fill="#061a37" y="-37.499999" height="449.999989" fill-opacity="1"/><path fill="#63b0dd" d="M 266.335938 98.761719 C 286.050781 94.488281 302.625 85.414062 316.058594 71.453125 C 321.902344 120.230469 316.929688 164.382812 301.054688 203.910156 C 291.632812 217.695312 276.628906 226.945312 256.132812 231.742188 C 275.671875 213.941406 287.882812 188.378906 287.882812 159.84375 C 287.882812 136.71875 279.859375 115.429688 266.335938 98.761719 Z M 266.335938 98.761719 " fill-opacity="1" fill-rule="evenodd"/><g clip-path="url(#b3048d2369)"><path fill="#63b0dd" d="M 88.648438 303.90625 C 97.371094 270.050781 116.996094 251.113281 147.441406 246.925781 C 115.515625 230.957031 93.621094 197.976562 93.621094 159.84375 C 93.621094 157.398438 93.707031 154.957031 93.882812 152.511719 C 65.09375 171.796875 53.40625 194.484375 58.816406 220.660156 C 66.140625 243.609375 84.808594 253.46875 114.902344 250.242188 C 89.695312 268.128906 75.738281 287.5 72.769531 308.53125 C 78.617188 309.925781 83.9375 308.441406 88.648438 303.90625 Z M 88.648438 303.90625 " fill-opacity="1" fill-rule="evenodd"/></g><g clip-path="url(#6ac8a69aa6)"><path fill="#63b0dd" d="M 238.25 151.902344 C 237.289062 152.949219 236.679688 152.078125 235.457031 153.300781 C 235.195312 153.5625 234.148438 155.394531 234.0625 156.089844 C 233.886719 158.273438 234.410156 157.75 232.839844 159.144531 C 231.53125 160.191406 231.445312 160.105469 229.699219 160.453125 C 228.480469 160.714844 228.652344 161.851562 227.695312 162.722656 C 226.296875 164.03125 226.824219 162.375 225.863281 164.992188 C 225.253906 166.648438 224.730469 165.863281 223.769531 167.171875 C 223.421875 167.609375 223.246094 168.308594 222.984375 168.65625 C 222.808594 168.828125 222.023438 169.441406 221.9375 169.613281 L 221.585938 171.011719 C 222.632812 171.710938 222.894531 171.359375 222.375 172.929688 C 221.9375 174.238281 222.632812 174.851562 222.285156 176.070312 C 222.113281 176.507812 221.5 177.378906 221.152344 178.339844 C 220.800781 179.5625 220.453125 179.5625 219.492188 180.171875 L 220.367188 182.441406 C 220.105469 182.527344 220.625 182.441406 220.191406 182.351562 C 219.667969 182.265625 220.628906 182.351562 219.753906 182.265625 L 219.582031 183.925781 C 220.628906 184.796875 220.015625 185.234375 221.847656 184.796875 C 221.414062 185.667969 220.890625 185.40625 221.585938 186.367188 L 221.675781 186.453125 C 221.675781 186.542969 221.761719 186.542969 221.761719 186.628906 L 222.375 187.585938 C 222.984375 188.636719 223.507812 188.460938 223.332031 189.855469 C 223.246094 190.730469 223.246094 191.164062 223.769531 191.777344 C 224.730469 192.648438 224.207031 191.777344 225.078125 193.171875 C 225.515625 193.871094 225.164062 193.433594 225.6875 193.871094 L 226.296875 194.570312 C 226.910156 195.527344 228.042969 196.3125 228.914062 197.1875 C 232.753906 195.964844 232.929688 195.964844 236.066406 197.535156 C 236.855469 197.1875 236.679688 197.097656 237.8125 197.011719 C 237.902344 197.011719 237.988281 197.011719 238.074219 197.011719 C 239.820312 196.839844 240.429688 196.140625 241.5625 196.054688 C 245.316406 195.878906 244.964844 197.101562 244.964844 199.542969 L 245.578125 199.457031 C 246.535156 199.457031 246.363281 199.457031 247.058594 199.542969 L 248.195312 199.628906 C 248.980469 201.289062 249.066406 201.375 247.582031 203.46875 C 247.496094 203.558594 247.410156 203.644531 247.320312 203.820312 C 246.710938 204.953125 246.796875 204.953125 245.75 206.261719 L 245.316406 206.785156 C 245.316406 208.09375 245.402344 209.753906 245.925781 210.625 L 245.054688 215.949219 C 244.53125 217.167969 244.53125 216.46875 244.09375 217.257812 C 243.484375 218.476562 243.832031 219.175781 242.960938 220.136719 C 242.261719 220.832031 241.390625 221.183594 240.605469 222.140625 C 239.382812 222.230469 239.992188 223.363281 238.421875 224.324219 C 237.289062 225.023438 237.988281 224.585938 237.375 225.457031 C 236.855469 226.246094 236.503906 226.070312 236.066406 226.679688 C 235.71875 227.203125 235.71875 228.078125 235.546875 229.035156 C 242.609375 228.425781 249.675781 227.378906 256.480469 225.632812 C 258.226562 223.800781 259.96875 221.882812 261.628906 219.960938 C 262.585938 218.128906 262.9375 218.300781 263.285156 217.429688 C 263.894531 215.949219 265.117188 214.636719 266.164062 213.417969 C 266.597656 212.894531 267.121094 212.457031 267.296875 212.105469 L 267.734375 211.496094 C 271.660156 205.5625 274.972656 199.105469 277.417969 192.300781 C 277.503906 192.125 277.503906 191.863281 277.589844 191.515625 C 277.589844 190.816406 277.765625 190.03125 277.675781 189.246094 C 277.417969 185.144531 277.9375 186.976562 278.027344 184.96875 C 278.113281 181.304688 278.199219 182.179688 278.550781 178.773438 L 278.375 171.792969 C 278.113281 169.089844 278.289062 169.4375 277.765625 166.472656 L 277.765625 165.421875 C 277.765625 165.074219 277.851562 165.074219 277.851562 165.074219 C 278.203125 165.597656 278.027344 166.035156 278.113281 166.730469 C 278.464844 169.351562 278.984375 166.820312 279.421875 169.089844 C 279.511719 169.699219 279.511719 170.484375 279.511719 171.007812 C 279.597656 175.371094 280.296875 175.71875 279.773438 178.25 C 279.25 180.34375 280.121094 180.171875 279.074219 185.40625 C 278.984375 185.929688 278.726562 187.675781 278.464844 189.332031 C 281.515625 180.082031 283.175781 170.136719 283.175781 159.839844 C 283.175781 152.074219 282.214844 144.570312 280.46875 137.414062 C 277.417969 125.023438 272.007812 113.59375 264.59375 103.644531 C 263.375 103.382812 263.984375 103.382812 263.199219 102.597656 C 263.371094 103.820312 263.894531 103.46875 264.417969 104.429688 C 263.546875 104.167969 263.371094 104.167969 262.9375 103.46875 C 262.5 102.773438 261.628906 101.203125 261.105469 100.851562 C 260.40625 100.242188 260.667969 100.679688 260.058594 99.894531 C 261.191406 100.152344 262.066406 101.203125 262.585938 101.289062 C 262.585938 101.203125 262.585938 101.113281 262.675781 101.113281 C 261.367188 99.457031 260.058594 97.886719 258.664062 96.402344 C 258.050781 95.964844 257.09375 95.269531 256.480469 95.007812 C 254.386719 93.871094 256.480469 93.785156 253.777344 93.699219 C 253.339844 92.300781 253.953125 92.738281 252.554688 92.039062 C 251.335938 91.429688 251.859375 91.953125 250.726562 91.515625 C 251.074219 92.5625 250.988281 91.777344 251.335938 92.652344 C 250.199219 92.390625 251.160156 91.429688 249.851562 91.253906 C 250.113281 91.867188 250.113281 91.867188 250.289062 92.652344 C 248.285156 91.867188 249.332031 91.953125 249.59375 93.4375 C 249.242188 93.175781 249.242188 93 248.542969 93 C 248.371094 94.136719 248.542969 94.484375 248.632812 95.179688 C 248.71875 95.792969 248.195312 95.441406 248.632812 96.578125 C 249.070312 97.972656 248.195312 96.839844 248.71875 98.671875 L 249.070312 100.855469 C 249.070312 100.941406 248.980469 101.113281 248.980469 101.203125 L 248.023438 103.644531 C 248.023438 103.644531 247.761719 103.90625 247.671875 103.90625 C 247.238281 104.167969 247.0625 103.90625 246.976562 103.90625 C 247.238281 104.605469 246.976562 103.996094 247.496094 104.605469 C 246.101562 104.695312 246.539062 105.390625 246.449219 105.742188 C 246.449219 105.742188 245.753906 106.265625 246.625 107.574219 C 246.972656 108.097656 246.886719 108.097656 247.496094 108.007812 C 246.972656 108.796875 247.058594 107.660156 247.148438 108.96875 C 247.585938 108.96875 247.410156 109.058594 247.757812 108.882812 L 248.367188 108.53125 C 247.84375 109.492188 247.582031 109.753906 247.582031 110.539062 C 248.453125 110.453125 247.84375 110.539062 248.453125 110.367188 C 248.367188 111.5 248.019531 111.414062 249.066406 112.371094 C 251.332031 114.292969 251.855469 112.113281 252.46875 110.800781 L 256.21875 116.738281 C 255.609375 117.695312 256.046875 117.171875 255.609375 117.257812 C 255.347656 117.257812 255.871094 116.996094 255 117.433594 C 255.085938 118.132812 255.433594 118.480469 255.957031 119.003906 C 255.519531 119.265625 255.695312 118.742188 255.519531 119.265625 C 256.042969 119.789062 255.695312 119.789062 256.566406 119.4375 L 256.566406 117.519531 C 257.441406 118.742188 256.566406 118.65625 258.136719 118.566406 L 258.136719 117.519531 C 258.488281 117.519531 259.882812 118.128906 259.183594 115.863281 C 259.011719 115.074219 258.574219 114.117188 258.226562 113.417969 C 258.664062 112.980469 258.921875 112.980469 259.097656 112.28125 C 259.621094 109.925781 257.089844 111.234375 255.78125 106.347656 C 255.261719 104.429688 257.265625 104.867188 256.566406 103.207031 C 256.21875 102.335938 256.566406 103.207031 256.132812 102.511719 C 255.78125 101.898438 255.609375 101.464844 255.695312 100.851562 C 256.566406 100.679688 257.175781 101.113281 257.613281 101.636719 C 258.398438 102.683594 258.136719 104.082031 257.789062 104.867188 C 257.4375 105.914062 258.484375 107.136719 259.53125 108.878906 C 259.707031 109.230469 260.839844 111.585938 262.410156 111.324219 L 264.589844 110.714844 C 264.851562 111.238281 264.941406 111.5 265.726562 111.671875 L 265.464844 112.109375 L 265.203125 112.722656 C 263.722656 112.632812 264.855469 111.847656 263.371094 112.460938 C 262.5 112.808594 263.546875 112.546875 262.585938 112.894531 C 261.976562 113.070312 262.761719 112.460938 261.886719 112.984375 C 262.324219 113.945312 262.238281 113.332031 262.761719 113.59375 C 263.109375 113.769531 264.765625 115.253906 264.679688 116.648438 C 263.542969 116.5625 263.980469 115.6875 263.023438 115.339844 C 261.886719 116.996094 263.457031 118.394531 264.070312 120.050781 C 263.371094 120.488281 263.632812 119.964844 263.195312 120.3125 C 262.585938 120.835938 263.984375 120.402344 262.761719 121.011719 C 261.800781 120.402344 262.761719 120.664062 261.886719 120.050781 C 260.929688 120.050781 259.882812 120.664062 259.273438 121.359375 C 258.574219 121.011719 258.136719 120.488281 257.351562 120.140625 L 256.042969 120.75 C 255.433594 119.441406 254.210938 119.441406 254.039062 118.132812 C 254.472656 118.480469 254.5625 118.65625 255.085938 118.917969 C 255.171875 117.609375 254.910156 118.21875 254.125 117.4375 C 254.386719 116.648438 254.125 117.085938 254.734375 116.5625 L 254.210938 115.867188 C 253.953125 115.34375 254.210938 115.953125 254.039062 115.253906 C 253.863281 114.644531 253.863281 114.46875 253.601562 113.859375 C 252.46875 114.382812 253.515625 114.554688 252.03125 114.816406 L 252.03125 115.429688 C 252.382812 115.339844 252.382812 115.167969 252.816406 115.339844 L 252.03125 115.863281 C 252.121094 117 252.644531 117.609375 253.167969 118.65625 L 253.515625 119.527344 C 253.691406 120.050781 253.863281 120.226562 253.691406 120.75 C 253.429688 120.835938 253.429688 120.660156 252.90625 120.660156 L 252.382812 120.75 C 249.066406 121.535156 251.074219 122.230469 249.589844 123.804688 C 249.066406 124.328125 248.632812 124.503906 247.671875 124.589844 L 247.585938 125.984375 C 246.363281 126.507812 246.1875 127.035156 245.839844 127.121094 C 244.183594 126.773438 245.839844 126.335938 243.921875 126.335938 C 244.269531 126.945312 244.53125 127.207031 244.617188 128.082031 C 243.046875 127.90625 243.570312 127.820312 242.875 127.558594 C 242.351562 127.382812 241.476562 127.558594 240.691406 127.644531 C 241.390625 129.652344 241.214844 129.042969 243.136719 129.738281 C 244.96875 130.4375 243.308594 131.222656 245.402344 132.097656 C 245.839844 133.839844 245.578125 135.152344 245.492188 137.070312 C 243.222656 137.15625 240.867188 136.199219 239.386719 136.023438 C 237.640625 135.847656 238.515625 135.0625 237.117188 135.585938 L 235.636719 136.109375 C 235.636719 136.28125 236.769531 137.941406 236.246094 140.734375 C 236.160156 141.433594 236.160156 141.867188 235.722656 142.042969 C 234.9375 143.875 235.808594 143.699219 236.070312 144.574219 C 236.160156 145.183594 235.898438 145.96875 235.808594 146.40625 C 235.984375 146.40625 236.945312 146.667969 237.03125 146.667969 C 237.992188 146.839844 237.902344 146.578125 238.425781 146.753906 C 239.386719 147.015625 239.125 147.976562 239.824219 148.671875 C 240.433594 149.023438 240.609375 148.585938 241.65625 148.148438 C 243.574219 147.453125 243.835938 149.109375 245.230469 147.714844 C 246.015625 147.015625 245.582031 147.453125 246.101562 147.101562 C 246.453125 146.839844 246.539062 146.578125 246.886719 146.230469 C 247.148438 145.882812 247.324219 145.792969 247.675781 145.445312 C 247.238281 144.746094 246.800781 144.222656 247.414062 143.4375 L 248.632812 141.605469 C 249.769531 141.433594 249.679688 141.78125 250.550781 140.996094 C 251.949219 139.6875 249.765625 138.8125 251.339844 138.203125 C 252.558594 137.679688 253.605469 139.074219 254.304688 138.988281 L 256.222656 137.769531 C 256.746094 137.246094 255.785156 137.769531 256.746094 137.070312 C 258.226562 137.59375 258.492188 138.988281 259.015625 140.035156 C 259.535156 141.257812 259.449219 140.734375 260.234375 141.519531 C 260.757812 142.128906 260.671875 142.65625 261.371094 143.089844 C 262.15625 143.613281 261.628906 142.917969 262.765625 144.136719 L 263.984375 145.621094 C 265.816406 147.976562 264.160156 148.148438 264.773438 149.199219 C 265.292969 148.847656 265.207031 148.675781 265.46875 148.148438 C 265.46875 148.148438 265.46875 148.0625 265.46875 147.976562 L 265.90625 147.191406 C 265.382812 146.320312 265.207031 146.578125 265.46875 145.269531 C 266.515625 145.621094 265.90625 146.058594 266.953125 146.40625 C 267.300781 145.535156 266.429688 144.835938 265.992188 144.398438 C 265.121094 143.613281 264.335938 143.699219 264.683594 142.652344 C 262.417969 142.214844 262.503906 140.472656 262.066406 139.6875 C 261.019531 137.941406 260.671875 138.902344 260.324219 137.242188 L 260.148438 135.933594 C 261.109375 135.585938 260.148438 135.761719 261.195312 135.671875 L 261.71875 137.15625 C 262.328125 136.894531 261.628906 137.15625 262.328125 136.28125 L 263.199219 138.550781 C 263.722656 139.511719 264.246094 139.6875 264.945312 140.382812 C 265.292969 140.734375 265.121094 140.558594 265.46875 140.996094 C 266.167969 141.867188 267.386719 141.953125 267.5625 143.4375 C 267.738281 144.398438 267.390625 144.660156 267.648438 145.617188 C 267.824219 146.140625 268.261719 146.40625 268.523438 146.929688 C 268.957031 147.976562 268.695312 148.757812 270.003906 149.371094 C 269.566406 149.980469 269.394531 150.070312 269.917969 151.464844 C 270.355469 152.253906 270.964844 152.511719 271.488281 152.6875 C 271.574219 152.25 271.488281 150.769531 271.050781 150.242188 L 270.960938 150.15625 C 270.875 150.070312 270.875 150.070312 270.789062 150.070312 C 270.789062 149.980469 270.703125 149.980469 270.703125 149.894531 C 270.441406 149.632812 270.527344 149.894531 270.441406 149.546875 C 271.050781 149.632812 271.488281 150.070312 271.835938 150.765625 C 272.96875 149.546875 271.660156 148.847656 271.398438 148.585938 C 270.527344 147.625 271.574219 148.847656 271.050781 147.625 C 270.703125 146.753906 270.441406 147.1875 270.527344 146.230469 C 271.226562 146.667969 270.703125 146.667969 271.574219 146.929688 C 272.359375 145.878906 270.789062 146.230469 272.011719 145.53125 C 272.621094 145.183594 272.796875 145.792969 273.667969 146.230469 C 274.191406 145.96875 274.976562 145.007812 275.414062 145.96875 C 275.761719 147.015625 274.277344 146.578125 273.320312 146.492188 L 273.757812 148.238281 C 274.191406 149.195312 274.191406 149.371094 273.667969 150.070312 C 274.191406 150.679688 274.191406 150.242188 274.453125 151.027344 C 274.453125 151.203125 274.714844 152.511719 274.714844 152.773438 C 276.808594 153.644531 274.890625 153.472656 276.546875 154.082031 C 276.808594 153.644531 276.546875 153.558594 276.984375 152.949219 C 277.332031 153.121094 277.246094 153.035156 277.421875 153.121094 L 278.207031 154.519531 C 278.207031 154.429688 278.292969 154.519531 278.292969 154.605469 C 279.6875 153.734375 277.769531 153.382812 280.039062 153.644531 C 279.601562 155.476562 279.949219 156.785156 279.6875 158.792969 C 279.515625 159.578125 279.425781 160.363281 279.339844 161.0625 C 279.078125 162.285156 279.078125 162.285156 278.292969 162.632812 C 276.898438 162.195312 278.292969 162.546875 277.683594 162.023438 C 277.59375 161.933594 277.59375 161.671875 277.070312 161.761719 C 276.285156 162.023438 276.8125 162.285156 275.851562 162.808594 C 274.714844 162.109375 275.328125 161.9375 274.195312 161.410156 C 273.496094 160.976562 274.105469 161.761719 272.710938 160.539062 C 272.011719 159.929688 272.101562 160.367188 271.492188 159.578125 C 270.96875 158.792969 271.925781 159.578125 271.054688 158.882812 C 270.792969 158.707031 270.617188 158.621094 270.269531 158.621094 C 269.570312 158.53125 269.046875 158.882812 268.699219 159.230469 C 268 160.976562 269.308594 160.886719 267.828125 162.285156 C 266.605469 162.023438 267.214844 161.324219 265.558594 160.714844 C 263.988281 160.015625 264.335938 160.015625 264.25 158.445312 C 263.464844 158.097656 263.988281 158.273438 263.464844 158.007812 C 261.457031 156.875 262.328125 157.746094 261.371094 157.3125 C 260.933594 157.050781 260.671875 156.523438 259.539062 155.742188 C 257.96875 154.605469 259.367188 154.519531 259.886719 153.382812 C 260.238281 152.425781 259.800781 152.425781 259.277344 151.640625 L 259.976562 150.332031 C 259.191406 149.894531 259.886719 150.589844 259.277344 150.15625 C 258.929688 149.808594 259.277344 149.980469 258.753906 149.457031 C 257.445312 149.457031 257.96875 149.808594 257.011719 149.71875 C 256.398438 149.71875 256.3125 149.457031 255.179688 149.457031 C 254.394531 149.371094 253.871094 149.632812 253.347656 149.457031 C 251.777344 149.109375 249.769531 148.757812 247.765625 149.546875 C 243.75 151.292969 245.582031 151.292969 243.402344 150.59375 C 242.792969 150.417969 242.617188 150.417969 242.09375 150.332031 C 240.261719 150.15625 241.132812 149.632812 240.261719 148.933594 L 239.652344 149.632812 C 239.476562 149.894531 239.476562 150.070312 239.304688 150.417969 C 238.945312 151.03125 238.683594 151.292969 238.25 151.902344 Z M 218.273438 80.527344 L 217.136719 79.566406 C 217.140625 79.652344 216.003906 80.527344 218.273438 80.527344 Z M 235.632812 110.71875 L 235.980469 111.328125 C 236.679688 110.980469 236.242188 111.328125 236.765625 110.804688 L 236.765625 110.019531 Z M 259.96875 115.515625 C 260.230469 116.386719 260.230469 116.125 260.839844 116.300781 L 260.492188 114.554688 C 259.96875 114.730469 259.792969 114.644531 259.96875 115.515625 Z M 215.65625 84.191406 C 215.65625 83.667969 216.355469 82.792969 213.648438 82.707031 C 213.910156 83.582031 214.695312 83.929688 215.65625 84.191406 Z M 145.871094 164.121094 C 146.394531 164.730469 147.179688 164.730469 147.964844 164.46875 C 148.488281 164.292969 148.226562 164.292969 148.402344 164.121094 C 147.792969 163.507812 146.917969 163.421875 146.484375 163.597656 C 145.261719 164.03125 146.308594 163.683594 145.871094 164.121094 Z M 256.828125 140.210938 C 256.917969 141.257812 256.828125 141.957031 257.613281 142.390625 C 257.964844 142.042969 257.964844 142.042969 257.964844 141.171875 L 257.875 140.125 C 257.703125 139.773438 257.703125 139.863281 257.613281 139.6875 C 257.175781 140.210938 257.613281 139.949219 256.828125 140.210938 Z M 131.304688 162.546875 C 132.089844 162.636719 132.875 162.808594 133.398438 162.546875 L 132.265625 161.5 C 131.742188 161.238281 130.957031 161.328125 130.257812 161.238281 C 130.695312 162.199219 130.167969 161.238281 130.78125 161.847656 C 130.957031 162.023438 131.128906 162.285156 131.304688 162.546875 Z M 163.578125 115.605469 L 164.625 115.167969 C 164.105469 114.207031 162.359375 113.597656 161.3125 113.507812 C 161.835938 114.292969 161.3125 113.335938 162.007812 114.121094 Z M 188.089844 83.84375 C 186.957031 83.40625 187.304688 82.707031 185.5625 82.882812 C 184.953125 84.714844 186.171875 84.800781 188.003906 84.453125 L 188.089844 83.84375 L 189.660156 83.84375 C 189.574219 84.015625 189.226562 84.714844 189.136719 84.800781 L 188.617188 85.324219 L 188.527344 85.414062 C 188.179688 85.761719 187.917969 86.460938 188.089844 87.070312 C 187.570312 86.722656 187.570312 86.808594 187.042969 86.546875 C 187.917969 85.847656 187.480469 86.636719 187.828125 85.761719 L 186.433594 85.761719 C 186.261719 86.371094 186.78125 85.847656 184.6875 87.332031 C 184.863281 88.464844 184.425781 87.769531 185.125 88.292969 C 184.777344 88.554688 184.425781 88.464844 184.253906 89.078125 C 184.777344 90.125 185.039062 90.910156 184.953125 92.480469 C 185.300781 92.308594 185.910156 91.871094 186.78125 92.308594 C 185.472656 93.003906 185.472656 92.21875 185.125 93.878906 C 185.996094 94.835938 185.734375 93.789062 185.996094 94.925781 L 186.519531 96.671875 C 186.519531 96.757812 186.609375 96.757812 186.609375 96.84375 L 186.871094 97.191406 C 187.480469 98.152344 187.480469 97.890625 187.566406 99.113281 C 188.527344 99.023438 188.089844 98.851562 188.875 98.9375 C 189.574219 98.9375 189.3125 98.9375 190.359375 98.9375 C 190.707031 99.898438 191.144531 99.8125 191.316406 100.859375 C 192.800781 100.683594 191.929688 100.683594 193.585938 100.769531 C 193.847656 99.722656 193.933594 100.335938 194.71875 98.9375 C 195.15625 98.152344 195.15625 97.457031 194.894531 96.582031 L 196.289062 96.671875 L 196.726562 95.882812 C 196.902344 95.710938 197.25 95.535156 197.597656 95.1875 C 197.425781 94.226562 197.6875 95.011719 196.988281 94.3125 C 197.859375 93.789062 197.773438 94.835938 197.597656 93.179688 C 199.691406 93.789062 197.597656 92.042969 200.476562 92.65625 C 200.914062 92.046875 200.476562 92.046875 201.347656 91.609375 L 200.738281 92.917969 C 203.179688 92.046875 204.488281 92.480469 205.535156 90.910156 C 206.144531 90.125 205.535156 90.5625 206.40625 90.125 C 208.152344 89.253906 206.496094 90.210938 207.105469 88.988281 C 207.976562 89.511719 207.628906 90.125 209.285156 89.777344 C 212.511719 88.902344 212.25 90.125 214.082031 88.726562 C 214.695312 88.292969 215.390625 88.207031 216.261719 87.855469 L 213.996094 86.984375 C 212.601562 86.546875 211.988281 87.246094 211.117188 86.984375 C 211.726562 86.636719 212.6875 86.546875 213.296875 86.023438 C 212.859375 85.675781 212.859375 85.761719 212.078125 85.851562 L 211.03125 85.851562 C 210.941406 85.851562 210.855469 85.851562 210.855469 85.851562 L 211.554688 85.761719 C 211.992188 85.675781 212.25 85.675781 212.601562 85.589844 C 212.601562 84.542969 212.164062 85.5 212.511719 84.714844 L 213.386719 85.328125 C 214.082031 85.765625 213.820312 85.5 214.34375 86.199219 C 215.042969 87.070312 215.914062 87.070312 216.960938 87.160156 C 216.699219 86.460938 216.351562 85.414062 215.742188 84.890625 C 215.652344 84.804688 215.652344 84.804688 215.566406 84.714844 C 213.472656 82.882812 214.347656 85.238281 212.777344 82.011719 L 213.472656 81.660156 C 214.433594 82.183594 214.957031 83.058594 216.527344 82.273438 C 216.089844 81.136719 215.828125 82.011719 215.21875 81.050781 C 216.089844 81.402344 215.917969 81.402344 217.136719 81.226562 L 216.613281 80.613281 L 216.527344 80.527344 C 216.089844 80.089844 216.179688 80.089844 215.742188 79.742188 L 216.265625 79.742188 C 216.265625 79.652344 216.351562 79.652344 216.4375 79.652344 L 216.527344 79.652344 C 215.480469 77.125 215.128906 78.78125 213.648438 77.210938 L 215.65625 77.296875 C 216.175781 77.210938 215.828125 77.386719 216.089844 77.210938 C 215.480469 75.988281 214.433594 76.773438 214.519531 76.074219 C 214.519531 75.988281 214.609375 75.8125 214.609375 75.726562 C 214.085938 75.550781 213.910156 75.550781 213.300781 75.898438 C 213.386719 75.203125 213.386719 74.941406 213.125 74.503906 C 214.433594 73.804688 213.039062 74.941406 214.171875 72.933594 C 214.085938 72.933594 213.386719 72.933594 213.386719 72.933594 L 214.257812 72.671875 C 214 72.148438 214.519531 72.671875 214 72.324219 C 214 72.324219 213.910156 72.234375 213.824219 72.234375 L 214.871094 71.886719 C 214.871094 70.75 213.824219 70.664062 212.777344 70.75 C 210.421875 70.839844 211.554688 70.925781 210.507812 71.449219 L 210.683594 70.050781 C 209.289062 69.878906 209.898438 70.050781 208.9375 70.402344 L 208.851562 69.792969 C 207.980469 69.792969 206.234375 70.050781 205.710938 69.617188 C 206.582031 69.09375 208.9375 70.140625 210.160156 69.441406 C 208.675781 69.09375 208.9375 69.179688 207.804688 68.570312 C 206.667969 67.960938 204.402344 67.523438 203.007812 67.871094 C 202.484375 67.960938 201.4375 67.699219 199.34375 67.871094 C 199.605469 68.132812 199.777344 68.222656 199.953125 68.660156 C 199.167969 68.222656 198.992188 67.871094 197.859375 67.785156 L 197.597656 68.484375 C 196.027344 67 194.542969 67.960938 192.277344 67.613281 L 193.324219 67.261719 C 192.539062 66.214844 192.710938 66.390625 189.398438 66.042969 C 188.785156 65.953125 188.875 65.953125 188.351562 65.953125 C 187.914062 65.953125 188.261719 65.953125 187.914062 65.953125 C 186.34375 65.691406 180.324219 65.429688 179.015625 66.566406 C 178.316406 67.261719 179.363281 67.175781 177.535156 67.875 C 177.796875 67.261719 177.882812 67.351562 178.320312 66.738281 C 178.40625 66.738281 178.582031 66.566406 178.667969 66.390625 C 177.796875 65.867188 175.789062 66.476562 174.832031 66.828125 L 171.601562 68.570312 L 171.515625 68.921875 C 172.039062 69.007812 172.648438 69.09375 172.910156 69.09375 C 173.871094 68.921875 172.390625 68.570312 177.097656 68.484375 C 176.660156 69.621094 176.835938 68.746094 175.265625 68.832031 C 173.523438 68.921875 174.046875 69.09375 173.261719 69.96875 C 173.171875 69.96875 173.171875 69.882812 173.171875 69.882812 C 172.824219 70.578125 172.910156 69.792969 172.910156 69.707031 C 172.5625 69.621094 173.433594 69.445312 172.300781 69.621094 C 171.515625 69.707031 171.953125 69.707031 171.777344 69.792969 L 171.429688 70.140625 C 170.558594 70.664062 169.773438 70.316406 168.8125 70.316406 C 168.984375 70.925781 168.898438 70.402344 169.335938 71.277344 C 170.121094 71.015625 169.773438 71.277344 170.992188 71.277344 C 171.601562 71.363281 172.128906 71.363281 172.910156 71.277344 L 172.910156 72.0625 C 173.609375 71.972656 175.527344 71.972656 175.789062 71.363281 L 175.878906 71.101562 C 175.964844 71.101562 175.964844 71.015625 175.964844 71.015625 C 175.964844 70.925781 175.964844 70.839844 176.050781 70.839844 C 176.402344 70.753906 176.574219 70.839844 176.75 70.753906 L 177.273438 70.578125 C 179.019531 69.96875 177.796875 70.492188 178.929688 70.40625 C 179.804688 70.316406 178.84375 70.492188 179.542969 70.230469 C 181.722656 69.53125 180.851562 70.230469 180.9375 68.75 C 182.683594 69.96875 187.917969 67.613281 192.277344 67.613281 C 191.929688 68.921875 191.492188 68.050781 189.921875 68.136719 C 189.136719 68.222656 188.003906 68.484375 187.390625 68.660156 C 187.128906 69.269531 187.390625 68.746094 187.742188 69.707031 L 181.113281 70.316406 C 181.808594 72.414062 182.59375 71.191406 183.988281 71.625 C 183.03125 72.238281 180.5 71.625 180.238281 71.625 C 180.414062 72.324219 180.152344 71.714844 180.585938 72.148438 C 180.585938 72.238281 180.847656 72.324219 181.109375 72.585938 C 180.152344 73.109375 180.5 72.324219 180.5 73.371094 L 184.335938 73.546875 C 185.644531 73.546875 187.128906 74.679688 187.214844 75.203125 C 187.304688 75.292969 187.304688 75.292969 187.304688 75.378906 L 187.566406 76.511719 C 187.828125 80.613281 186.605469 79.652344 185.820312 80.699219 C 187.128906 81.660156 187.214844 81.222656 188.261719 80.789062 C 188.523438 80.960938 188.4375 80.351562 188.523438 81.398438 C 188.785156 82.621094 189.308594 82.097656 189.484375 82.882812 C 188.175781 83.144531 189.136719 82.96875 188.699219 82.707031 C 188.523438 82.621094 188 81.921875 186.429688 82.273438 C 186.871094 83.492188 187.566406 82.53125 188.089844 83.84375 Z M 264.242188 151.378906 C 264.15625 150.246094 263.894531 149.808594 264.332031 148.851562 C 263.546875 148.675781 263.371094 148.851562 262.761719 148.761719 C 262.238281 148.675781 262.675781 148.589844 261.890625 148.414062 C 261.539062 148.585938 261.453125 148.675781 261.28125 149.023438 C 261.628906 149.632812 263.109375 151.03125 264.242188 151.378906 Z M 256.566406 143.265625 L 257.003906 146.667969 C 257.789062 146.667969 257.613281 146.492188 258.484375 146.230469 C 258.484375 143.875 258.835938 143.699219 257.875 142.566406 Z M 142.207031 161.066406 C 141.074219 160.890625 141.507812 160.628906 139.765625 160.542969 C 138.628906 160.453125 138.804688 160.191406 137.496094 160.105469 C 138.457031 161.675781 137.757812 160.019531 138.457031 162.285156 C 137.234375 162.285156 136.363281 161.589844 135.578125 161.9375 C 135.75 162.285156 136.015625 162.546875 136.277344 162.898438 C 137.148438 162.722656 137.148438 162.546875 138.28125 162.722656 C 139.941406 162.984375 138.890625 163.160156 139.851562 163.769531 C 141.074219 163.507812 140.113281 163.507812 140.8125 163.332031 C 142.207031 162.898438 143.601562 163.507812 144.386719 162.984375 C 144.039062 162.199219 143.863281 162.546875 143.167969 162.023438 Z M 164.976562 71.625 L 164.714844 71.976562 C 164.015625 72.847656 164.191406 72.324219 164.105469 72.933594 L 170.382812 73.894531 L 172.214844 73.023438 C 171.605469 71.277344 170.035156 72.847656 167.417969 71.714844 C 167.417969 71.714844 167.332031 71.625 167.246094 71.625 C 167.59375 71.015625 167.246094 71.539062 167.769531 71.191406 L 168.378906 70.492188 L 167.855469 70.230469 C 166.71875 69.53125 167.679688 69.707031 166.71875 69.707031 C 166.460938 69.792969 165.933594 69.707031 165.761719 70.144531 C 165.5 70.84375 165.933594 70.230469 166.285156 71.191406 C 165.671875 71.453125 165.324219 71.625 164.976562 71.625 Z M 228.042969 75.816406 L 229.089844 76.335938 C 230.050781 77.035156 230.574219 78.257812 232.316406 77.648438 C 232.839844 78.695312 231.445312 77.996094 232.753906 78.695312 C 233.714844 79.128906 233.191406 78.78125 233.800781 79.480469 L 236.417969 81.050781 C 235.894531 79.480469 235.71875 80.003906 235.109375 79.21875 C 234.9375 79.042969 234.761719 78.695312 234.585938 78.347656 C 237.640625 79.742188 235.199219 79.65625 237.554688 80.179688 C 237.726562 79.042969 236.507812 78.957031 235.460938 78.433594 C 234.671875 78.082031 235.109375 78.605469 234.847656 77.734375 C 234.152344 77.996094 234.675781 77.910156 234.5 77.996094 L 234.152344 78.257812 L 234.0625 78.257812 C 233.714844 77.648438 234.5 77.386719 232.144531 76.6875 C 232.492188 76.425781 231.183594 76.335938 232.84375 76.597656 C 233.628906 76.6875 232.667969 76.859375 233.800781 76.949219 L 233.800781 76.859375 C 232.582031 76.25 231.359375 75.550781 230.050781 74.941406 C 229.875 75.117188 229.789062 75.289062 229.613281 75.640625 Z M 135.839844 158.796875 C 135.667969 158.359375 135.230469 158.359375 133.832031 157.398438 C 132.175781 156.179688 132.785156 156.265625 131.828125 155.917969 C 130.605469 154.695312 131.21875 155.394531 130.34375 154.871094 C 129.296875 154.171875 130.78125 154.519531 129.035156 153.824219 C 127.207031 153.035156 123.800781 152.253906 123.453125 154.871094 C 124.9375 155.132812 125.546875 153.386719 126.941406 154.082031 C 127.203125 155.132812 126.769531 153.035156 126.855469 154.519531 C 126.855469 155.042969 127.378906 155.132812 127.988281 155.394531 C 128.078125 155.394531 128.164062 155.480469 128.164062 155.480469 L 129.035156 155.917969 C 129.820312 156.265625 129.820312 156.089844 130.691406 156.179688 C 130.953125 158.011719 131.214844 157.488281 132.4375 158.097656 C 132 159.234375 132 158.1875 131.566406 159.234375 C 132.4375 159.496094 133.3125 159.40625 134.09375 159.667969 C 134.445312 159.757812 134.617188 160.191406 136.101562 159.582031 L 136.449219 159.496094 C 136.1875 158.796875 136.449219 159.144531 135.839844 158.796875 Z M 238.773438 119.53125 L 238.25 118.746094 C 238.164062 118.65625 237.988281 118.222656 237.902344 118.132812 C 238.421875 117.871094 238.773438 117.960938 238.773438 117.261719 C 238.773438 115.515625 235.71875 115.515625 235.632812 115.515625 L 235.109375 115.605469 C 235.023438 117.175781 235.632812 115.867188 235.199219 116.738281 C 234.847656 117.261719 234.410156 116.828125 234.0625 116.738281 C 232.667969 116.476562 234.0625 116.300781 233.539062 118.398438 L 234.675781 118.832031 C 232.929688 121.363281 233.628906 122.148438 236.679688 121.363281 C 239.121094 120.75 237.898438 121.800781 238.773438 119.53125 Z M 172.476562 112.550781 C 171.78125 113.421875 170.210938 114.644531 169.6875 115.339844 C 168.816406 116.476562 169.773438 115.691406 168.464844 116.476562 C 167.855469 116.824219 167.246094 117.347656 167.070312 118.132812 C 168.464844 119.09375 171.257812 118.394531 172.128906 119.09375 C 172.480469 119.355469 172.21875 119.269531 172.480469 119.53125 L 171.257812 120.054688 C 172.21875 121.101562 172.738281 119.441406 174.3125 119.179688 C 174.3125 119.703125 174.050781 119.878906 173.875 120.578125 C 174.222656 120.75 173.699219 120.578125 174.222656 120.578125 C 175.183594 120.664062 173.960938 120.925781 175.359375 121.1875 L 176.316406 119.441406 C 175.792969 119.269531 176.230469 119.179688 175.707031 119.53125 C 175.882812 119.007812 175.882812 119.355469 176.054688 118.570312 L 174.835938 119.355469 C 175.621094 117.699219 175.535156 118.746094 176.054688 117.875 C 175.445312 117.613281 175.96875 118.046875 175.097656 117.613281 C 175.359375 117.175781 175.621094 117.261719 175.792969 117 C 176.144531 116.476562 176.054688 116.566406 175.445312 116.304688 C 174.3125 115.78125 173.789062 116.128906 173.265625 116.652344 C 173.179688 116.476562 173.089844 116.128906 173.003906 116.042969 L 172.917969 115.78125 C 172.828125 115.519531 172.917969 115.257812 172.65625 114.996094 C 172.042969 114.472656 172.566406 115.515625 171.695312 114.996094 C 172.132812 114.382812 172.480469 114.472656 173.964844 112.550781 L 172.476562 112.550781 L 173.613281 112.113281 C 174.921875 111.503906 173.613281 112.027344 174.484375 110.105469 C 174.746094 109.496094 174.570312 109.671875 174.65625 108.972656 C 172.914062 108.359375 173.699219 108.621094 172.828125 108.101562 C 172.390625 107.839844 172.738281 107.925781 172.214844 107.839844 C 171.167969 107.664062 170.472656 108.273438 169.511719 108.273438 C 172.128906 107.054688 172.300781 107.75 173 107.226562 C 172.5625 106.878906 172.039062 106.703125 171.519531 106.355469 C 169.25 104.957031 170.558594 106.527344 169.25 104.609375 C 168.378906 103.476562 168.027344 103.738281 169.074219 102.691406 C 169.511719 102.167969 169.074219 102.777344 169.425781 102.339844 C 168.203125 100.160156 169.511719 103.300781 168.726562 99.898438 C 168.464844 98.9375 168.378906 97.367188 167.769531 96.582031 C 166.980469 97.105469 166.546875 97.714844 165.585938 98.5 C 164.628906 99.375 165.414062 98.9375 164.453125 99.113281 C 164.105469 99.199219 163.40625 99.375 162.882812 99.546875 C 162.011719 98.414062 162.796875 97.800781 160.789062 98.238281 C 160.960938 97.542969 160.875 98.414062 161.574219 97.191406 L 162.445312 95.621094 C 162.882812 94.921875 162.707031 95.535156 163.058594 94.75 C 162.96875 94.660156 161.660156 94.226562 161.136719 94.050781 L 160.003906 91.695312 C 156.777344 92.304688 156.949219 90.472656 155.117188 91.433594 C 154.683594 92.570312 155.378906 92.042969 154.507812 93.003906 C 153.460938 94.050781 154.070312 93.089844 153.546875 94.574219 C 153.113281 95.972656 152.152344 95.972656 151.105469 96.753906 C 151.277344 97.714844 151.976562 97.714844 151.804688 99.199219 C 151.542969 101.378906 148.664062 102.6875 146.21875 102.949219 C 146.132812 104.085938 145.785156 107.050781 144.738281 107.664062 L 142.90625 108.535156 C 142.382812 107.75 141.597656 106.265625 142.121094 105.046875 L 143.867188 102.078125 C 142.820312 101.46875 142.644531 101.46875 141.160156 101.378906 C 140.027344 99.199219 140.898438 100.855469 139.851562 99.808594 C 139.15625 99.113281 139.679688 98.589844 138.542969 98.0625 C 137.671875 97.191406 137.847656 97.367188 136.539062 97.628906 C 138.109375 94.136719 137.410156 95.269531 137.148438 94.574219 C 136.800781 93.789062 137.933594 92.742188 138.457031 92.304688 L 138.980469 91.957031 C 140.8125 90.734375 142.296875 89.25 144.214844 88.726562 C 144.910156 88.554688 144.5625 88.726562 145.261719 88.378906 C 145.347656 87.59375 145.261719 87.59375 144.824219 87.242188 C 145.433594 87.59375 145.261719 87.855469 146.046875 87.855469 C 147.09375 87.855469 146.480469 87.59375 147.789062 87.417969 C 149.710938 87.242188 149.535156 86.71875 150.929688 86.109375 L 150.144531 85.496094 C 151.277344 85.496094 151.191406 85.847656 152.238281 85.234375 C 153.546875 84.363281 152.5 84.277344 153.546875 84.101562 C 154.15625 84.800781 153.894531 84.800781 154.246094 85.582031 L 154.507812 85.410156 C 154.507812 85.320312 154.507812 85.410156 154.769531 85.0625 L 154.941406 84.710938 C 155.03125 84.539062 154.941406 84.972656 155.117188 84.1875 C 155.902344 84.625 155.289062 84.539062 156.164062 84.449219 C 156.511719 84.449219 158.34375 83.839844 158.78125 83.140625 C 158.867188 82.617188 158.953125 82.617188 159.128906 82.007812 L 160.699219 81.21875 C 161.136719 80.957031 160.609375 81.132812 161.136719 80.957031 C 161.046875 80.785156 160.960938 80.609375 160.875 80.523438 C 160.4375 79.648438 160.699219 79.300781 158.429688 79.5625 C 157.734375 80.699219 158.519531 80.433594 156.25 81.394531 C 155.726562 81.570312 156.25 81.394531 155.8125 81.480469 C 155.726562 81.480469 155.726562 81.480469 155.640625 81.480469 C 153.632812 81.832031 155.726562 82.179688 153.722656 82.617188 C 154.332031 80.785156 155.640625 82.09375 155.550781 79.824219 C 154.941406 80.085938 154.765625 80.523438 153.371094 80.871094 C 153.632812 80.347656 154.507812 79.824219 155.03125 79.300781 C 154.507812 78.691406 154.941406 79.214844 154.242188 78.953125 C 154.332031 78.953125 154.417969 78.867188 154.417969 78.867188 C 154.417969 78.867188 154.503906 78.777344 154.589844 78.777344 C 155.988281 78.167969 155.203125 78.339844 155.988281 77.558594 C 157.035156 76.421875 156.597656 77.382812 157.207031 75.636719 C 158.605469 75.8125 157.996094 75.636719 158.953125 75.199219 C 159.652344 74.851562 159.304688 75.199219 160.175781 74.9375 C 160.699219 74.765625 162.617188 74.066406 163.054688 73.804688 L 162.09375 73.019531 C 159.914062 73.019531 157.820312 75.113281 154.765625 76.59375 C 153.804688 77.03125 153.109375 77.382812 152.234375 77.90625 C 152.0625 79.125 153.023438 78.339844 151.539062 80.085938 C 150.753906 80.957031 150.402344 80.523438 149.359375 81.132812 C 148.574219 81.570312 148.835938 81.65625 148.050781 81.917969 C 148.136719 80.871094 148.3125 81.746094 149.359375 80.699219 L 148.660156 80.085938 C 146.652344 80.523438 147.4375 81.917969 144.5625 80.175781 C 144.996094 78.691406 144.820312 80.085938 145.347656 78.953125 C 143.863281 79.300781 143.863281 78.777344 142.902344 79.824219 C 142.902344 79.914062 142.902344 79.914062 142.816406 80 L 142.117188 80.609375 C 141.855469 80.957031 141.507812 81.132812 141.15625 81.394531 C 141.507812 80.871094 141.679688 80.699219 141.679688 79.914062 L 140.023438 80.085938 C 140.808594 78.691406 141.679688 80 141.59375 78.167969 C 134.878906 82.09375 128.597656 86.894531 123.011719 92.304688 C 122.925781 92.390625 122.839844 92.476562 122.753906 92.566406 L 122.664062 92.652344 C 122.492188 92.828125 122.316406 93 122.054688 93.261719 C 121.878906 93.4375 121.703125 93.613281 121.53125 93.785156 C 113.769531 101.640625 107.398438 110.890625 102.777344 121.183594 C 102.164062 123.890625 100.070312 129.039062 100.332031 130.257812 C 100.421875 131.046875 100.945312 131.480469 100.855469 132.875 C 100.769531 134.1875 100.59375 134.707031 100.332031 135.757812 C 99.984375 137.589844 100.421875 139.769531 100.246094 140.816406 C 99.984375 142.214844 99.984375 140.816406 99.636719 141.863281 C 99.984375 142.476562 99.984375 142.914062 100.246094 143.609375 C 101.292969 146.226562 99.808594 143.871094 100.855469 147.625 C 101.117188 148.324219 100.945312 149.371094 101.292969 149.804688 C 102.511719 148.757812 101.292969 148.148438 101.292969 146.578125 L 100.945312 138.898438 C 100.769531 137.761719 100.769531 136.105469 101.292969 135.234375 C 102.339844 135.929688 101.730469 137.414062 101.730469 139.683594 C 101.816406 141.429688 102.339844 142.910156 102.425781 144.132812 C 102.425781 145.527344 102.515625 146.488281 103.125 147.886719 C 103.824219 149.28125 103.824219 150.503906 103.910156 152.160156 C 104 153.644531 102.691406 154.605469 105.046875 157.570312 C 105.65625 158.441406 109.40625 162.195312 110.277344 162.457031 C 111.324219 162.804688 111.324219 162.195312 112.285156 161.933594 C 113.070312 162.632812 113.070312 162.371094 113.679688 163.589844 C 115.339844 166.820312 114.378906 164.988281 117.082031 166.820312 C 117.871094 167.34375 118.304688 167.867188 119.351562 167.519531 C 119.179688 168.390625 119.089844 168.042969 119.699219 168.828125 C 121.269531 170.746094 120.921875 171.355469 121.097656 172.144531 C 121.445312 173.714844 122.578125 172.664062 123.363281 174.5 C 124.238281 176.59375 124.0625 174.847656 126.59375 177.117188 C 127.113281 177.640625 126.59375 177.464844 127.378906 177.640625 L 127.902344 177.378906 C 127.726562 176.679688 127.726562 177.289062 127.550781 176.332031 C 128.773438 175.632812 127.902344 175.632812 129.121094 175.285156 C 129.90625 176.070312 129.820312 175.632812 129.90625 176.503906 L 130.519531 178.074219 C 131.652344 179.644531 130.867188 180.519531 131.214844 182.351562 C 131.390625 183.222656 131.652344 183.050781 131.128906 183.921875 C 130.257812 185.144531 130.257812 184.269531 129.820312 185.054688 C 129.558594 185.578125 129.820312 185.84375 129.296875 186.367188 C 128.949219 186.800781 128.773438 186.539062 128.425781 187.238281 C 128.25 187.675781 128.511719 187.5 128.164062 188.109375 C 127.902344 188.980469 127.292969 190.816406 128.25 191.425781 L 129.035156 191.6875 C 129.035156 191.6875 129.125 191.6875 129.210938 191.6875 C 128.949219 193.167969 128.425781 192.125 127.8125 193.34375 C 127.378906 194.042969 128.074219 194.566406 128.335938 195.175781 L 128.425781 195.613281 C 128.425781 195.960938 128.335938 195.703125 128.511719 196.050781 C 128.511719 196.050781 129.121094 196.660156 129.210938 196.75 C 130.957031 198.058594 129.210938 196.835938 131.128906 199.277344 C 131.390625 199.539062 131.476562 199.800781 131.738281 200.238281 L 135.140625 205.472656 C 136.277344 208.964844 138.109375 209.3125 141.25 211.582031 C 142.816406 212.714844 141.859375 212.804688 143.515625 213.328125 C 143.777344 215.160156 144.738281 216.207031 144.738281 219.085938 C 144.824219 220.742188 145.347656 220.832031 145.433594 221.703125 C 145.609375 223.621094 145.785156 222.75 145.785156 224.582031 C 145.695312 226.9375 146.832031 228.246094 147.441406 230.078125 C 148.835938 234.007812 147.09375 234.09375 148.574219 235.578125 C 149.1875 236.273438 149.363281 236.796875 149.621094 237.320312 C 153.375 236.273438 157.210938 235.316406 161.136719 234.53125 C 161.050781 234.355469 160.875 234.269531 160.351562 233.832031 C 160.265625 233.832031 160.265625 233.746094 160.179688 233.660156 C 161.3125 233.746094 161.050781 233.917969 161.921875 234.269531 C 162.011719 234.269531 162.097656 234.269531 162.183594 234.269531 C 162.96875 234.09375 163.753906 233.917969 164.539062 233.832031 C 165.152344 233.222656 165.585938 232.523438 165.585938 231.476562 C 166.023438 231.914062 165.9375 231.914062 166.460938 231.5625 C 167.941406 230.691406 167.070312 230.605469 167.769531 229.730469 C 168.289062 229.121094 168.726562 229.296875 168.988281 228.421875 C 169.425781 226.414062 168.027344 225.980469 170.210938 225.019531 L 171.429688 224.234375 C 174.917969 223.710938 172.476562 223.273438 174.484375 223.363281 C 175.269531 223.449219 177.011719 223.882812 177.886719 222.925781 C 178.585938 222.226562 177.539062 222.925781 178.847656 221.441406 L 180.15625 220.132812 C 180.15625 219.695312 180.066406 219.609375 180.242188 219.085938 L 180.414062 218.5625 C 180.503906 218.5625 180.503906 218.476562 180.503906 218.476562 C 181.984375 215.769531 181.289062 216.46875 181.636719 214.375 C 181.726562 213.765625 181.988281 213.238281 182.160156 212.453125 L 182.421875 212.542969 C 183.46875 212.890625 183.816406 212.28125 184.339844 211.40625 C 184.863281 210.449219 184.339844 211.058594 185.386719 210.449219 C 185.910156 210.1875 186.347656 209.925781 186.785156 209.574219 C 188.789062 208.003906 188.964844 206.347656 188.617188 203.816406 C 185.910156 202.683594 188.878906 205.214844 184.601562 201.636719 L 183.992188 201.027344 C 183.121094 200.589844 183.644531 199.976562 182.246094 199.714844 C 181.375 199.457031 180.589844 199.628906 179.71875 199.367188 C 178.847656 199.019531 178.582031 198.582031 177.625 198.582031 L 175.964844 198.84375 C 176.839844 197.097656 176.226562 197.183594 174.570312 196.488281 C 173.523438 196.050781 172.652344 195.351562 171.605469 195.265625 C 170.46875 196.136719 170.296875 197.273438 169.25 196.226562 C 170.382812 196.050781 170.90625 195.703125 170.820312 194.480469 C 169.859375 194.304688 168.898438 194.128906 168.027344 193.957031 L 167.589844 195.179688 C 166.019531 195.003906 166.371094 195.964844 165.324219 195.441406 C 165.410156 195.441406 165.496094 195.441406 165.496094 195.441406 L 166.542969 194.566406 C 167.941406 192.648438 167.589844 194.480469 169.160156 191.949219 C 168.375 190.46875 167.941406 192.300781 167.679688 188.722656 C 167.679688 188.109375 167.765625 188.371094 167.328125 187.9375 C 166.195312 186.714844 165.933594 186.363281 164.625 185.753906 C 163.578125 185.316406 164.277344 185.054688 163.144531 184.792969 L 162.269531 184.621094 C 161.3125 184.535156 161.835938 184.273438 161.050781 184.359375 L 160.960938 184.359375 C 159.566406 184.535156 160.175781 184.097656 158.957031 184.359375 C 158.867188 183.3125 158.347656 182.789062 157.210938 182.703125 C 157.472656 181.042969 156.164062 180.871094 155.203125 179.648438 L 153.109375 179.648438 C 153.722656 179.125 154.070312 179.035156 153.984375 178.078125 C 153.632812 177.902344 152.675781 177.464844 152.414062 177.378906 C 151.277344 176.941406 152.238281 177.203125 151.277344 176.679688 C 151.886719 176.507812 151.800781 176.679688 152.238281 176.332031 C 150.40625 175.109375 148.660156 176.417969 148.050781 176.417969 C 145.957031 176.417969 148.574219 175.371094 143.6875 175.457031 L 143.078125 173.714844 L 141.597656 173.625 C 141.421875 173.015625 141.597656 172.925781 141.074219 172.40625 L 140.8125 173.539062 L 139.152344 173.886719 C 138.980469 175.457031 139.765625 175.546875 139.328125 176.507812 C 138.71875 176.507812 138.71875 176.417969 138.195312 175.71875 C 138.714844 174.148438 138.980469 175.195312 138.628906 173.277344 L 138.890625 173.015625 C 138.980469 173.015625 139.066406 173.015625 139.066406 172.925781 C 139.851562 172.40625 139.589844 172.578125 139.675781 172.140625 C 138.804688 170.746094 138.105469 172.316406 137.234375 172.664062 C 136.445312 172.925781 136.359375 172.578125 135.488281 173.015625 C 135.488281 173.015625 135.398438 173.015625 135.3125 173.015625 C 134.441406 173.535156 134.789062 172.753906 134.09375 173.101562 C 133.222656 174.324219 133.917969 174.496094 133.132812 175.28125 C 132.871094 175.542969 132.085938 176.066406 131.5625 176.503906 C 130.515625 175.71875 130.515625 175.105469 129.558594 174.933594 L 128.683594 174.324219 C 125.019531 175.457031 125.546875 175.019531 124.847656 173.710938 C 124.585938 173.273438 124.0625 173.101562 123.800781 172.578125 C 123.191406 171.53125 123.710938 169.960938 123.800781 168.824219 C 123.972656 166.035156 124.0625 168.738281 124.324219 165.421875 C 123.363281 164.984375 123.625 165.25 123.1875 164.027344 L 119.175781 163.589844 C 118.214844 163.5 118.652344 163.9375 118.214844 163.152344 C 117.953125 162.542969 118.304688 163.066406 118.476562 162.628906 C 118.738281 162.019531 119.089844 160.011719 118.828125 159.226562 C 119.523438 158.875 117.953125 159.398438 119.261719 159.398438 C 119.875 159.3125 119.699219 158.527344 119.875 157.566406 C 120.308594 155.648438 121.09375 156.871094 120.832031 154.777344 C 120.046875 154.339844 118.214844 154.6875 116.996094 154.863281 C 116.472656 159.140625 115.773438 157.042969 115.511719 158.789062 C 115.425781 158.789062 115.078125 158.617188 115.078125 158.617188 C 113.507812 158.441406 112.371094 159.835938 111.238281 156.957031 C 110.539062 155.210938 110.015625 153.121094 110.277344 151.023438 C 110.367188 150.328125 110.628906 148.929688 110.800781 148.234375 C 110.890625 147.972656 110.976562 147.710938 111.0625 147.621094 C 111.324219 147.011719 111.0625 147.621094 111.324219 147.011719 C 111.585938 146.574219 111.585938 146.050781 111.585938 145.441406 C 111.675781 144.570312 111.933594 143.609375 112.371094 142.824219 C 113.242188 141.425781 113.507812 143.261719 114.203125 141.515625 C 114.640625 141.339844 114.289062 141.6875 114.902344 140.816406 C 115.6875 140.816406 115.511719 140.640625 116.210938 140.816406 C 116.734375 140.902344 116.558594 140.992188 117.167969 141.164062 C 118.128906 141.339844 118.128906 140.816406 118.390625 142.125 C 119.347656 142.125 119.175781 141.863281 119.699219 142.039062 C 120.65625 142.300781 119.175781 142.824219 120.484375 142.386719 L 120.484375 141.863281 L 120.046875 140.554688 L 122.226562 140.464844 C 124.496094 140.554688 124.058594 140.378906 124.933594 142.296875 C 126.242188 142.296875 125.457031 142.035156 126.414062 141.6875 C 126.851562 142.296875 126.589844 142.210938 126.9375 142.734375 C 127.375 143.605469 127.199219 142.996094 127.722656 143.695312 L 127.113281 145.441406 L 127.113281 145.527344 C 127.113281 145.613281 127.113281 145.613281 127.113281 145.703125 L 127.199219 145.964844 C 127.199219 146.226562 127.199219 146.398438 127.289062 146.835938 C 128.597656 152.59375 130.601562 149.714844 130.167969 146.660156 L 129.90625 144.304688 C 129.90625 143.867188 129.90625 144.132812 129.90625 143.605469 C 129.730469 142.125 129.554688 140.902344 130.339844 139.769531 L 131.214844 138.894531 C 131.300781 138.808594 131.300781 138.808594 131.386719 138.808594 L 132.085938 138.285156 C 133.480469 137.761719 135.75 135.492188 137.753906 135.316406 C 138.191406 134.621094 137.234375 135.058594 138.105469 134.707031 C 138.542969 134.445312 138.714844 134.707031 139.238281 134.097656 L 138.453125 133.574219 C 138.453125 133.574219 139.0625 133.484375 139.152344 132.789062 C 139.152344 132.089844 138.890625 132.089844 138.542969 131.652344 L 139.0625 130.519531 L 138.277344 129.558594 C 139.324219 130.167969 139.0625 128.6875 140.023438 128.335938 C 139.585938 129.644531 139.414062 129.296875 139.585938 130.082031 C 139.9375 131.652344 139.414062 130.519531 139.238281 131.742188 C 139.410156 131.652344 140.285156 130.78125 140.457031 130.519531 C 140.980469 129.910156 141.070312 129.210938 140.71875 128.339844 C 141.417969 128.601562 140.894531 128.425781 141.242188 128.6875 C 141.59375 128.949219 141.242188 128.863281 141.765625 129.035156 C 142.464844 128.511719 141.855469 128.949219 142.375 128.425781 L 142.898438 127.816406 C 143.773438 126.59375 142.988281 127.203125 143.160156 126.59375 C 143.859375 126.769531 145.605469 126.679688 146.214844 126.332031 C 145.34375 125.808594 145.34375 126.421875 144.558594 125.984375 L 149.703125 125.808594 C 148.046875 125.023438 149.003906 124.675781 149.09375 122.929688 C 150.3125 122.757812 149.355469 122.757812 150.925781 122.320312 L 152.144531 121.882812 C 152.234375 121.796875 152.234375 121.796875 152.320312 121.796875 L 152.667969 121.707031 C 152.753906 121.707031 152.84375 121.707031 152.84375 121.707031 L 158.949219 120.574219 L 159.210938 121.183594 C 158.164062 120.921875 158.164062 120.921875 157.378906 121.445312 C 156.679688 121.882812 156.332031 121.882812 155.808594 122.316406 L 156.15625 123.714844 C 157.554688 123.539062 157.554688 123.101562 158.25 122.753906 C 159.035156 122.316406 162.265625 121.96875 163.136719 121.707031 C 163.222656 121.707031 163.308594 121.617188 163.308594 121.617188 C 164.09375 121.355469 164.96875 121.53125 165.402344 120.832031 L 165.140625 119.175781 C 163.574219 119.261719 162.785156 120.832031 162.699219 120.921875 L 161.128906 120.570312 C 160.519531 120.398438 160.257812 120.136719 159.820312 119.785156 C 158.511719 118.476562 159.472656 117.429688 159.558594 116.730469 C 158.339844 116.730469 158.511719 116.644531 157.554688 116.292969 C 157.8125 116.121094 157.554688 116.03125 158.164062 116.207031 C 158.335938 116.207031 158.601562 116.382812 158.863281 116.554688 C 158.949219 116.554688 159.035156 116.46875 159.035156 116.46875 C 159.296875 116.90625 158.773438 116.730469 159.996094 116.121094 C 160.519531 115.859375 160.605469 115.859375 160.953125 115.160156 C 159.558594 112.714844 155.023438 115.070312 153.453125 115.769531 C 152.929688 115.945312 152.667969 116.03125 152.230469 116.292969 C 151.882812 116.46875 151.621094 116.730469 151.183594 116.902344 C 151.445312 116.117188 151.882812 116.292969 153.191406 115.507812 C 153.800781 115.160156 154.847656 114.546875 155.457031 114.199219 C 156.855469 113.589844 155.199219 114.722656 157.902344 113.0625 C 159.035156 112.453125 163.308594 113.0625 163.921875 113.238281 C 165.140625 113.5 166.449219 114.109375 167.671875 113.761719 L 169.417969 112.800781 C 170.117188 112.277344 169.855469 112.453125 170.898438 112.453125 C 171.605469 112.375 171.78125 112.375 172.476562 112.550781 Z M 216.878906 94.398438 C 216.355469 93.789062 216.878906 94.140625 216.007812 93.964844 C 215.484375 95.621094 215.917969 94.136719 215.132812 95.097656 C 216.964844 95.449219 216.878906 94.925781 217.664062 95.796875 L 217.75 95.882812 C 218.011719 96.234375 217.75 95.972656 217.925781 96.234375 C 217.140625 96.234375 216.703125 95.796875 215.832031 96.320312 C 216.703125 96.757812 216.441406 96.058594 217.664062 96.933594 C 218.273438 97.453125 217.140625 96.933594 218.183594 97.367188 L 217.664062 97.804688 C 217.226562 98.152344 217.402344 97.542969 217.3125 98.152344 C 218.882812 98.503906 218.621094 98.066406 219.929688 98.851562 C 221.847656 100.25 222.808594 99.289062 224.816406 98.589844 C 225.425781 98.417969 226.125 98.589844 226.734375 97.109375 C 225.164062 95.710938 225.949219 97.195312 224.902344 95.625 C 224.203125 94.492188 224.640625 95.710938 223.332031 94.402344 C 222.460938 94.839844 223.59375 95.015625 222.023438 94.925781 C 220.453125 94.925781 220.890625 94.230469 220.019531 95.1875 L 219.40625 94.492188 C 218.96875 95.363281 219.84375 94.75 219.144531 95.277344 C 217.835938 96.324219 219.234375 94.402344 216.703125 93.53125 C 216.527344 93.964844 216.703125 94.050781 216.878906 94.398438 Z M 237.898438 110.28125 C 237.203125 112.375 237.027344 111.589844 236.589844 111.851562 C 237.203125 113.074219 237.375 112.289062 237.8125 112.550781 C 237.636719 113.859375 237.113281 112.898438 237.550781 113.945312 C 237.898438 113.945312 237.988281 113.859375 238.335938 113.335938 C 238.335938 114.035156 237.898438 115.167969 238.25 115.777344 C 238.773438 114.992188 238.160156 114.992188 239.035156 114.730469 C 239.472656 116.300781 239.035156 115.515625 239.121094 116.652344 C 239.296875 116.738281 239.992188 117 240.082031 117 C 240.691406 117.085938 239.992188 116.738281 240.777344 117 L 240.777344 117.085938 L 240.953125 117.609375 C 241.300781 118.308594 241.476562 118.222656 241.652344 118.746094 C 241.738281 119.183594 241.652344 119.269531 241.652344 119.707031 C 240.34375 119.617188 240.867188 119.53125 240.082031 119.269531 C 240.167969 120.488281 240.253906 120.140625 240.519531 120.578125 L 240.605469 120.664062 C 240.953125 121.539062 240.167969 121.449219 239.644531 121.886719 C 240.082031 122.847656 239.90625 122.234375 240.953125 122.585938 C 241.652344 122.847656 241.738281 123.019531 242.613281 122.847656 C 241.652344 123.804688 242.175781 122.757812 240.953125 123.457031 C 240.257812 123.71875 239.734375 124.679688 239.820312 125.113281 C 240.867188 125.375 241.039062 124.066406 241.828125 125.113281 C 242 124.941406 242.175781 124.59375 242.261719 124.328125 C 243.746094 124.765625 243.660156 124.417969 244.878906 124.589844 C 246.015625 124.765625 246.796875 125.027344 247.585938 124.152344 L 247.324219 123.980469 C 247.234375 123.980469 247.234375 123.890625 247.148438 123.890625 L 246.363281 123.371094 C 247.324219 122.757812 247.324219 122.933594 247.410156 121.449219 C 246.539062 121.011719 246.539062 121.011719 245.402344 121.011719 C 245.578125 120.226562 245.316406 120.054688 244.882812 119.269531 C 244.183594 117.695312 244.09375 118.046875 243.746094 117.785156 C 242.265625 116.648438 243.484375 115.253906 240.867188 114.992188 C 241.128906 114.644531 241.042969 114.820312 241.21875 114.382812 L 241.738281 112.203125 C 240.605469 111.851562 240.34375 111.851562 239.210938 112.113281 C 239.648438 110.367188 239.820312 111.851562 239.996094 110.457031 C 239.644531 110.28125 238.335938 110.195312 237.898438 110.28125 Z M 168.027344 75.203125 C 167.855469 76.164062 167.765625 75.902344 168.375 76.425781 C 167.941406 76.6875 167.941406 76.6875 167.589844 76.863281 L 166.632812 76.511719 C 166.71875 76.511719 167.070312 76.25 167.070312 76.25 C 167.328125 75.988281 167.242188 76.078125 167.417969 75.902344 C 168.027344 75.027344 167.15625 75.640625 168.027344 75.203125 Z M 164.976562 85.324219 C 164.277344 86.023438 163.667969 85.585938 163.230469 86.375 L 162.96875 87.070312 C 162.96875 87.070312 162.96875 87.160156 162.882812 87.246094 C 162.445312 87.15625 161.835938 87.15625 161.398438 87.15625 C 161.050781 87.070312 158.78125 86.109375 157.5625 87.855469 C 157.996094 88.726562 158.78125 88.726562 159.65625 88.640625 C 160.613281 88.554688 160.179688 88.554688 160.875 88.640625 C 161.226562 88.640625 161.75 88.554688 162.183594 88.554688 C 162.273438 90.734375 162.445312 90.210938 163.144531 90.300781 L 162.535156 91 L 163.058594 92.046875 L 163.058594 92.132812 C 163.84375 92.480469 163.316406 92.21875 164.277344 92.046875 C 164.539062 93.179688 164.539062 92.832031 165.761719 93.265625 C 166.808594 93.527344 166.632812 93.878906 167.503906 94.050781 C 167.855469 92.046875 167.070312 92.570312 166.632812 91.171875 C 167.855469 91.609375 168.378906 92.480469 169.425781 93.003906 C 170.210938 92.21875 169.773438 92.832031 170.035156 91.871094 C 170.90625 91.695312 169.425781 92.21875 170.644531 91.957031 C 171.429688 91.785156 170.558594 91.957031 170.992188 90.039062 C 171.167969 88.902344 170.207031 90.300781 169.683594 88.730469 C 169.335938 87.769531 170.121094 85.851562 171.34375 87.160156 C 172.5625 88.378906 170.820312 87.597656 171.78125 88.992188 C 171.953125 89.253906 172.566406 89.515625 172.914062 89.601562 C 174.921875 87.59375 173.875 89.339844 174.921875 88.464844 L 175.355469 87.679688 C 175.878906 87.941406 176.230469 87.679688 176.839844 87.417969 C 176.492188 86.984375 176.402344 86.894531 175.96875 86.546875 L 175.53125 86.375 C 174.222656 85.675781 175.183594 86.285156 174.746094 85.5 L 174.394531 85.0625 C 173.785156 84.367188 174.222656 84.714844 172.828125 84.542969 C 172.214844 82.882812 171.953125 84.019531 171.953125 83.320312 C 172.476562 82.796875 172.738281 82.796875 173.875 82.972656 C 173.785156 82.621094 173.613281 82.710938 173.699219 82.097656 C 173.785156 81.574219 174.046875 81.660156 174.046875 81.140625 L 173.261719 81.050781 C 173.785156 80.089844 173.523438 81.488281 173.613281 80.089844 C 173 79.832031 172.566406 79.570312 171.605469 79.570312 C 172.566406 79.132812 172.128906 79.832031 172.476562 78.957031 L 171.953125 78.519531 C 171.429688 78.257812 172.042969 78.519531 171.34375 78.347656 L 170.558594 79.046875 C 170.382812 77.648438 171.34375 77.386719 169.6875 76.601562 C 169.511719 76.515625 169.425781 76.515625 169.164062 76.339844 L 168.902344 76.167969 C 169.425781 76.167969 170.296875 76.339844 170.648438 76.078125 C 170.734375 75.03125 170.910156 75.378906 169.601562 75.117188 C 168.902344 75.03125 168.726562 74.855469 168.03125 75.207031 C 167.941406 74.160156 167.160156 74.507812 164.628906 75.292969 C 163.230469 75.730469 163.84375 75.816406 163.230469 76.339844 C 161.921875 77.214844 162.96875 76.167969 161.921875 77.476562 C 161.921875 75.90625 161.835938 76.691406 162.445312 76.078125 C 164.277344 74.335938 165.0625 75.121094 165.933594 74.421875 C 163.839844 73.199219 160.351562 76.078125 158.695312 76.691406 C 158.957031 77.738281 159.304688 77.039062 159.480469 77.738281 C 159.042969 77.648438 159.042969 77.5625 158.78125 77.5625 C 158.257812 77.476562 159.042969 77.476562 158.257812 77.476562 C 158.257812 77.476562 158.171875 77.5625 158.085938 77.5625 C 158.085938 77.476562 157.996094 77.5625 157.910156 77.5625 C 157.738281 78.175781 157.5625 78.523438 159.046875 79.046875 L 162.621094 80.007812 C 165.066406 80.617188 163.496094 80.355469 164.804688 79.65625 C 166.109375 82.886719 166.722656 82.886719 166.546875 84.71875 Z M 278.550781 136.894531 L 278.636719 138.726562 L 277.679688 138.726562 L 277.242188 137.15625 C 277.765625 136.632812 278.375 136.019531 278.722656 135.761719 C 278.636719 136.371094 278.027344 137.070312 278.550781 136.894531 Z M 280.03125 141.953125 C 280.640625 142.914062 282.210938 145.882812 281.078125 146.144531 C 280.46875 146.316406 280.554688 146.40625 280.03125 146.144531 L 279.074219 145.445312 C 278.984375 145.007812 278.8125 144.308594 277.851562 144.308594 C 276.890625 144.398438 277.066406 144.921875 276.28125 145.53125 C 274.886719 145.355469 274.800781 145.09375 274.449219 143.960938 C 273.925781 142.128906 274.1875 143.261719 274.363281 141.34375 C 274.449219 140.734375 274.273438 140.472656 274.273438 140.121094 C 274.273438 137.941406 274.449219 140.210938 274.710938 138.726562 C 274.800781 138.113281 274.710938 138.464844 274.625 138.027344 C 274.535156 137.15625 274.625 136.628906 275.148438 136.019531 C 276.28125 136.804688 274.535156 137.15625 276.628906 137.066406 C 276.542969 137.15625 276.367188 137.851562 276.367188 137.941406 C 276.28125 138.550781 276.28125 138.203125 276.542969 138.726562 C 277.238281 139.859375 276.804688 139.335938 277.152344 140.382812 L 277.851562 139.597656 C 278.113281 139.335938 277.414062 139.683594 278.285156 139.335938 C 278.984375 139.683594 277.9375 138.988281 279.074219 140.296875 C 279.507812 140.820312 279.945312 140.910156 280.03125 141.953125 Z M 132.613281 123.019531 C 133.3125 122.671875 132.875 122.757812 133.746094 122.847656 C 133.921875 122.148438 133.574219 122.671875 134.007812 122.058594 C 134.878906 122.847656 133.484375 122.320312 137.0625 121.972656 L 138.285156 122.058594 C 137.933594 122.496094 138.109375 122.582031 137.148438 122.757812 C 135.753906 123.195312 134.707031 123.71875 134.007812 123.71875 C 132.960938 123.804688 133.046875 123.804688 132.613281 123.019531 Z M 138.195312 121.011719 C 139.332031 119.703125 139.15625 121.101562 142.207031 120.488281 C 142.121094 121.011719 141.949219 121.449219 141.773438 121.800781 C 141.074219 121.625 140.550781 121.710938 139.765625 121.363281 C 138.457031 120.839844 139.503906 121.363281 138.542969 121.1875 Z M 133.046875 110.890625 C 133.222656 111.152344 133.136719 111.066406 133.484375 111.328125 L 133.921875 111.589844 C 133.921875 111.503906 134.09375 111.589844 134.09375 111.675781 C 134.007812 112.375 133.921875 112.199219 134.09375 112.636719 L 134.355469 113.074219 C 134.707031 113.773438 134.53125 114.207031 134.445312 114.992188 C 134.007812 114.992188 132.523438 114.730469 132 114.820312 C 131.652344 114.644531 131.214844 114.382812 131.042969 113.945312 C 131.042969 113.597656 131.042969 113.859375 131.214844 113.511719 L 131.566406 113.160156 C 129.644531 113.25 130.34375 114.207031 128.074219 113.859375 C 126.765625 113.683594 127.464844 114.035156 126.855469 113.597656 C 128.074219 113.160156 128.949219 112.988281 130.082031 112.375 C 131.476562 111.765625 129.648438 112.027344 133.046875 110.890625 Z M 131.21875 116.125 C 132.351562 115.953125 133.136719 115.515625 134.269531 116.039062 C 135.316406 115.515625 133.3125 116.476562 134.707031 115.691406 C 134.792969 115.601562 134.621094 115.601562 135.144531 115.429688 C 136.800781 117.085938 137.933594 115.515625 138.632812 118.484375 C 137.933594 119.09375 138.371094 119.007812 137.585938 119.179688 L 136.886719 117.699219 C 136.886719 117.785156 136.886719 117.785156 136.886719 117.871094 C 136.539062 119.269531 136.449219 118.570312 135.839844 119.53125 C 135.230469 120.578125 135.929688 120.664062 134.707031 121.011719 L 134.792969 119.355469 C 133.484375 119.179688 134.269531 119.527344 133.660156 119.09375 C 134.445312 118.570312 134.792969 118.308594 134.792969 117.261719 C 134.53125 116.914062 133.660156 116.476562 133.3125 116.390625 C 132.265625 117.347656 131.390625 117.4375 130.605469 118.65625 C 129.734375 120.140625 130.695312 120.839844 129.125 122.148438 C 128.511719 122.496094 128.949219 122.410156 128.253906 122.496094 C 127.816406 121.625 128.511719 120.230469 128.949219 119.441406 C 129.648438 118.394531 130.171875 117.523438 130.957031 117.175781 L 130.609375 117.085938 L 130.519531 117.085938 C 128.949219 116.738281 131.042969 117.523438 129.996094 117 C 130.605469 116.652344 130.78125 116.652344 131.21875 116.125 Z M 127.117188 105.65625 C 127.027344 104.695312 126.855469 104.257812 126.941406 103.125 C 127.203125 101.644531 127.988281 101.730469 128.425781 101.730469 L 127.289062 106.003906 L 126.242188 107.226562 C 125.984375 106.527344 126.59375 106.179688 127.117188 105.65625 Z M 127.117188 105.65625 " fill-opacity="1" fill-rule="evenodd"/></g><path fill="#63b0dd" d="M 174.394531 277.464844 C 153.375 276.855469 135.316406 269.613281 120.3125 255.566406 C 141.949219 243.347656 170.125 236.542969 205.015625 235.234375 C 252.992188 237.675781 285.003906 227.292969 301.054688 203.910156 C 282.214844 251.722656 239.992188 276.15625 174.394531 277.464844 Z M 174.394531 277.464844 " fill-opacity="1" fill-rule="evenodd"/></svg>