<svg xmlns="http://www.w3.org/2000/svg" xmlns:xlink="http://www.w3.org/1999/xlink" width="500" zoomAndPan="magnify" viewBox="0 0 375 374.999991" height="500" preserveAspectRatio="xMidYMid meet" version="1.0"><defs><clipPath id="2976d03918"><path d="M 57.296875 57.296875 L 317.546875 57.296875 L 317.546875 317.546875 L 57.296875 317.546875 Z M 57.296875 57.296875 " clip-rule="nonzero"/></clipPath></defs><rect x="-37.5" width="450" fill="#ffffff" y="-37.499999" height="449.999989" fill-opacity="1"/><rect x="-37.5" width="450" fill="#ffffff" y="-37.499999" height="449.999989" fill-opacity="1"/><rect x="-37.5" width="450" fill="#061a37" y="-37.499999" height="449.999989" fill-opacity="1"/><g clip-path="url(#2976d03918)"><path fill="#63b0dd" d="M 303.089844 165.734375 L 278.785156 165.734375 C 276.441406 155.835938 272.539062 146.570312 267.347656 138.164062 L 284.546875 120.964844 C 290.191406 115.316406 290.191406 106.160156 284.546875 100.511719 L 274.324219 90.289062 C 268.679688 84.644531 259.527344 84.644531 253.878906 90.289062 L 236.679688 107.488281 C 228.265625 102.296875 219.007812 98.402344 209.109375 96.058594 L 209.109375 71.753906 C 209.109375 63.773438 202.632812 57.296875 194.652344 57.296875 L 180.191406 57.296875 C 172.210938 57.296875 165.734375 63.773438 165.734375 71.753906 L 165.734375 96.058594 C 155.835938 98.402344 146.570312 102.304688 138.164062 107.496094 L 120.972656 90.296875 C 115.324219 84.652344 106.167969 84.652344 100.527344 90.296875 L 90.296875 100.519531 C 84.652344 106.167969 84.652344 115.324219 90.289062 120.972656 L 107.488281 138.167969 C 102.296875 146.578125 98.402344 155.84375 96.058594 165.734375 L 71.753906 165.734375 C 63.773438 165.734375 57.296875 172.210938 57.296875 180.191406 L 57.296875 194.652344 C 57.296875 202.632812 63.773438 209.109375 71.753906 209.109375 L 96.058594 209.109375 C 98.402344 219 102.304688 228.265625 107.496094 236.675781 L 90.296875 253.871094 C 84.660156 259.511719 84.660156 268.679688 90.304688 274.324219 L 100.527344 284.546875 C 106.167969 290.183594 115.324219 290.183594 120.972656 284.546875 L 138.167969 267.347656 C 146.578125 272.546875 155.84375 276.441406 165.742188 278.785156 L 165.742188 303.089844 C 165.742188 311.070312 172.21875 317.546875 180.199219 317.546875 L 194.660156 317.546875 C 202.640625 317.546875 209.117188 311.070312 209.117188 303.089844 L 209.117188 278.785156 C 219.007812 276.441406 228.273438 272.539062 236.679688 267.347656 L 253.878906 284.546875 C 259.527344 290.191406 268.679688 290.191406 274.324219 284.546875 L 284.546875 274.324219 C 290.191406 268.679688 290.191406 259.519531 284.546875 253.871094 L 267.347656 236.675781 C 272.546875 228.265625 276.441406 219 278.785156 209.101562 L 303.089844 209.101562 C 311.070312 209.101562 317.546875 202.625 317.546875 194.644531 L 317.546875 180.1875 C 317.546875 172.210938 311.070312 165.734375 303.089844 165.734375 Z M 187.421875 245.253906 C 155.484375 245.253906 129.589844 219.359375 129.589844 187.421875 C 129.589844 155.484375 155.484375 129.589844 187.421875 129.589844 C 219.359375 129.589844 245.253906 155.484375 245.253906 187.421875 C 245.253906 219.359375 219.359375 245.253906 187.421875 245.253906 Z M 187.421875 245.253906 " fill-opacity="1" fill-rule="nonzero"/></g></svg>